solid OpenSCAD_Model
  facet normal -0 0 1
    outer loop
      vertex -20 -59.675 40
      vertex -12 -71.175 40
      vertex -12 -59.675 40
    endloop
  endfacet
  facet normal 0 0 1
    outer loop
      vertex -12 -71.175 40
      vertex -20 -59.675 40
      vertex -20 -71.175 40
    endloop
  endfacet
  facet normal 1 0 0
    outer loop
      vertex -12 -59.675 40
      vertex -12 -60.2565 33.0781
      vertex -12 -59.675 32.0709
    endloop
  endfacet
  facet normal 1 0 0
    outer loop
      vertex -12 -59.675 40
      vertex -12 -61.804 34.2024
      vertex -12 -60.2565 33.0781
    endloop
  endfacet
  facet normal 1 0 0
    outer loop
      vertex -12 -59.675 40
      vertex -12 -63.675 34.6001
      vertex -12 -61.804 34.2024
    endloop
  endfacet
  facet normal 1 -0 0
    outer loop
      vertex -12 -71.175 40
      vertex -12 -63.675 34.6001
      vertex -12 -59.675 40
    endloop
  endfacet
  facet normal 1 0 0
    outer loop
      vertex -12 -63.675 34.6001
      vertex -12 -71.175 40
      vertex -12 -65.546 34.2024
    endloop
  endfacet
  facet normal 1 0 0
    outer loop
      vertex -12 -68.05 31.4215
      vertex -12 -71.175 40
      vertex -12 -68.2499 29.5192
    endloop
  endfacet
  facet normal 1 0 0
    outer loop
      vertex -12 -67.0935 33.0781
      vertex -12 -71.175 40
      vertex -12 -68.05 31.4215
    endloop
  endfacet
  facet normal 1 0 0
    outer loop
      vertex -12 -65.546 34.2024
      vertex -12 -71.175 40
      vertex -12 -67.0935 33.0781
    endloop
  endfacet
  facet normal 1 -0 0
    outer loop
      vertex -12 -59.6912 27.6999
      vertex -12 -59.675 20
      vertex -12 -59.675 27.7498
    endloop
  endfacet
  facet normal 1 -0 0
    outer loop
      vertex -12 -60.9711 26.2784
      vertex -12 -59.675 20
      vertex -12 -59.6912 27.6999
    endloop
  endfacet
  facet normal 1 -0 0
    outer loop
      vertex -12 -62.7186 25.5004
      vertex -12 -59.675 20
      vertex -12 -60.9711 26.2784
    endloop
  endfacet
  facet normal 1 -0 0
    outer loop
      vertex -12 -64.6314 25.5004
      vertex -12 -59.675 20
      vertex -12 -62.7186 25.5004
    endloop
  endfacet
  facet normal 1 0 0
    outer loop
      vertex -12 -71.175 20
      vertex -12 -64.6314 25.5004
      vertex -12 -66.3789 26.2784
    endloop
  endfacet
  facet normal 1 0 0
    outer loop
      vertex -12 -64.6314 25.5004
      vertex -12 -71.175 20
      vertex -12 -59.675 20
    endloop
  endfacet
  facet normal 1 0 0
    outer loop
      vertex -12 -67.6588 27.6999
      vertex -12 -71.175 20
      vertex -12 -66.3789 26.2784
    endloop
  endfacet
  facet normal 1 0 0
    outer loop
      vertex -12 -68.2499 29.5192
      vertex -12 -71.175 20
      vertex -12 -67.6588 27.6999
    endloop
  endfacet
  facet normal 1 0 0
    outer loop
      vertex -12 -71.175 20
      vertex -12 -68.2499 29.5192
      vertex -12 -71.175 40
    endloop
  endfacet
  facet normal -1 0 0
    outer loop
      vertex -20 11.175 5
      vertex -20 6.1631 30
      vertex -20 11.175 40
    endloop
  endfacet
  facet normal -1 0 0
    outer loop
      vertex -20 11.175 5
      vertex -20 5.43435 28.2406
      vertex -20 6.1631 30
    endloop
  endfacet
  facet normal -1 0 0
    outer loop
      vertex -20 11.175 5
      vertex -20 3.675 27.5119
      vertex -20 5.43435 28.2406
    endloop
  endfacet
  facet normal -1 0 0
    outer loop
      vertex -20 -0.325001 5
      vertex -20 3.675 27.5119
      vertex -20 11.175 5
    endloop
  endfacet
  facet normal -1 -0 0
    outer loop
      vertex -20 3.675 27.5119
      vertex -20 -0.325001 5
      vertex -20 1.91565 28.2406
    endloop
  endfacet
  facet normal -1 -0 0
    outer loop
      vertex -20 1.91565 28.2406
      vertex -20 -0.325001 5
      vertex -20 1.1869 30
    endloop
  endfacet
  facet normal -1 0 0
    outer loop
      vertex -20 5.43435 31.7594
      vertex -20 11.175 40
      vertex -20 6.1631 30
    endloop
  endfacet
  facet normal -1 0 0
    outer loop
      vertex -20 3.675 32.4881
      vertex -20 11.175 40
      vertex -20 5.43435 31.7594
    endloop
  endfacet
  facet normal -1 0 0
    outer loop
      vertex -20 -0.325001 40
      vertex -20 3.675 32.4881
      vertex -20 1.91565 31.7594
    endloop
  endfacet
  facet normal -1 0 0
    outer loop
      vertex -20 3.675 32.4881
      vertex -20 -0.325001 40
      vertex -20 11.175 40
    endloop
  endfacet
  facet normal -1 0 0
    outer loop
      vertex -20 1.1869 30
      vertex -20 -0.325001 40
      vertex -20 1.91565 31.7594
    endloop
  endfacet
  facet normal -1 0 0
    outer loop
      vertex -20 -0.325001 40
      vertex -20 1.1869 30
      vertex -20 -0.325001 5
    endloop
  endfacet
  facet normal -1 0 0
    outer loop
      vertex -20 -59.675 5
      vertex -20 -61.1869 30
      vertex -20 -59.675 40
    endloop
  endfacet
  facet normal -1 0 0
    outer loop
      vertex -20 -59.675 5
      vertex -20 -61.9156 28.2406
      vertex -20 -61.1869 30
    endloop
  endfacet
  facet normal -1 0 0
    outer loop
      vertex -20 -59.675 5
      vertex -20 -63.675 27.5119
      vertex -20 -61.9156 28.2406
    endloop
  endfacet
  facet normal -1 0 0
    outer loop
      vertex -20 -71.175 5
      vertex -20 -63.675 27.5119
      vertex -20 -59.675 5
    endloop
  endfacet
  facet normal -1 -0 0
    outer loop
      vertex -20 -63.675 27.5119
      vertex -20 -71.175 5
      vertex -20 -65.4343 28.2406
    endloop
  endfacet
  facet normal -1 -0 0
    outer loop
      vertex -20 -65.4343 28.2406
      vertex -20 -71.175 5
      vertex -20 -66.1631 30
    endloop
  endfacet
  facet normal -1 0 0
    outer loop
      vertex -20 -61.9156 31.7594
      vertex -20 -59.675 40
      vertex -20 -61.1869 30
    endloop
  endfacet
  facet normal -1 0 0
    outer loop
      vertex -20 -63.675 32.4881
      vertex -20 -59.675 40
      vertex -20 -61.9156 31.7594
    endloop
  endfacet
  facet normal -1 0 0
    outer loop
      vertex -20 -71.175 40
      vertex -20 -63.675 32.4881
      vertex -20 -65.4343 31.7594
    endloop
  endfacet
  facet normal -1 0 0
    outer loop
      vertex -20 -63.675 32.4881
      vertex -20 -71.175 40
      vertex -20 -59.675 40
    endloop
  endfacet
  facet normal -1 0 0
    outer loop
      vertex -20 -66.1631 30
      vertex -20 -71.175 40
      vertex -20 -65.4343 31.7594
    endloop
  endfacet
  facet normal -1 0 0
    outer loop
      vertex -20 -71.175 40
      vertex -20 -66.1631 30
      vertex -20 -71.175 5
    endloop
  endfacet
  facet normal 0 -1 0
    outer loop
      vertex -20 -71.175 40
      vertex -12 -71.175 20
      vertex -12 -71.175 40
    endloop
  endfacet
  facet normal 0 -1 0
    outer loop
      vertex -20 -71.175 5
      vertex -12 -71.175 20
      vertex -20 -71.175 40
    endloop
  endfacet
  facet normal 0 -1 0
    outer loop
      vertex 35 -71.175 5
      vertex -12 -71.175 20
      vertex -20 -71.175 5
    endloop
  endfacet
  facet normal 0 -1 0
    outer loop
      vertex -12 -71.175 20
      vertex 35 -71.175 5
      vertex 35 -71.175 20
    endloop
  endfacet
  facet normal -0 0 1
    outer loop
      vertex -20 11.175 40
      vertex -12 -0.325001 40
      vertex -12 11.175 40
    endloop
  endfacet
  facet normal 0 0 1
    outer loop
      vertex -12 -0.325001 40
      vertex -20 11.175 40
      vertex -20 -0.325001 40
    endloop
  endfacet
  facet normal 1 0 0
    outer loop
      vertex -12 11.175 40
      vertex -12 8.2499 29.5192
      vertex -12 11.175 20
    endloop
  endfacet
  facet normal 1 0 0
    outer loop
      vertex -12 11.175 40
      vertex -12 8.04995 31.4215
      vertex -12 8.2499 29.5192
    endloop
  endfacet
  facet normal 1 0 0
    outer loop
      vertex -12 11.175 40
      vertex -12 7.09354 33.0781
      vertex -12 8.04995 31.4215
    endloop
  endfacet
  facet normal 1 0 0
    outer loop
      vertex -12 11.175 40
      vertex -12 5.54603 34.2024
      vertex -12 7.09354 33.0781
    endloop
  endfacet
  facet normal 1 0 0
    outer loop
      vertex -12 11.175 40
      vertex -12 3.675 34.6001
      vertex -12 5.54603 34.2024
    endloop
  endfacet
  facet normal 1 -0 0
    outer loop
      vertex -12 -0.325001 40
      vertex -12 3.675 34.6001
      vertex -12 11.175 40
    endloop
  endfacet
  facet normal 1 0 0
    outer loop
      vertex -12 3.675 34.6001
      vertex -12 -0.325001 40
      vertex -12 1.80397 34.2024
    endloop
  endfacet
  facet normal 1 0 0
    outer loop
      vertex -12 -0.325001 40
      vertex -12 0.25646 33.0781
      vertex -12 1.80397 34.2024
    endloop
  endfacet
  facet normal 1 0 0
    outer loop
      vertex -12 0.25646 33.0781
      vertex -12 -0.325001 40
      vertex -12 -0.325001 32.0709
    endloop
  endfacet
  facet normal 1 -0 0
    outer loop
      vertex -12 7.6588 27.6999
      vertex -12 11.175 20
      vertex -12 8.2499 29.5192
    endloop
  endfacet
  facet normal 1 -0 0
    outer loop
      vertex -12 6.37887 26.2784
      vertex -12 11.175 20
      vertex -12 7.6588 27.6999
    endloop
  endfacet
  facet normal 1 -0 0
    outer loop
      vertex -12 4.63141 25.5004
      vertex -12 11.175 20
      vertex -12 6.37887 26.2784
    endloop
  endfacet
  facet normal 1 0 0
    outer loop
      vertex -12 -0.325001 20
      vertex -12 4.63141 25.5004
      vertex -12 2.71859 25.5004
    endloop
  endfacet
  facet normal 1 0 0
    outer loop
      vertex -12 -0.325001 20
      vertex -12 2.71859 25.5004
      vertex -12 0.971129 26.2784
    endloop
  endfacet
  facet normal 1 0 0
    outer loop
      vertex -12 4.63141 25.5004
      vertex -12 -0.325001 20
      vertex -12 11.175 20
    endloop
  endfacet
  facet normal 1 0 0
    outer loop
      vertex -12 -0.308803 27.6999
      vertex -12 -0.325001 20
      vertex -12 0.971129 26.2784
    endloop
  endfacet
  facet normal 1 0 0
    outer loop
      vertex -12 -0.325001 20
      vertex -12 -0.308803 27.6999
      vertex -12 -0.325001 27.7498
    endloop
  endfacet
  facet normal 0 1 0
    outer loop
      vertex 35 11.175 20
      vertex 35 11.175 5
      vertex -12 11.175 20
    endloop
  endfacet
  facet normal 0 1 -0
    outer loop
      vertex -12 11.175 20
      vertex -20 11.175 40
      vertex -12 11.175 40
    endloop
  endfacet
  facet normal 0 1 0
    outer loop
      vertex -12 11.175 20
      vertex -20 11.175 5
      vertex -20 11.175 40
    endloop
  endfacet
  facet normal 0 1 0
    outer loop
      vertex -20 11.175 5
      vertex -12 11.175 20
      vertex 35 11.175 5
    endloop
  endfacet
  facet normal 0 -0.207911 -0.978148
    outer loop
      vertex -15 -63.675 34.6001
      vertex -12 -61.804 34.2024
      vertex -12 -63.675 34.6001
    endloop
  endfacet
  facet normal -0 -0.207911 -0.978148
    outer loop
      vertex -12 -61.804 34.2024
      vertex -15 -63.675 34.6001
      vertex -15 -61.804 34.2024
    endloop
  endfacet
  facet normal -0 0 1
    outer loop
      vertex -15 -62.7186 25.5004
      vertex -12 -64.6314 25.5004
      vertex -12 -62.7186 25.5004
    endloop
  endfacet
  facet normal 0 0 1
    outer loop
      vertex -12 -64.6314 25.5004
      vertex -15 -62.7186 25.5004
      vertex -15 -64.6314 25.5004
    endloop
  endfacet
  facet normal 0 -0.587785 -0.809017
    outer loop
      vertex -15 -61.804 34.2024
      vertex -12 -60.2565 33.0781
      vertex -12 -61.804 34.2024
    endloop
  endfacet
  facet normal -0 -0.587785 -0.809017
    outer loop
      vertex -12 -60.2565 33.0781
      vertex -15 -61.804 34.2024
      vertex -15 -60.2565 33.0781
    endloop
  endfacet
  facet normal 0 0.994522 -0.104528
    outer loop
      vertex -12 -68.2499 29.5192
      vertex -15 -68.05 31.4215
      vertex -12 -68.05 31.4215
    endloop
  endfacet
  facet normal 0 0.994522 -0.104528
    outer loop
      vertex -15 -68.05 31.4215
      vertex -12 -68.2499 29.5192
      vertex -15 -68.2499 29.5192
    endloop
  endfacet
  facet normal 0 0.866024 -0.500002
    outer loop
      vertex -12 -68.05 31.4215
      vertex -15 -67.0935 33.0781
      vertex -12 -67.0935 33.0781
    endloop
  endfacet
  facet normal 0 0.866024 -0.500002
    outer loop
      vertex -15 -67.0935 33.0781
      vertex -12 -68.05 31.4215
      vertex -15 -68.05 31.4215
    endloop
  endfacet
  facet normal 0 -0.866027 -0.499998
    outer loop
      vertex -15 -59.675 32.0709
      vertex -12 -60.2565 33.0781
      vertex -15 -60.2565 33.0781
    endloop
  endfacet
  facet normal 0 -0.866027 -0.499998
    outer loop
      vertex -12 -60.2565 33.0781
      vertex -15 -59.675 32.0709
      vertex -12 -59.675 32.0709
    endloop
  endfacet
  facet normal 0 -0.743144 0.669131
    outer loop
      vertex -15 -60.9711 26.2784
      vertex -12 -59.6912 27.6999
      vertex -15 -59.6912 27.6999
    endloop
  endfacet
  facet normal 0 -0.743144 0.669131
    outer loop
      vertex -12 -59.6912 27.6999
      vertex -15 -60.9711 26.2784
      vertex -12 -60.9711 26.2784
    endloop
  endfacet
  facet normal 0 -0.406737 0.913546
    outer loop
      vertex -15 -60.9711 26.2784
      vertex -12 -62.7186 25.5004
      vertex -12 -60.9711 26.2784
    endloop
  endfacet
  facet normal 0 -0.406737 0.913546
    outer loop
      vertex -12 -62.7186 25.5004
      vertex -15 -60.9711 26.2784
      vertex -15 -62.7186 25.5004
    endloop
  endfacet
  facet normal 1 -0 0
    outer loop
      vertex -15 -61.1869 30
      vertex -15 -59.675 27.7498
      vertex -15 -59.675 32.0709
    endloop
  endfacet
  facet normal 1 0 0
    outer loop
      vertex -15 -61.9156 31.7594
      vertex -15 -59.675 32.0709
      vertex -15 -60.2565 33.0781
    endloop
  endfacet
  facet normal 1 -0 0
    outer loop
      vertex -15 -61.9156 28.2406
      vertex -15 -59.675 27.7498
      vertex -15 -61.1869 30
    endloop
  endfacet
  facet normal 1 0 0
    outer loop
      vertex -15 -59.675 27.7498
      vertex -15 -61.9156 28.2406
      vertex -15 -59.6912 27.6999
    endloop
  endfacet
  facet normal 1 0 0
    outer loop
      vertex -15 -61.9156 31.7594
      vertex -15 -60.2565 33.0781
      vertex -15 -61.804 34.2024
    endloop
  endfacet
  facet normal 1 0 0
    outer loop
      vertex -15 -59.675 32.0709
      vertex -15 -61.9156 31.7594
      vertex -15 -61.1869 30
    endloop
  endfacet
  facet normal 1 0 0
    outer loop
      vertex -15 -63.675 32.4881
      vertex -15 -61.804 34.2024
      vertex -15 -63.675 34.6001
    endloop
  endfacet
  facet normal 1 0 0
    outer loop
      vertex -15 -61.804 34.2024
      vertex -15 -63.675 32.4881
      vertex -15 -61.9156 31.7594
    endloop
  endfacet
  facet normal 1 -0 0
    outer loop
      vertex -15 -65.546 34.2024
      vertex -15 -63.675 32.4881
      vertex -15 -63.675 34.6001
    endloop
  endfacet
  facet normal 1 0 0
    outer loop
      vertex -15 -63.675 32.4881
      vertex -15 -65.546 34.2024
      vertex -15 -65.4343 31.7594
    endloop
  endfacet
  facet normal 1 -0 0
    outer loop
      vertex -15 -67.0935 33.0781
      vertex -15 -65.4343 31.7594
      vertex -15 -65.546 34.2024
    endloop
  endfacet
  facet normal 1 0 0
    outer loop
      vertex -15 -68.05 31.4215
      vertex -15 -65.4343 31.7594
      vertex -15 -67.0935 33.0781
    endloop
  endfacet
  facet normal 1 0 0
    outer loop
      vertex -15 -65.4343 31.7594
      vertex -15 -68.05 31.4215
      vertex -15 -66.1631 30
    endloop
  endfacet
  facet normal 1 0 0
    outer loop
      vertex -15 -66.1631 30
      vertex -15 -67.6588 27.6999
      vertex -15 -66.3789 26.2784
    endloop
  endfacet
  facet normal 1 0 0
    outer loop
      vertex -15 -68.2499 29.5192
      vertex -15 -66.1631 30
      vertex -15 -68.05 31.4215
    endloop
  endfacet
  facet normal 1 0 0
    outer loop
      vertex -15 -66.1631 30
      vertex -15 -68.2499 29.5192
      vertex -15 -67.6588 27.6999
    endloop
  endfacet
  facet normal 1 0 0
    outer loop
      vertex -15 -59.6912 27.6999
      vertex -15 -61.9156 28.2406
      vertex -15 -60.9711 26.2784
    endloop
  endfacet
  facet normal 1 0 0
    outer loop
      vertex -15 -61.9156 28.2406
      vertex -15 -62.7186 25.5004
      vertex -15 -60.9711 26.2784
    endloop
  endfacet
  facet normal 1 -0 0
    outer loop
      vertex -15 -63.675 27.5119
      vertex -15 -62.7186 25.5004
      vertex -15 -61.9156 28.2406
    endloop
  endfacet
  facet normal 1 0 0
    outer loop
      vertex -15 -63.675 27.5119
      vertex -15 -64.6314 25.5004
      vertex -15 -62.7186 25.5004
    endloop
  endfacet
  facet normal 1 0 0
    outer loop
      vertex -15 -65.4343 28.2406
      vertex -15 -64.6314 25.5004
      vertex -15 -63.675 27.5119
    endloop
  endfacet
  facet normal 1 0 0
    outer loop
      vertex -15 -66.3789 26.2784
      vertex -15 -65.4343 28.2406
      vertex -15 -66.1631 30
    endloop
  endfacet
  facet normal 1 0 0
    outer loop
      vertex -15 -65.4343 28.2406
      vertex -15 -66.3789 26.2784
      vertex -15 -64.6314 25.5004
    endloop
  endfacet
  facet normal 0 -0.951061 0.309003
    outer loop
      vertex -15 -59.6912 27.6999
      vertex -12 -59.675 27.7498
      vertex -15 -59.675 27.7498
    endloop
  endfacet
  facet normal 0 -0.951061 0.309003
    outer loop
      vertex -12 -59.675 27.7498
      vertex -15 -59.6912 27.6999
      vertex -12 -59.6912 27.6999
    endloop
  endfacet
  facet normal 0 0.207911 -0.978148
    outer loop
      vertex -15 -65.546 34.2024
      vertex -12 -63.675 34.6001
      vertex -12 -65.546 34.2024
    endloop
  endfacet
  facet normal 0 0.207911 -0.978148
    outer loop
      vertex -12 -63.675 34.6001
      vertex -15 -65.546 34.2024
      vertex -15 -63.675 34.6001
    endloop
  endfacet
  facet normal 0 0.587786 -0.809017
    outer loop
      vertex -15 -67.0935 33.0781
      vertex -12 -65.546 34.2024
      vertex -12 -67.0935 33.0781
    endloop
  endfacet
  facet normal 0 0.587786 -0.809017
    outer loop
      vertex -12 -65.546 34.2024
      vertex -15 -67.0935 33.0781
      vertex -15 -65.546 34.2024
    endloop
  endfacet
  facet normal 0 0.951057 0.309016
    outer loop
      vertex -12 -67.6588 27.6999
      vertex -15 -68.2499 29.5192
      vertex -12 -68.2499 29.5192
    endloop
  endfacet
  facet normal 0 0.951057 0.309016
    outer loop
      vertex -15 -68.2499 29.5192
      vertex -12 -67.6588 27.6999
      vertex -15 -67.6588 27.6999
    endloop
  endfacet
  facet normal 0 0.743143 0.669132
    outer loop
      vertex -12 -66.3789 26.2784
      vertex -15 -67.6588 27.6999
      vertex -12 -67.6588 27.6999
    endloop
  endfacet
  facet normal 0 0.743143 0.669132
    outer loop
      vertex -15 -67.6588 27.6999
      vertex -12 -66.3789 26.2784
      vertex -15 -66.3789 26.2784
    endloop
  endfacet
  facet normal -0 0.406737 0.913545
    outer loop
      vertex -15 -64.6314 25.5004
      vertex -12 -66.3789 26.2784
      vertex -12 -64.6314 25.5004
    endloop
  endfacet
  facet normal 0 0.406737 0.913545
    outer loop
      vertex -12 -66.3789 26.2784
      vertex -15 -64.6314 25.5004
      vertex -15 -66.3789 26.2784
    endloop
  endfacet
  facet normal 0 -0.382683 -0.92388
    outer loop
      vertex -20 -63.675 32.4881
      vertex -15 -61.9156 31.7594
      vertex -15 -63.675 32.4881
    endloop
  endfacet
  facet normal -0 -0.382683 -0.92388
    outer loop
      vertex -15 -61.9156 31.7594
      vertex -20 -63.675 32.4881
      vertex -20 -61.9156 31.7594
    endloop
  endfacet
  facet normal 0 -0.382684 0.923879
    outer loop
      vertex -20 -61.9156 28.2406
      vertex -15 -63.675 27.5119
      vertex -15 -61.9156 28.2406
    endloop
  endfacet
  facet normal 0 -0.382684 0.923879
    outer loop
      vertex -15 -63.675 27.5119
      vertex -20 -61.9156 28.2406
      vertex -20 -63.675 27.5119
    endloop
  endfacet
  facet normal 0 -0.923879 -0.382684
    outer loop
      vertex -20 -61.1869 30
      vertex -15 -61.9156 31.7594
      vertex -20 -61.9156 31.7594
    endloop
  endfacet
  facet normal 0 -0.923879 -0.382684
    outer loop
      vertex -15 -61.9156 31.7594
      vertex -20 -61.1869 30
      vertex -15 -61.1869 30
    endloop
  endfacet
  facet normal 0 -0.923879 0.382684
    outer loop
      vertex -20 -61.9156 28.2406
      vertex -15 -61.1869 30
      vertex -20 -61.1869 30
    endloop
  endfacet
  facet normal 0 -0.923879 0.382684
    outer loop
      vertex -15 -61.1869 30
      vertex -20 -61.9156 28.2406
      vertex -15 -61.9156 28.2406
    endloop
  endfacet
  facet normal 0 0.923879 -0.382686
    outer loop
      vertex -15 -66.1631 30
      vertex -20 -65.4343 31.7594
      vertex -15 -65.4343 31.7594
    endloop
  endfacet
  facet normal 0 0.923879 -0.382686
    outer loop
      vertex -20 -65.4343 31.7594
      vertex -15 -66.1631 30
      vertex -20 -66.1631 30
    endloop
  endfacet
  facet normal -0 0.382684 0.923879
    outer loop
      vertex -20 -63.675 27.5119
      vertex -15 -65.4343 28.2406
      vertex -15 -63.675 27.5119
    endloop
  endfacet
  facet normal 0 0.382684 0.923879
    outer loop
      vertex -15 -65.4343 28.2406
      vertex -20 -63.675 27.5119
      vertex -20 -65.4343 28.2406
    endloop
  endfacet
  facet normal 0 0.923879 0.382686
    outer loop
      vertex -15 -65.4343 28.2406
      vertex -20 -66.1631 30
      vertex -15 -66.1631 30
    endloop
  endfacet
  facet normal 0 0.923879 0.382686
    outer loop
      vertex -20 -66.1631 30
      vertex -15 -65.4343 28.2406
      vertex -20 -65.4343 28.2406
    endloop
  endfacet
  facet normal 0 0.382683 -0.92388
    outer loop
      vertex -20 -65.4343 31.7594
      vertex -15 -63.675 32.4881
      vertex -15 -65.4343 31.7594
    endloop
  endfacet
  facet normal 0 0.382683 -0.92388
    outer loop
      vertex -15 -63.675 32.4881
      vertex -20 -65.4343 31.7594
      vertex -20 -63.675 32.4881
    endloop
  endfacet
  facet normal 0 -0.207911 -0.978148
    outer loop
      vertex -15 3.675 34.6001
      vertex -12 5.54603 34.2024
      vertex -12 3.675 34.6001
    endloop
  endfacet
  facet normal -0 -0.207911 -0.978148
    outer loop
      vertex -12 5.54603 34.2024
      vertex -15 3.675 34.6001
      vertex -15 5.54603 34.2024
    endloop
  endfacet
  facet normal -0 0 1
    outer loop
      vertex -15 4.63141 25.5004
      vertex -12 2.71859 25.5004
      vertex -12 4.63141 25.5004
    endloop
  endfacet
  facet normal 0 0 1
    outer loop
      vertex -12 2.71859 25.5004
      vertex -15 4.63141 25.5004
      vertex -15 2.71859 25.5004
    endloop
  endfacet
  facet normal 0 -0.994522 -0.104529
    outer loop
      vertex -15 8.2499 29.5192
      vertex -12 8.04995 31.4215
      vertex -15 8.04995 31.4215
    endloop
  endfacet
  facet normal 0 -0.994522 -0.104529
    outer loop
      vertex -12 8.04995 31.4215
      vertex -15 8.2499 29.5192
      vertex -12 8.2499 29.5192
    endloop
  endfacet
  facet normal 0 -0.587785 -0.809017
    outer loop
      vertex -15 5.54603 34.2024
      vertex -12 7.09354 33.0781
      vertex -12 5.54603 34.2024
    endloop
  endfacet
  facet normal -0 -0.587785 -0.809017
    outer loop
      vertex -12 7.09354 33.0781
      vertex -15 5.54603 34.2024
      vertex -15 7.09354 33.0781
    endloop
  endfacet
  facet normal 0 0.866026 -0.499999
    outer loop
      vertex -12 -0.325001 32.0709
      vertex -15 0.25646 33.0781
      vertex -12 0.25646 33.0781
    endloop
  endfacet
  facet normal 0 0.866026 -0.499999
    outer loop
      vertex -15 0.25646 33.0781
      vertex -12 -0.325001 32.0709
      vertex -15 -0.325001 32.0709
    endloop
  endfacet
  facet normal 0 -0.866026 -0.5
    outer loop
      vertex -15 8.04995 31.4215
      vertex -12 7.09354 33.0781
      vertex -15 7.09354 33.0781
    endloop
  endfacet
  facet normal 0 -0.866026 -0.5
    outer loop
      vertex -12 7.09354 33.0781
      vertex -15 8.04995 31.4215
      vertex -12 8.04995 31.4215
    endloop
  endfacet
  facet normal 0 -0.743145 0.669131
    outer loop
      vertex -15 6.37887 26.2784
      vertex -12 7.6588 27.6999
      vertex -15 7.6588 27.6999
    endloop
  endfacet
  facet normal 0 -0.743145 0.669131
    outer loop
      vertex -12 7.6588 27.6999
      vertex -15 6.37887 26.2784
      vertex -12 6.37887 26.2784
    endloop
  endfacet
  facet normal 0 -0.406736 0.913546
    outer loop
      vertex -15 6.37887 26.2784
      vertex -12 4.63141 25.5004
      vertex -12 6.37887 26.2784
    endloop
  endfacet
  facet normal 0 -0.406736 0.913546
    outer loop
      vertex -12 4.63141 25.5004
      vertex -15 6.37887 26.2784
      vertex -15 4.63141 25.5004
    endloop
  endfacet
  facet normal 1 -0 0
    outer loop
      vertex -15 6.1631 30
      vertex -15 8.2499 29.5192
      vertex -15 8.04995 31.4215
    endloop
  endfacet
  facet normal 1 -0 0
    outer loop
      vertex -15 5.43435 31.7594
      vertex -15 8.04995 31.4215
      vertex -15 7.09354 33.0781
    endloop
  endfacet
  facet normal 1 0 0
    outer loop
      vertex -15 8.2499 29.5192
      vertex -15 6.1631 30
      vertex -15 7.6588 27.6999
    endloop
  endfacet
  facet normal 1 -0 0
    outer loop
      vertex -15 5.43435 28.2406
      vertex -15 7.6588 27.6999
      vertex -15 6.1631 30
    endloop
  endfacet
  facet normal 1 0 0
    outer loop
      vertex -15 5.43435 31.7594
      vertex -15 7.09354 33.0781
      vertex -15 5.54603 34.2024
    endloop
  endfacet
  facet normal 1 0 0
    outer loop
      vertex -15 8.04995 31.4215
      vertex -15 5.43435 31.7594
      vertex -15 6.1631 30
    endloop
  endfacet
  facet normal 1 0 0
    outer loop
      vertex -15 3.675 32.4881
      vertex -15 5.54603 34.2024
      vertex -15 3.675 34.6001
    endloop
  endfacet
  facet normal 1 0 0
    outer loop
      vertex -15 5.54603 34.2024
      vertex -15 3.675 32.4881
      vertex -15 5.43435 31.7594
    endloop
  endfacet
  facet normal 1 -0 0
    outer loop
      vertex -15 1.80397 34.2024
      vertex -15 3.675 32.4881
      vertex -15 3.675 34.6001
    endloop
  endfacet
  facet normal 1 0 0
    outer loop
      vertex -15 3.675 32.4881
      vertex -15 1.80397 34.2024
      vertex -15 1.91565 31.7594
    endloop
  endfacet
  facet normal 1 -0 0
    outer loop
      vertex -15 0.25646 33.0781
      vertex -15 1.91565 31.7594
      vertex -15 1.80397 34.2024
    endloop
  endfacet
  facet normal 1 -0 0
    outer loop
      vertex -15 -0.325001 32.0709
      vertex -15 1.91565 31.7594
      vertex -15 0.25646 33.0781
    endloop
  endfacet
  facet normal 1 0 0
    outer loop
      vertex -15 1.91565 31.7594
      vertex -15 -0.325001 32.0709
      vertex -15 1.1869 30
    endloop
  endfacet
  facet normal 1 0 0
    outer loop
      vertex -15 -0.325001 27.7498
      vertex -15 1.1869 30
      vertex -15 -0.325001 32.0709
    endloop
  endfacet
  facet normal 1 0 -0
    outer loop
      vertex -15 -0.308803 27.6999
      vertex -15 1.1869 30
      vertex -15 -0.325001 27.7498
    endloop
  endfacet
  facet normal 1 0 0
    outer loop
      vertex -15 1.1869 30
      vertex -15 -0.308803 27.6999
      vertex -15 0.971129 26.2784
    endloop
  endfacet
  facet normal 1 0 0
    outer loop
      vertex -15 7.6588 27.6999
      vertex -15 5.43435 28.2406
      vertex -15 6.37887 26.2784
    endloop
  endfacet
  facet normal 1 0 0
    outer loop
      vertex -15 5.43435 28.2406
      vertex -15 4.63141 25.5004
      vertex -15 6.37887 26.2784
    endloop
  endfacet
  facet normal 1 -0 0
    outer loop
      vertex -15 3.675 27.5119
      vertex -15 4.63141 25.5004
      vertex -15 5.43435 28.2406
    endloop
  endfacet
  facet normal 1 0 0
    outer loop
      vertex -15 3.675 27.5119
      vertex -15 2.71859 25.5004
      vertex -15 4.63141 25.5004
    endloop
  endfacet
  facet normal 1 0 0
    outer loop
      vertex -15 1.91565 28.2406
      vertex -15 2.71859 25.5004
      vertex -15 3.675 27.5119
    endloop
  endfacet
  facet normal 1 0 0
    outer loop
      vertex -15 0.971129 26.2784
      vertex -15 1.91565 28.2406
      vertex -15 1.1869 30
    endloop
  endfacet
  facet normal 1 0 0
    outer loop
      vertex -15 1.91565 28.2406
      vertex -15 0.971129 26.2784
      vertex -15 2.71859 25.5004
    endloop
  endfacet
  facet normal 0 -0.951057 0.309017
    outer loop
      vertex -15 7.6588 27.6999
      vertex -12 8.2499 29.5192
      vertex -15 8.2499 29.5192
    endloop
  endfacet
  facet normal 0 -0.951057 0.309017
    outer loop
      vertex -12 8.2499 29.5192
      vertex -15 7.6588 27.6999
      vertex -12 7.6588 27.6999
    endloop
  endfacet
  facet normal 0 0.207911 -0.978148
    outer loop
      vertex -15 1.80397 34.2024
      vertex -12 3.675 34.6001
      vertex -12 1.80397 34.2024
    endloop
  endfacet
  facet normal 0 0.207911 -0.978148
    outer loop
      vertex -12 3.675 34.6001
      vertex -15 1.80397 34.2024
      vertex -15 3.675 34.6001
    endloop
  endfacet
  facet normal 0 0.587785 -0.809017
    outer loop
      vertex -15 0.25646 33.0781
      vertex -12 1.80397 34.2024
      vertex -12 0.25646 33.0781
    endloop
  endfacet
  facet normal 0 0.587785 -0.809017
    outer loop
      vertex -12 1.80397 34.2024
      vertex -15 0.25646 33.0781
      vertex -15 1.80397 34.2024
    endloop
  endfacet
  facet normal 0 0.951057 0.309016
    outer loop
      vertex -12 -0.308803 27.6999
      vertex -15 -0.325001 27.7498
      vertex -12 -0.325001 27.7498
    endloop
  endfacet
  facet normal 0 0.951057 0.309016
    outer loop
      vertex -15 -0.325001 27.7498
      vertex -12 -0.308803 27.6999
      vertex -15 -0.308803 27.6999
    endloop
  endfacet
  facet normal 0 0.743145 0.669131
    outer loop
      vertex -12 0.971129 26.2784
      vertex -15 -0.308803 27.6999
      vertex -12 -0.308803 27.6999
    endloop
  endfacet
  facet normal 0 0.743145 0.669131
    outer loop
      vertex -15 -0.308803 27.6999
      vertex -12 0.971129 26.2784
      vertex -15 0.971129 26.2784
    endloop
  endfacet
  facet normal -0 0.406736 0.913546
    outer loop
      vertex -15 2.71859 25.5004
      vertex -12 0.971129 26.2784
      vertex -12 2.71859 25.5004
    endloop
  endfacet
  facet normal 0 0.406736 0.913546
    outer loop
      vertex -12 0.971129 26.2784
      vertex -15 2.71859 25.5004
      vertex -15 0.971129 26.2784
    endloop
  endfacet
  facet normal 0 -0.382683 -0.92388
    outer loop
      vertex -20 3.675 32.4881
      vertex -15 5.43435 31.7594
      vertex -15 3.675 32.4881
    endloop
  endfacet
  facet normal -0 -0.382683 -0.92388
    outer loop
      vertex -15 5.43435 31.7594
      vertex -20 3.675 32.4881
      vertex -20 5.43435 31.7594
    endloop
  endfacet
  facet normal 0 -0.382684 0.923879
    outer loop
      vertex -20 5.43435 28.2406
      vertex -15 3.675 27.5119
      vertex -15 5.43435 28.2406
    endloop
  endfacet
  facet normal 0 -0.382684 0.923879
    outer loop
      vertex -15 3.675 27.5119
      vertex -20 5.43435 28.2406
      vertex -20 3.675 27.5119
    endloop
  endfacet
  facet normal 0 -0.92388 -0.382683
    outer loop
      vertex -20 6.1631 30
      vertex -15 5.43435 31.7594
      vertex -20 5.43435 31.7594
    endloop
  endfacet
  facet normal 0 -0.92388 -0.382683
    outer loop
      vertex -15 5.43435 31.7594
      vertex -20 6.1631 30
      vertex -15 6.1631 30
    endloop
  endfacet
  facet normal 0 -0.92388 0.382683
    outer loop
      vertex -20 5.43435 28.2406
      vertex -15 6.1631 30
      vertex -20 6.1631 30
    endloop
  endfacet
  facet normal 0 -0.92388 0.382683
    outer loop
      vertex -15 6.1631 30
      vertex -20 5.43435 28.2406
      vertex -15 5.43435 28.2406
    endloop
  endfacet
  facet normal 0 0.92388 -0.382683
    outer loop
      vertex -15 1.1869 30
      vertex -20 1.91565 31.7594
      vertex -15 1.91565 31.7594
    endloop
  endfacet
  facet normal 0 0.92388 -0.382683
    outer loop
      vertex -20 1.91565 31.7594
      vertex -15 1.1869 30
      vertex -20 1.1869 30
    endloop
  endfacet
  facet normal -0 0.382684 0.923879
    outer loop
      vertex -20 3.675 27.5119
      vertex -15 1.91565 28.2406
      vertex -15 3.675 27.5119
    endloop
  endfacet
  facet normal 0 0.382684 0.923879
    outer loop
      vertex -15 1.91565 28.2406
      vertex -20 3.675 27.5119
      vertex -20 1.91565 28.2406
    endloop
  endfacet
  facet normal 0 0.92388 0.382683
    outer loop
      vertex -15 1.91565 28.2406
      vertex -20 1.1869 30
      vertex -15 1.1869 30
    endloop
  endfacet
  facet normal 0 0.92388 0.382683
    outer loop
      vertex -20 1.1869 30
      vertex -15 1.91565 28.2406
      vertex -20 1.91565 28.2406
    endloop
  endfacet
  facet normal 0 0.382683 -0.92388
    outer loop
      vertex -20 1.91565 31.7594
      vertex -15 3.675 32.4881
      vertex -15 1.91565 31.7594
    endloop
  endfacet
  facet normal 0 0.382683 -0.92388
    outer loop
      vertex -15 3.675 32.4881
      vertex -20 1.91565 31.7594
      vertex -20 3.675 32.4881
    endloop
  endfacet
  facet normal -0 0 1
    outer loop
      vertex -12 -59.675 20
      vertex 35 -71.175 20
      vertex 38 -59.675 20
    endloop
  endfacet
  facet normal 0 0 1
    outer loop
      vertex 35 -71.175 20
      vertex -12 -59.675 20
      vertex -12 -71.175 20
    endloop
  endfacet
  facet normal 0 0 1
    outer loop
      vertex 50 24.215 20
      vertex 38 -0.325001 20
      vertex 50 -84.215 20
    endloop
  endfacet
  facet normal 0 0 1
    outer loop
      vertex 35 11.175 20
      vertex 50 24.215 20
      vertex 35 24.215 20
    endloop
  endfacet
  facet normal 0 0 1
    outer loop
      vertex 50 24.215 20
      vertex 35 11.175 20
      vertex 38 -0.325001 20
    endloop
  endfacet
  facet normal 0 0 1
    outer loop
      vertex -12 -0.325001 20
      vertex 35 11.175 20
      vertex -12 11.175 20
    endloop
  endfacet
  facet normal 0 0 1
    outer loop
      vertex 35 11.175 20
      vertex -12 -0.325001 20
      vertex 38 -0.325001 20
    endloop
  endfacet
  facet normal -0 0 1
    outer loop
      vertex 38 -59.675 20
      vertex 50 -84.215 20
      vertex 38 -0.325001 20
    endloop
  endfacet
  facet normal -0 0 1
    outer loop
      vertex 35 -71.175 20
      vertex 50 -84.215 20
      vertex 38 -59.675 20
    endloop
  endfacet
  facet normal 0 0 1
    outer loop
      vertex 50 -84.215 20
      vertex 35 -71.175 20
      vertex 35 -84.215 20
    endloop
  endfacet
  facet normal 1 0 0
    outer loop
      vertex 50 -84.215 20
      vertex 50 -88.8041 13.8294
      vertex 50 -88.5475 12.0446
    endloop
  endfacet
  facet normal 1 -0 0
    outer loop
      vertex 50 -90.8134 49.4295
      vertex 50 -84.215 20
      vertex 50 -89.2965 50.4044
    endloop
  endfacet
  facet normal 1 0 0
    outer loop
      vertex 50 -84.215 20
      vertex 50 -89.9849 15.1921
      vertex 50 -88.8041 13.8294
    endloop
  endfacet
  facet normal 1 -0 0
    outer loop
      vertex 50 -92.6166 49.4295
      vertex 50 -84.215 20
      vertex 50 -90.8134 49.4295
    endloop
  endfacet
  facet normal 1 0 0
    outer loop
      vertex 50 -84.215 20
      vertex 50 -91.715 15.7001
      vertex 50 -89.9849 15.1921
    endloop
  endfacet
  facet normal 1 0 0
    outer loop
      vertex 50 -84.215 20
      vertex 50 -92.6166 49.4295
      vertex 50 -91.715 15.7001
    endloop
  endfacet
  facet normal 1 0 0
    outer loop
      vertex 50 -92.6166 49.4295
      vertex 50 -93.4451 15.1921
      vertex 50 -91.715 15.7001
    endloop
  endfacet
  facet normal 1 0 0
    outer loop
      vertex 50 -94.1335 50.4044
      vertex 50 -93.4451 15.1921
      vertex 50 -92.6166 49.4295
    endloop
  endfacet
  facet normal 1 0 0
    outer loop
      vertex 50 -94.1335 50.4044
      vertex 50 -94.6259 13.8294
      vertex 50 -93.4451 15.1921
    endloop
  endfacet
  facet normal 1 0 0
    outer loop
      vertex 50 -94.8825 52.0446
      vertex 50 -94.6259 13.8294
      vertex 50 -94.1335 50.4044
    endloop
  endfacet
  facet normal 1 0 0
    outer loop
      vertex 50 -99.215 5
      vertex 50 -94.6259 13.8294
      vertex 50 -94.8825 52.0446
    endloop
  endfacet
  facet normal 1 0 0
    outer loop
      vertex 50 -84.215 70
      vertex 50 -88.5475 52.0446
      vertex 50 -84.215 20
    endloop
  endfacet
  facet normal 1 0 0
    outer loop
      vertex 50 -84.215 70
      vertex 50 -88.8041 53.8294
      vertex 50 -88.5475 52.0446
    endloop
  endfacet
  facet normal 1 0 0
    outer loop
      vertex 50 -84.215 70
      vertex 50 -89.9849 55.1921
      vertex 50 -88.8041 53.8294
    endloop
  endfacet
  facet normal 1 0 0
    outer loop
      vertex 50 -84.215 70
      vertex 50 -91.715 55.7001
      vertex 50 -89.9849 55.1921
    endloop
  endfacet
  facet normal 1 -0 0
    outer loop
      vertex 50 -99.215 70
      vertex 50 -91.715 55.7001
      vertex 50 -84.215 70
    endloop
  endfacet
  facet normal 1 0 0
    outer loop
      vertex 50 -91.715 55.7001
      vertex 50 -99.215 70
      vertex 50 -93.4451 55.1921
    endloop
  endfacet
  facet normal 1 0 0
    outer loop
      vertex 50 -99.215 5
      vertex 50 -94.8825 52.0446
      vertex 50 -99.215 70
    endloop
  endfacet
  facet normal 1 0 0
    outer loop
      vertex 50 -94.6259 53.8294
      vertex 50 -99.215 70
      vertex 50 -94.8825 52.0446
    endloop
  endfacet
  facet normal 1 0 0
    outer loop
      vertex 50 -93.4451 55.1921
      vertex 50 -99.215 70
      vertex 50 -94.6259 53.8294
    endloop
  endfacet
  facet normal 1 0 0
    outer loop
      vertex 50 39.215 5
      vertex 50 34.6259 13.8294
      vertex 50 34.8825 12.0446
    endloop
  endfacet
  facet normal 1 -0 0
    outer loop
      vertex 50 34.1335 50.4044
      vertex 50 34.6259 13.8294
      vertex 50 34.8825 52.0446
    endloop
  endfacet
  facet normal 1 0 0
    outer loop
      vertex 50 34.1335 50.4044
      vertex 50 33.4451 15.1921
      vertex 50 34.6259 13.8294
    endloop
  endfacet
  facet normal 1 -0 0
    outer loop
      vertex 50 32.6166 49.4295
      vertex 50 33.4451 15.1921
      vertex 50 34.1335 50.4044
    endloop
  endfacet
  facet normal 1 0 0
    outer loop
      vertex 50 32.6166 49.4295
      vertex 50 31.715 15.7001
      vertex 50 33.4451 15.1921
    endloop
  endfacet
  facet normal 1 0 0
    outer loop
      vertex 50 24.215 20
      vertex 50 32.6166 49.4295
      vertex 50 30.8134 49.4295
    endloop
  endfacet
  facet normal 1 0 0
    outer loop
      vertex 50 32.6166 49.4295
      vertex 50 24.215 20
      vertex 50 31.715 15.7001
    endloop
  endfacet
  facet normal 1 0 0
    outer loop
      vertex 50 24.215 20
      vertex 50 30.8134 49.4295
      vertex 50 29.2965 50.4044
    endloop
  endfacet
  facet normal 1 0 0
    outer loop
      vertex 50 31.715 15.7001
      vertex 50 24.215 20
      vertex 50 29.9849 15.1921
    endloop
  endfacet
  facet normal 1 0 0
    outer loop
      vertex 50 24.215 20
      vertex 50 29.2965 50.4044
      vertex 50 28.5475 52.0446
    endloop
  endfacet
  facet normal 1 0 0
    outer loop
      vertex 50 29.9849 15.1921
      vertex 50 24.215 20
      vertex 50 28.8041 13.8294
    endloop
  endfacet
  facet normal 1 0 0
    outer loop
      vertex 50 39.215 70
      vertex 50 34.8825 52.0446
      vertex 50 39.215 5
    endloop
  endfacet
  facet normal 1 0 0
    outer loop
      vertex 50 39.215 70
      vertex 50 34.6259 53.8294
      vertex 50 34.8825 52.0446
    endloop
  endfacet
  facet normal 1 0 0
    outer loop
      vertex 50 39.215 70
      vertex 50 33.4451 55.1921
      vertex 50 34.6259 53.8294
    endloop
  endfacet
  facet normal 1 0 0
    outer loop
      vertex 50 39.215 70
      vertex 50 31.715 55.7001
      vertex 50 33.4451 55.1921
    endloop
  endfacet
  facet normal 1 -0 0
    outer loop
      vertex 50 24.215 70
      vertex 50 31.715 55.7001
      vertex 50 39.215 70
    endloop
  endfacet
  facet normal 1 0 0
    outer loop
      vertex 50 31.715 55.7001
      vertex 50 24.215 70
      vertex 50 29.9849 55.1921
    endloop
  endfacet
  facet normal 1 0 0
    outer loop
      vertex 50 24.215 20
      vertex 50 28.5475 52.0446
      vertex 50 24.215 70
    endloop
  endfacet
  facet normal 1 0 0
    outer loop
      vertex 50 28.8041 53.8294
      vertex 50 24.215 70
      vertex 50 28.5475 52.0446
    endloop
  endfacet
  facet normal 1 0 0
    outer loop
      vertex 50 29.9849 55.1921
      vertex 50 24.215 70
      vertex 50 28.8041 53.8294
    endloop
  endfacet
  facet normal 1 -0 0
    outer loop
      vertex 50 34.6259 13.8294
      vertex 50 39.215 5
      vertex 50 34.8825 52.0446
    endloop
  endfacet
  facet normal 1 -0 0
    outer loop
      vertex 50 34.1335 10.4044
      vertex 50 39.215 5
      vertex 50 34.8825 12.0446
    endloop
  endfacet
  facet normal 1 -0 0
    outer loop
      vertex 50 32.6166 9.42953
      vertex 50 39.215 5
      vertex 50 34.1335 10.4044
    endloop
  endfacet
  facet normal 1 -0 0
    outer loop
      vertex 50 30.8134 9.42953
      vertex 50 39.215 5
      vertex 50 32.6166 9.42953
    endloop
  endfacet
  facet normal 1 0 0
    outer loop
      vertex 50 28.8041 13.8294
      vertex 50 24.215 20
      vertex 50 28.5475 12.0446
    endloop
  endfacet
  facet normal 1 -0 0
    outer loop
      vertex 50 -84.215 20
      vertex 50 28.5475 12.0446
      vertex 50 24.215 20
    endloop
  endfacet
  facet normal 1 0 0
    outer loop
      vertex 50 -88.5475 12.0446
      vertex 50 28.5475 12.0446
      vertex 50 -84.215 20
    endloop
  endfacet
  facet normal 1 0 0
    outer loop
      vertex 50 28.5475 12.0446
      vertex 50 -88.5475 12.0446
      vertex 50 29.2965 10.4044
    endloop
  endfacet
  facet normal 1 0 0
    outer loop
      vertex 50 -89.2965 10.4044
      vertex 50 29.2965 10.4044
      vertex 50 -88.5475 12.0446
    endloop
  endfacet
  facet normal 1 -0 0
    outer loop
      vertex 50 -89.2965 50.4044
      vertex 50 -84.215 20
      vertex 50 -88.5475 52.0446
    endloop
  endfacet
  facet normal 1 0 0
    outer loop
      vertex 50 29.2965 10.4044
      vertex 50 -89.2965 10.4044
      vertex 50 30.8134 9.42953
    endloop
  endfacet
  facet normal 1 0 0
    outer loop
      vertex 50 -90.8134 9.42953
      vertex 50 30.8134 9.42953
      vertex 50 -89.2965 10.4044
    endloop
  endfacet
  facet normal 1 0 0
    outer loop
      vertex 50 30.8134 9.42953
      vertex 50 -90.8134 9.42953
      vertex 50 39.215 5
    endloop
  endfacet
  facet normal 1 0 0
    outer loop
      vertex 50 -99.215 5
      vertex 50 -90.8134 9.42953
      vertex 50 -92.6166 9.42953
    endloop
  endfacet
  facet normal 1 0 0
    outer loop
      vertex 50 -90.8134 9.42953
      vertex 50 -99.215 5
      vertex 50 39.215 5
    endloop
  endfacet
  facet normal 1 0 0
    outer loop
      vertex 50 -94.1335 10.4044
      vertex 50 -99.215 5
      vertex 50 -92.6166 9.42953
    endloop
  endfacet
  facet normal 1 0 0
    outer loop
      vertex 50 -94.8825 12.0446
      vertex 50 -99.215 5
      vertex 50 -94.1335 10.4044
    endloop
  endfacet
  facet normal 1 0 0
    outer loop
      vertex 50 -94.6259 13.8294
      vertex 50 -99.215 5
      vertex 50 -94.8825 12.0446
    endloop
  endfacet
  facet normal 0 0 -1
    outer loop
      vertex -20 -0.325001 5
      vertex 35 11.175 5
      vertex 38 -0.325001 5
    endloop
  endfacet
  facet normal -0 0 -1
    outer loop
      vertex 35 11.175 5
      vertex -20 -0.325001 5
      vertex -20 11.175 5
    endloop
  endfacet
  facet normal 0 0 -1
    outer loop
      vertex 50 -99.215 5
      vertex 38 -59.675 5
      vertex 50 39.215 5
    endloop
  endfacet
  facet normal 0 0 -1
    outer loop
      vertex 35 -71.175 5
      vertex 50 -99.215 5
      vertex 35 -99.215 5
    endloop
  endfacet
  facet normal 0 0 -1
    outer loop
      vertex 50 -99.215 5
      vertex 35 -71.175 5
      vertex 38 -59.675 5
    endloop
  endfacet
  facet normal 0 0 -1
    outer loop
      vertex -20 -59.675 5
      vertex 35 -71.175 5
      vertex -20 -71.175 5
    endloop
  endfacet
  facet normal 0 0 -1
    outer loop
      vertex 35 -71.175 5
      vertex -20 -59.675 5
      vertex 38 -59.675 5
    endloop
  endfacet
  facet normal 0 0 -1
    outer loop
      vertex 38 -0.325001 5
      vertex 50 39.215 5
      vertex 38 -59.675 5
    endloop
  endfacet
  facet normal 0 0 -1
    outer loop
      vertex 35 11.175 5
      vertex 50 39.215 5
      vertex 38 -0.325001 5
    endloop
  endfacet
  facet normal -0 0 -1
    outer loop
      vertex 50 39.215 5
      vertex 35 11.175 5
      vertex 35 39.215 5
    endloop
  endfacet
  facet normal -1 0 0
    outer loop
      vertex 35 -84.215 20
      vertex 35 -90.8391 51.2945
      vertex 35 -90.2978 52.9605
    endloop
  endfacet
  facet normal -1 0 0
    outer loop
      vertex 35 -92.5909 51.2945
      vertex 35 -84.215 20
      vertex 35 -91.715 15.7001
    endloop
  endfacet
  facet normal -1 0 0
    outer loop
      vertex 35 -84.215 20
      vertex 35 -92.5909 51.2945
      vertex 35 -90.8391 51.2945
    endloop
  endfacet
  facet normal -1 0 0
    outer loop
      vertex 35 -94.4864 14.1001
      vertex 35 -92.5909 51.2945
      vertex 35 -91.715 15.7001
    endloop
  endfacet
  facet normal -1 -0 0
    outer loop
      vertex 35 -92.5909 51.2945
      vertex 35 -94.4864 14.1001
      vertex 35 -93.1322 52.9605
    endloop
  endfacet
  facet normal -1 0 0
    outer loop
      vertex 35 -71.175 5
      vertex 35 -84.215 20
      vertex 35 -71.175 20
    endloop
  endfacet
  facet normal -1 0 0
    outer loop
      vertex 35 -88.9436 14.1001
      vertex 35 -84.215 20
      vertex 35 -88.9436 10.9
    endloop
  endfacet
  facet normal -1 0 0
    outer loop
      vertex 35 -71.175 5
      vertex 35 -88.9436 10.9
      vertex 35 -84.215 20
    endloop
  endfacet
  facet normal -1 0 0
    outer loop
      vertex 35 -71.175 5
      vertex 35 -91.715 9.2999
      vertex 35 -88.9436 10.9
    endloop
  endfacet
  facet normal -1 -0 0
    outer loop
      vertex 35 -94.4864 10.9
      vertex 35 -99.215 5
      vertex 35 -94.4864 14.1001
    endloop
  endfacet
  facet normal -1 -0 0
    outer loop
      vertex 35 -91.715 9.2999
      vertex 35 -99.215 5
      vertex 35 -94.4864 10.9
    endloop
  endfacet
  facet normal -1 0 0
    outer loop
      vertex 35 -99.215 5
      vertex 35 -91.715 9.2999
      vertex 35 -71.175 5
    endloop
  endfacet
  facet normal -1 0 0
    outer loop
      vertex 35 -91.715 15.7001
      vertex 35 -84.215 20
      vertex 35 -88.9436 14.1001
    endloop
  endfacet
  facet normal -1 0 0
    outer loop
      vertex 35 -84.215 20
      vertex 35 -90.2978 52.9605
      vertex 35 -84.215 70
    endloop
  endfacet
  facet normal -1 0 0
    outer loop
      vertex 35 -91.715 53.9901
      vertex 35 -84.215 70
      vertex 35 -90.2978 52.9605
    endloop
  endfacet
  facet normal -1 0 0
    outer loop
      vertex 35 -99.215 70
      vertex 35 -91.715 53.9901
      vertex 35 -93.1322 52.9605
    endloop
  endfacet
  facet normal -1 0 0
    outer loop
      vertex 35 -99.215 5
      vertex 35 -93.1322 52.9605
      vertex 35 -94.4864 14.1001
    endloop
  endfacet
  facet normal -1 0 0
    outer loop
      vertex 35 -91.715 53.9901
      vertex 35 -99.215 70
      vertex 35 -84.215 70
    endloop
  endfacet
  facet normal -1 0 0
    outer loop
      vertex 35 -99.215 70
      vertex 35 -93.1322 52.9605
      vertex 35 -99.215 5
    endloop
  endfacet
  facet normal -1 0 0
    outer loop
      vertex 35 34.4864 14.1001
      vertex 35 32.5909 51.2945
      vertex 35 33.1322 52.9605
    endloop
  endfacet
  facet normal -1 0 0
    outer loop
      vertex 35 31.715 15.7001
      vertex 35 32.5909 51.2945
      vertex 35 34.4864 14.1001
    endloop
  endfacet
  facet normal -1 0 0
    outer loop
      vertex 35 24.215 20
      vertex 35 32.5909 51.2945
      vertex 35 31.715 15.7001
    endloop
  endfacet
  facet normal -1 -0 0
    outer loop
      vertex 35 32.5909 51.2945
      vertex 35 24.215 20
      vertex 35 30.8391 51.2945
    endloop
  endfacet
  facet normal -1 0 0
    outer loop
      vertex 35 24.215 20
      vertex 35 31.715 15.7001
      vertex 35 28.9436 14.1001
    endloop
  endfacet
  facet normal -1 0 0
    outer loop
      vertex 35 34.4864 14.1001
      vertex 35 39.215 5
      vertex 35 34.4864 10.9
    endloop
  endfacet
  facet normal -1 0 0
    outer loop
      vertex 35 39.215 5
      vertex 35 31.715 9.2999
      vertex 35 34.4864 10.9
    endloop
  endfacet
  facet normal -1 0 0
    outer loop
      vertex 35 28.9436 10.9
      vertex 35 24.215 20
      vertex 35 28.9436 14.1001
    endloop
  endfacet
  facet normal -1 0 0
    outer loop
      vertex 35 11.175 5
      vertex 35 31.715 9.2999
      vertex 35 39.215 5
    endloop
  endfacet
  facet normal -1 0 0
    outer loop
      vertex 35 11.175 5
      vertex 35 28.9436 10.9
      vertex 35 31.715 9.2999
    endloop
  endfacet
  facet normal -1 0 0
    outer loop
      vertex 35 11.175 5
      vertex 35 24.215 20
      vertex 35 28.9436 10.9
    endloop
  endfacet
  facet normal -1 -0 0
    outer loop
      vertex 35 24.215 20
      vertex 35 11.175 5
      vertex 35 11.175 20
    endloop
  endfacet
  facet normal -1 0 0
    outer loop
      vertex 35 33.1322 52.9605
      vertex 35 39.215 5
      vertex 35 34.4864 14.1001
    endloop
  endfacet
  facet normal -1 0 0
    outer loop
      vertex 35 39.215 5
      vertex 35 33.1322 52.9605
      vertex 35 39.215 70
    endloop
  endfacet
  facet normal -1 0 0
    outer loop
      vertex 35 31.715 53.9901
      vertex 35 39.215 70
      vertex 35 33.1322 52.9605
    endloop
  endfacet
  facet normal -1 0 0
    outer loop
      vertex 35 24.215 70
      vertex 35 31.715 53.9901
      vertex 35 30.2978 52.9605
    endloop
  endfacet
  facet normal -1 -0 0
    outer loop
      vertex 35 30.8391 51.2945
      vertex 35 24.215 20
      vertex 35 30.2978 52.9605
    endloop
  endfacet
  facet normal -1 0 0
    outer loop
      vertex 35 31.715 53.9901
      vertex 35 24.215 70
      vertex 35 39.215 70
    endloop
  endfacet
  facet normal -1 0 0
    outer loop
      vertex 35 24.215 70
      vertex 35 30.2978 52.9605
      vertex 35 24.215 20
    endloop
  endfacet
  facet normal 0 -1 0
    outer loop
      vertex 35 -99.215 5
      vertex 50 -99.215 70
      vertex 35 -99.215 70
    endloop
  endfacet
  facet normal 0 -1 -0
    outer loop
      vertex 50 -99.215 70
      vertex 35 -99.215 5
      vertex 50 -99.215 5
    endloop
  endfacet
  facet normal 0 1 -0
    outer loop
      vertex 50 39.215 5
      vertex 35 39.215 70
      vertex 50 39.215 70
    endloop
  endfacet
  facet normal 0 1 0
    outer loop
      vertex 35 39.215 70
      vertex 50 39.215 5
      vertex 35 39.215 5
    endloop
  endfacet
  facet normal -0 0 1
    outer loop
      vertex 35 39.215 70
      vertex 50 24.215 70
      vertex 50 39.215 70
    endloop
  endfacet
  facet normal 0 0 1
    outer loop
      vertex 50 24.215 70
      vertex 35 39.215 70
      vertex 35 24.215 70
    endloop
  endfacet
  facet normal 0 -1 0
    outer loop
      vertex 35 24.215 20
      vertex 50 24.215 70
      vertex 35 24.215 70
    endloop
  endfacet
  facet normal 0 -1 -0
    outer loop
      vertex 50 24.215 70
      vertex 35 24.215 20
      vertex 50 24.215 20
    endloop
  endfacet
  facet normal -0 0 1
    outer loop
      vertex 35 -84.215 70
      vertex 50 -99.215 70
      vertex 50 -84.215 70
    endloop
  endfacet
  facet normal 0 0 1
    outer loop
      vertex 50 -99.215 70
      vertex 35 -84.215 70
      vertex 35 -99.215 70
    endloop
  endfacet
  facet normal 0 1 -0
    outer loop
      vertex 50 -84.215 20
      vertex 35 -84.215 70
      vertex 50 -84.215 70
    endloop
  endfacet
  facet normal 0 1 0
    outer loop
      vertex 35 -84.215 70
      vertex 50 -84.215 20
      vertex 35 -84.215 20
    endloop
  endfacet
  facet normal 0 -0.281733 -0.959493
    outer loop
      vertex 48 -91.715 15.7001
      vertex 50 -89.9849 15.1921
      vertex 50 -91.715 15.7001
    endloop
  endfacet
  facet normal -0 -0.281733 -0.959493
    outer loop
      vertex 50 -89.9849 15.1921
      vertex 48 -91.715 15.7001
      vertex 48 -89.9849 15.1921
    endloop
  endfacet
  facet normal -0 0 1
    outer loop
      vertex 48 -90.8134 9.42953
      vertex 50 -92.6166 9.42953
      vertex 50 -90.8134 9.42953
    endloop
  endfacet
  facet normal 0 0 1
    outer loop
      vertex 50 -92.6166 9.42953
      vertex 48 -90.8134 9.42953
      vertex 48 -92.6166 9.42953
    endloop
  endfacet
  facet normal 0 -0.909632 0.415415
    outer loop
      vertex 48 -89.2965 10.4044
      vertex 50 -88.5475 12.0446
      vertex 48 -88.5475 12.0446
    endloop
  endfacet
  facet normal 0 -0.909632 0.415415
    outer loop
      vertex 50 -88.5475 12.0446
      vertex 48 -89.2965 10.4044
      vertex 50 -89.2965 10.4044
    endloop
  endfacet
  facet normal 1 0 0
    outer loop
      vertex 48 -91.715 13.9901
      vertex 48 -89.9849 15.1921
      vertex 48 -91.715 15.7001
    endloop
  endfacet
  facet normal 1 0 0
    outer loop
      vertex 48 -89.9849 15.1921
      vertex 48 -91.715 13.9901
      vertex 48 -90.2978 12.9605
    endloop
  endfacet
  facet normal 1 -0 0
    outer loop
      vertex 48 -93.4451 15.1921
      vertex 48 -91.715 13.9901
      vertex 48 -91.715 15.7001
    endloop
  endfacet
  facet normal 1 0 0
    outer loop
      vertex 48 -91.715 13.9901
      vertex 48 -93.4451 15.1921
      vertex 48 -93.1322 12.9605
    endloop
  endfacet
  facet normal 1 -0 0
    outer loop
      vertex 48 -90.2978 12.9605
      vertex 48 -88.5475 12.0446
      vertex 48 -88.8041 13.8294
    endloop
  endfacet
  facet normal 1 0 0
    outer loop
      vertex 48 -90.2978 12.9605
      vertex 48 -88.8041 13.8294
      vertex 48 -89.9849 15.1921
    endloop
  endfacet
  facet normal 1 0 0
    outer loop
      vertex 48 -90.8391 11.2945
      vertex 48 -88.5475 12.0446
      vertex 48 -90.2978 12.9605
    endloop
  endfacet
  facet normal 1 0 0
    outer loop
      vertex 48 -88.5475 12.0446
      vertex 48 -90.8391 11.2945
      vertex 48 -89.2965 10.4044
    endloop
  endfacet
  facet normal 1 0 0
    outer loop
      vertex 48 -89.2965 10.4044
      vertex 48 -90.8391 11.2945
      vertex 48 -90.8134 9.42953
    endloop
  endfacet
  facet normal 1 -0 0
    outer loop
      vertex 48 -92.5909 11.2945
      vertex 48 -90.8134 9.42953
      vertex 48 -90.8391 11.2945
    endloop
  endfacet
  facet normal 1 0 0
    outer loop
      vertex 48 -92.5909 11.2945
      vertex 48 -92.6166 9.42953
      vertex 48 -90.8134 9.42953
    endloop
  endfacet
  facet normal 1 -0 0
    outer loop
      vertex 48 -94.8825 12.0446
      vertex 48 -92.5909 11.2945
      vertex 48 -93.1322 12.9605
    endloop
  endfacet
  facet normal 1 0 0
    outer loop
      vertex 48 -92.5909 11.2945
      vertex 48 -94.1335 10.4044
      vertex 48 -92.6166 9.42953
    endloop
  endfacet
  facet normal 1 -0 0
    outer loop
      vertex 48 -94.6259 13.8294
      vertex 48 -93.1322 12.9605
      vertex 48 -93.4451 15.1921
    endloop
  endfacet
  facet normal 1 0 0
    outer loop
      vertex 48 -94.8825 12.0446
      vertex 48 -93.1322 12.9605
      vertex 48 -94.6259 13.8294
    endloop
  endfacet
  facet normal 1 0 0
    outer loop
      vertex 48 -92.5909 11.2945
      vertex 48 -94.8825 12.0446
      vertex 48 -94.1335 10.4044
    endloop
  endfacet
  facet normal 0 -0.54064 0.841254
    outer loop
      vertex 48 -89.2965 10.4044
      vertex 50 -90.8134 9.42953
      vertex 50 -89.2965 10.4044
    endloop
  endfacet
  facet normal 0 -0.54064 0.841254
    outer loop
      vertex 50 -90.8134 9.42953
      vertex 48 -89.2965 10.4044
      vertex 48 -90.8134 9.42953
    endloop
  endfacet
  facet normal 0 0.989821 -0.142315
    outer loop
      vertex 50 -94.8825 12.0446
      vertex 48 -94.6259 13.8294
      vertex 50 -94.6259 13.8294
    endloop
  endfacet
  facet normal 0 0.989821 -0.142315
    outer loop
      vertex 48 -94.6259 13.8294
      vertex 50 -94.8825 12.0446
      vertex 48 -94.8825 12.0446
    endloop
  endfacet
  facet normal 0 0.755749 -0.654861
    outer loop
      vertex 50 -94.6259 13.8294
      vertex 48 -93.4451 15.1921
      vertex 50 -93.4451 15.1921
    endloop
  endfacet
  facet normal 0 0.755749 -0.654861
    outer loop
      vertex 48 -93.4451 15.1921
      vertex 50 -94.6259 13.8294
      vertex 48 -94.6259 13.8294
    endloop
  endfacet
  facet normal 0 -0.989821 -0.142315
    outer loop
      vertex 48 -88.5475 12.0446
      vertex 50 -88.8041 13.8294
      vertex 48 -88.8041 13.8294
    endloop
  endfacet
  facet normal 0 -0.989821 -0.142315
    outer loop
      vertex 50 -88.8041 13.8294
      vertex 48 -88.5475 12.0446
      vertex 50 -88.5475 12.0446
    endloop
  endfacet
  facet normal 0 -0.755749 -0.654861
    outer loop
      vertex 48 -88.8041 13.8294
      vertex 50 -89.9849 15.1921
      vertex 48 -89.9849 15.1921
    endloop
  endfacet
  facet normal 0 -0.755749 -0.654861
    outer loop
      vertex 50 -89.9849 15.1921
      vertex 48 -88.8041 13.8294
      vertex 50 -88.8041 13.8294
    endloop
  endfacet
  facet normal 0 0.281732 -0.959493
    outer loop
      vertex 48 -93.4451 15.1921
      vertex 50 -91.715 15.7001
      vertex 50 -93.4451 15.1921
    endloop
  endfacet
  facet normal 0 0.281732 -0.959493
    outer loop
      vertex 50 -91.715 15.7001
      vertex 48 -93.4451 15.1921
      vertex 48 -91.715 15.7001
    endloop
  endfacet
  facet normal 0 0.909632 0.415415
    outer loop
      vertex 50 -94.1335 10.4044
      vertex 48 -94.8825 12.0446
      vertex 50 -94.8825 12.0446
    endloop
  endfacet
  facet normal 0 0.909632 0.415415
    outer loop
      vertex 48 -94.8825 12.0446
      vertex 50 -94.1335 10.4044
      vertex 48 -94.1335 10.4044
    endloop
  endfacet
  facet normal -0 0.54064 0.841254
    outer loop
      vertex 48 -92.6166 9.42953
      vertex 50 -94.1335 10.4044
      vertex 50 -92.6166 9.42953
    endloop
  endfacet
  facet normal 0 0.54064 0.841254
    outer loop
      vertex 50 -94.1335 10.4044
      vertex 48 -92.6166 9.42953
      vertex 48 -94.1335 10.4044
    endloop
  endfacet
  facet normal 0 -0.587786 -0.809016
    outer loop
      vertex 37.4001 -91.715 13.9901
      vertex 48 -90.2978 12.9605
      vertex 48 -91.715 13.9901
    endloop
  endfacet
  facet normal -0 -0.587786 -0.809016
    outer loop
      vertex 48 -90.2978 12.9605
      vertex 37.4001 -91.715 13.9901
      vertex 37.4001 -90.2978 12.9605
    endloop
  endfacet
  facet normal -0 0 1
    outer loop
      vertex 37.4001 -90.8391 11.2945
      vertex 48 -92.5909 11.2945
      vertex 48 -90.8391 11.2945
    endloop
  endfacet
  facet normal 0 0 1
    outer loop
      vertex 48 -92.5909 11.2945
      vertex 37.4001 -90.8391 11.2945
      vertex 37.4001 -92.5909 11.2945
    endloop
  endfacet
  facet normal 0 -0.951056 0.309019
    outer loop
      vertex 37.4001 -90.8391 11.2945
      vertex 48 -90.2978 12.9605
      vertex 37.4001 -90.2978 12.9605
    endloop
  endfacet
  facet normal 0 -0.951056 0.309019
    outer loop
      vertex 48 -90.2978 12.9605
      vertex 37.4001 -90.8391 11.2945
      vertex 48 -90.8391 11.2945
    endloop
  endfacet
  facet normal 0 0.951056 0.309019
    outer loop
      vertex 48 -92.5909 11.2945
      vertex 37.4001 -93.1322 12.9605
      vertex 48 -93.1322 12.9605
    endloop
  endfacet
  facet normal 0 0.951056 0.309019
    outer loop
      vertex 37.4001 -93.1322 12.9605
      vertex 48 -92.5909 11.2945
      vertex 37.4001 -92.5909 11.2945
    endloop
  endfacet
  facet normal 0 0.587784 -0.809018
    outer loop
      vertex 37.4001 -93.1322 12.9605
      vertex 48 -91.715 13.9901
      vertex 48 -93.1322 12.9605
    endloop
  endfacet
  facet normal 0 0.587784 -0.809018
    outer loop
      vertex 48 -91.715 13.9901
      vertex 37.4001 -93.1322 12.9605
      vertex 37.4001 -91.715 13.9901
    endloop
  endfacet
  facet normal 0 -0.281733 -0.959493
    outer loop
      vertex 48 31.715 15.7001
      vertex 50 33.4451 15.1921
      vertex 50 31.715 15.7001
    endloop
  endfacet
  facet normal -0 -0.281733 -0.959493
    outer loop
      vertex 50 33.4451 15.1921
      vertex 48 31.715 15.7001
      vertex 48 33.4451 15.1921
    endloop
  endfacet
  facet normal -0 0 1
    outer loop
      vertex 48 32.6166 9.42953
      vertex 50 30.8134 9.42953
      vertex 50 32.6166 9.42953
    endloop
  endfacet
  facet normal 0 0 1
    outer loop
      vertex 50 30.8134 9.42953
      vertex 48 32.6166 9.42953
      vertex 48 30.8134 9.42953
    endloop
  endfacet
  facet normal 0 -0.909632 0.415415
    outer loop
      vertex 48 34.1335 10.4044
      vertex 50 34.8825 12.0446
      vertex 48 34.8825 12.0446
    endloop
  endfacet
  facet normal 0 -0.909632 0.415415
    outer loop
      vertex 50 34.8825 12.0446
      vertex 48 34.1335 10.4044
      vertex 50 34.1335 10.4044
    endloop
  endfacet
  facet normal 1 0 0
    outer loop
      vertex 48 31.715 13.9901
      vertex 48 33.4451 15.1921
      vertex 48 31.715 15.7001
    endloop
  endfacet
  facet normal 1 0 0
    outer loop
      vertex 48 33.4451 15.1921
      vertex 48 31.715 13.9901
      vertex 48 33.1322 12.9605
    endloop
  endfacet
  facet normal 1 -0 0
    outer loop
      vertex 48 29.9849 15.1921
      vertex 48 31.715 13.9901
      vertex 48 31.715 15.7001
    endloop
  endfacet
  facet normal 1 0 0
    outer loop
      vertex 48 31.715 13.9901
      vertex 48 29.9849 15.1921
      vertex 48 30.2978 12.9605
    endloop
  endfacet
  facet normal 1 -0 0
    outer loop
      vertex 48 33.1322 12.9605
      vertex 48 34.8825 12.0446
      vertex 48 34.6259 13.8294
    endloop
  endfacet
  facet normal 1 0 0
    outer loop
      vertex 48 33.1322 12.9605
      vertex 48 34.6259 13.8294
      vertex 48 33.4451 15.1921
    endloop
  endfacet
  facet normal 1 0 0
    outer loop
      vertex 48 32.5909 11.2945
      vertex 48 34.8825 12.0446
      vertex 48 33.1322 12.9605
    endloop
  endfacet
  facet normal 1 0 0
    outer loop
      vertex 48 34.8825 12.0446
      vertex 48 32.5909 11.2945
      vertex 48 34.1335 10.4044
    endloop
  endfacet
  facet normal 1 0 0
    outer loop
      vertex 48 34.1335 10.4044
      vertex 48 32.5909 11.2945
      vertex 48 32.6166 9.42953
    endloop
  endfacet
  facet normal 1 -0 0
    outer loop
      vertex 48 30.8391 11.2945
      vertex 48 32.6166 9.42953
      vertex 48 32.5909 11.2945
    endloop
  endfacet
  facet normal 1 0 0
    outer loop
      vertex 48 30.8391 11.2945
      vertex 48 30.8134 9.42953
      vertex 48 32.6166 9.42953
    endloop
  endfacet
  facet normal 1 -0 0
    outer loop
      vertex 48 28.5475 12.0446
      vertex 48 30.8391 11.2945
      vertex 48 30.2978 12.9605
    endloop
  endfacet
  facet normal 1 0 0
    outer loop
      vertex 48 30.8391 11.2945
      vertex 48 29.2965 10.4044
      vertex 48 30.8134 9.42953
    endloop
  endfacet
  facet normal 1 -0 0
    outer loop
      vertex 48 28.8041 13.8294
      vertex 48 30.2978 12.9605
      vertex 48 29.9849 15.1921
    endloop
  endfacet
  facet normal 1 0 0
    outer loop
      vertex 48 28.5475 12.0446
      vertex 48 30.2978 12.9605
      vertex 48 28.8041 13.8294
    endloop
  endfacet
  facet normal 1 0 0
    outer loop
      vertex 48 30.8391 11.2945
      vertex 48 28.5475 12.0446
      vertex 48 29.2965 10.4044
    endloop
  endfacet
  facet normal 0 -0.540641 0.841253
    outer loop
      vertex 48 34.1335 10.4044
      vertex 50 32.6166 9.42953
      vertex 50 34.1335 10.4044
    endloop
  endfacet
  facet normal 0 -0.540641 0.841253
    outer loop
      vertex 50 32.6166 9.42953
      vertex 48 34.1335 10.4044
      vertex 48 32.6166 9.42953
    endloop
  endfacet
  facet normal 0 0.989821 -0.142315
    outer loop
      vertex 50 28.5475 12.0446
      vertex 48 28.8041 13.8294
      vertex 50 28.8041 13.8294
    endloop
  endfacet
  facet normal 0 0.989821 -0.142315
    outer loop
      vertex 48 28.8041 13.8294
      vertex 50 28.5475 12.0446
      vertex 48 28.5475 12.0446
    endloop
  endfacet
  facet normal 0 0.755749 -0.654861
    outer loop
      vertex 50 28.8041 13.8294
      vertex 48 29.9849 15.1921
      vertex 50 29.9849 15.1921
    endloop
  endfacet
  facet normal 0 0.755749 -0.654861
    outer loop
      vertex 48 29.9849 15.1921
      vertex 50 28.8041 13.8294
      vertex 48 28.8041 13.8294
    endloop
  endfacet
  facet normal 0 -0.989821 -0.142315
    outer loop
      vertex 48 34.8825 12.0446
      vertex 50 34.6259 13.8294
      vertex 48 34.6259 13.8294
    endloop
  endfacet
  facet normal 0 -0.989821 -0.142315
    outer loop
      vertex 50 34.6259 13.8294
      vertex 48 34.8825 12.0446
      vertex 50 34.8825 12.0446
    endloop
  endfacet
  facet normal 0 -0.755749 -0.654861
    outer loop
      vertex 48 34.6259 13.8294
      vertex 50 33.4451 15.1921
      vertex 48 33.4451 15.1921
    endloop
  endfacet
  facet normal 0 -0.755749 -0.654861
    outer loop
      vertex 50 33.4451 15.1921
      vertex 48 34.6259 13.8294
      vertex 50 34.6259 13.8294
    endloop
  endfacet
  facet normal 0 0.281733 -0.959493
    outer loop
      vertex 48 29.9849 15.1921
      vertex 50 31.715 15.7001
      vertex 50 29.9849 15.1921
    endloop
  endfacet
  facet normal 0 0.281733 -0.959493
    outer loop
      vertex 50 31.715 15.7001
      vertex 48 29.9849 15.1921
      vertex 48 31.715 15.7001
    endloop
  endfacet
  facet normal 0 0.909632 0.415415
    outer loop
      vertex 50 29.2965 10.4044
      vertex 48 28.5475 12.0446
      vertex 50 28.5475 12.0446
    endloop
  endfacet
  facet normal 0 0.909632 0.415415
    outer loop
      vertex 48 28.5475 12.0446
      vertex 50 29.2965 10.4044
      vertex 48 29.2965 10.4044
    endloop
  endfacet
  facet normal -0 0.540641 0.841253
    outer loop
      vertex 48 30.8134 9.42953
      vertex 50 29.2965 10.4044
      vertex 50 30.8134 9.42953
    endloop
  endfacet
  facet normal 0 0.540641 0.841253
    outer loop
      vertex 50 29.2965 10.4044
      vertex 48 30.8134 9.42953
      vertex 48 29.2965 10.4044
    endloop
  endfacet
  facet normal 0 -0.587786 -0.809016
    outer loop
      vertex 37.4001 31.715 13.9901
      vertex 48 33.1322 12.9605
      vertex 48 31.715 13.9901
    endloop
  endfacet
  facet normal -0 -0.587786 -0.809016
    outer loop
      vertex 48 33.1322 12.9605
      vertex 37.4001 31.715 13.9901
      vertex 37.4001 33.1322 12.9605
    endloop
  endfacet
  facet normal -0 0 1
    outer loop
      vertex 37.4001 32.5909 11.2945
      vertex 48 30.8391 11.2945
      vertex 48 32.5909 11.2945
    endloop
  endfacet
  facet normal 0 0 1
    outer loop
      vertex 48 30.8391 11.2945
      vertex 37.4001 32.5909 11.2945
      vertex 37.4001 30.8391 11.2945
    endloop
  endfacet
  facet normal 0 -0.951057 0.309017
    outer loop
      vertex 37.4001 32.5909 11.2945
      vertex 48 33.1322 12.9605
      vertex 37.4001 33.1322 12.9605
    endloop
  endfacet
  facet normal 0 -0.951057 0.309017
    outer loop
      vertex 48 33.1322 12.9605
      vertex 37.4001 32.5909 11.2945
      vertex 48 32.5909 11.2945
    endloop
  endfacet
  facet normal 0 0.951056 0.309018
    outer loop
      vertex 48 30.8391 11.2945
      vertex 37.4001 30.2978 12.9605
      vertex 48 30.2978 12.9605
    endloop
  endfacet
  facet normal 0 0.951056 0.309018
    outer loop
      vertex 37.4001 30.2978 12.9605
      vertex 48 30.8391 11.2945
      vertex 37.4001 30.8391 11.2945
    endloop
  endfacet
  facet normal 0 0.587785 -0.809017
    outer loop
      vertex 37.4001 30.2978 12.9605
      vertex 48 31.715 13.9901
      vertex 48 30.2978 12.9605
    endloop
  endfacet
  facet normal 0 0.587785 -0.809017
    outer loop
      vertex 48 31.715 13.9901
      vertex 37.4001 30.2978 12.9605
      vertex 37.4001 31.715 13.9901
    endloop
  endfacet
  facet normal 0 -0.281732 -0.959493
    outer loop
      vertex 48 -91.715 55.7001
      vertex 50 -89.9849 55.1921
      vertex 50 -91.715 55.7001
    endloop
  endfacet
  facet normal -0 -0.281732 -0.959493
    outer loop
      vertex 50 -89.9849 55.1921
      vertex 48 -91.715 55.7001
      vertex 48 -89.9849 55.1921
    endloop
  endfacet
  facet normal -0 0 1
    outer loop
      vertex 48 -90.8134 49.4295
      vertex 50 -92.6166 49.4295
      vertex 50 -90.8134 49.4295
    endloop
  endfacet
  facet normal 0 0 1
    outer loop
      vertex 50 -92.6166 49.4295
      vertex 48 -90.8134 49.4295
      vertex 48 -92.6166 49.4295
    endloop
  endfacet
  facet normal 0 -0.909632 0.415415
    outer loop
      vertex 48 -89.2965 50.4044
      vertex 50 -88.5475 52.0446
      vertex 48 -88.5475 52.0446
    endloop
  endfacet
  facet normal 0 -0.909632 0.415415
    outer loop
      vertex 50 -88.5475 52.0446
      vertex 48 -89.2965 50.4044
      vertex 50 -89.2965 50.4044
    endloop
  endfacet
  facet normal 1 0 0
    outer loop
      vertex 48 -91.715 53.9901
      vertex 48 -89.9849 55.1921
      vertex 48 -91.715 55.7001
    endloop
  endfacet
  facet normal 1 0 0
    outer loop
      vertex 48 -89.9849 55.1921
      vertex 48 -91.715 53.9901
      vertex 48 -90.2978 52.9605
    endloop
  endfacet
  facet normal 1 -0 0
    outer loop
      vertex 48 -93.4451 55.1921
      vertex 48 -91.715 53.9901
      vertex 48 -91.715 55.7001
    endloop
  endfacet
  facet normal 1 0 0
    outer loop
      vertex 48 -91.715 53.9901
      vertex 48 -93.4451 55.1921
      vertex 48 -93.1322 52.9605
    endloop
  endfacet
  facet normal 1 -0 0
    outer loop
      vertex 48 -90.2978 52.9605
      vertex 48 -88.5475 52.0446
      vertex 48 -88.8041 53.8294
    endloop
  endfacet
  facet normal 1 0 0
    outer loop
      vertex 48 -90.2978 52.9605
      vertex 48 -88.8041 53.8294
      vertex 48 -89.9849 55.1921
    endloop
  endfacet
  facet normal 1 0 0
    outer loop
      vertex 48 -90.8391 51.2945
      vertex 48 -88.5475 52.0446
      vertex 48 -90.2978 52.9605
    endloop
  endfacet
  facet normal 1 0 0
    outer loop
      vertex 48 -88.5475 52.0446
      vertex 48 -90.8391 51.2945
      vertex 48 -89.2965 50.4044
    endloop
  endfacet
  facet normal 1 0 0
    outer loop
      vertex 48 -89.2965 50.4044
      vertex 48 -90.8391 51.2945
      vertex 48 -90.8134 49.4295
    endloop
  endfacet
  facet normal 1 -0 0
    outer loop
      vertex 48 -92.5909 51.2945
      vertex 48 -90.8134 49.4295
      vertex 48 -90.8391 51.2945
    endloop
  endfacet
  facet normal 1 0 0
    outer loop
      vertex 48 -92.5909 51.2945
      vertex 48 -92.6166 49.4295
      vertex 48 -90.8134 49.4295
    endloop
  endfacet
  facet normal 1 -0 0
    outer loop
      vertex 48 -94.8825 52.0446
      vertex 48 -92.5909 51.2945
      vertex 48 -93.1322 52.9605
    endloop
  endfacet
  facet normal 1 0 0
    outer loop
      vertex 48 -92.5909 51.2945
      vertex 48 -94.1335 50.4044
      vertex 48 -92.6166 49.4295
    endloop
  endfacet
  facet normal 1 -0 0
    outer loop
      vertex 48 -94.6259 53.8294
      vertex 48 -93.1322 52.9605
      vertex 48 -93.4451 55.1921
    endloop
  endfacet
  facet normal 1 0 0
    outer loop
      vertex 48 -94.8825 52.0446
      vertex 48 -93.1322 52.9605
      vertex 48 -94.6259 53.8294
    endloop
  endfacet
  facet normal 1 0 0
    outer loop
      vertex 48 -92.5909 51.2945
      vertex 48 -94.8825 52.0446
      vertex 48 -94.1335 50.4044
    endloop
  endfacet
  facet normal 0 -0.54064 0.841254
    outer loop
      vertex 48 -89.2965 50.4044
      vertex 50 -90.8134 49.4295
      vertex 50 -89.2965 50.4044
    endloop
  endfacet
  facet normal 0 -0.54064 0.841254
    outer loop
      vertex 50 -90.8134 49.4295
      vertex 48 -89.2965 50.4044
      vertex 48 -90.8134 49.4295
    endloop
  endfacet
  facet normal 0 0.989821 -0.142315
    outer loop
      vertex 50 -94.8825 52.0446
      vertex 48 -94.6259 53.8294
      vertex 50 -94.6259 53.8294
    endloop
  endfacet
  facet normal 0 0.989821 -0.142315
    outer loop
      vertex 48 -94.6259 53.8294
      vertex 50 -94.8825 52.0446
      vertex 48 -94.8825 52.0446
    endloop
  endfacet
  facet normal 0 0.75575 -0.65486
    outer loop
      vertex 50 -94.6259 53.8294
      vertex 48 -93.4451 55.1921
      vertex 50 -93.4451 55.1921
    endloop
  endfacet
  facet normal 0 0.75575 -0.65486
    outer loop
      vertex 48 -93.4451 55.1921
      vertex 50 -94.6259 53.8294
      vertex 48 -94.6259 53.8294
    endloop
  endfacet
  facet normal 0 -0.989821 -0.142315
    outer loop
      vertex 48 -88.5475 52.0446
      vertex 50 -88.8041 53.8294
      vertex 48 -88.8041 53.8294
    endloop
  endfacet
  facet normal 0 -0.989821 -0.142315
    outer loop
      vertex 50 -88.8041 53.8294
      vertex 48 -88.5475 52.0446
      vertex 50 -88.5475 52.0446
    endloop
  endfacet
  facet normal 0 -0.75575 -0.65486
    outer loop
      vertex 48 -88.8041 53.8294
      vertex 50 -89.9849 55.1921
      vertex 48 -89.9849 55.1921
    endloop
  endfacet
  facet normal 0 -0.75575 -0.65486
    outer loop
      vertex 50 -89.9849 55.1921
      vertex 48 -88.8041 53.8294
      vertex 50 -88.8041 53.8294
    endloop
  endfacet
  facet normal 0 0.281731 -0.959493
    outer loop
      vertex 48 -93.4451 55.1921
      vertex 50 -91.715 55.7001
      vertex 50 -93.4451 55.1921
    endloop
  endfacet
  facet normal 0 0.281731 -0.959493
    outer loop
      vertex 50 -91.715 55.7001
      vertex 48 -93.4451 55.1921
      vertex 48 -91.715 55.7001
    endloop
  endfacet
  facet normal 0 0.909632 0.415415
    outer loop
      vertex 50 -94.1335 50.4044
      vertex 48 -94.8825 52.0446
      vertex 50 -94.8825 52.0446
    endloop
  endfacet
  facet normal 0 0.909632 0.415415
    outer loop
      vertex 48 -94.8825 52.0446
      vertex 50 -94.1335 50.4044
      vertex 48 -94.1335 50.4044
    endloop
  endfacet
  facet normal -0 0.54064 0.841254
    outer loop
      vertex 48 -92.6166 49.4295
      vertex 50 -94.1335 50.4044
      vertex 50 -92.6166 49.4295
    endloop
  endfacet
  facet normal 0 0.54064 0.841254
    outer loop
      vertex 50 -94.1335 50.4044
      vertex 48 -92.6166 49.4295
      vertex 48 -94.1335 50.4044
    endloop
  endfacet
  facet normal 0 -0.587787 -0.809016
    outer loop
      vertex 35 -91.715 53.9901
      vertex 48 -90.2978 52.9605
      vertex 48 -91.715 53.9901
    endloop
  endfacet
  facet normal -0 -0.587787 -0.809016
    outer loop
      vertex 48 -90.2978 52.9605
      vertex 35 -91.715 53.9901
      vertex 35 -90.2978 52.9605
    endloop
  endfacet
  facet normal -0 0 1
    outer loop
      vertex 35 -90.8391 51.2945
      vertex 48 -92.5909 51.2945
      vertex 48 -90.8391 51.2945
    endloop
  endfacet
  facet normal 0 0 1
    outer loop
      vertex 48 -92.5909 51.2945
      vertex 35 -90.8391 51.2945
      vertex 35 -92.5909 51.2945
    endloop
  endfacet
  facet normal 0 -0.951056 0.309019
    outer loop
      vertex 35 -90.8391 51.2945
      vertex 48 -90.2978 52.9605
      vertex 35 -90.2978 52.9605
    endloop
  endfacet
  facet normal 0 -0.951056 0.309019
    outer loop
      vertex 48 -90.2978 52.9605
      vertex 35 -90.8391 51.2945
      vertex 48 -90.8391 51.2945
    endloop
  endfacet
  facet normal 0 0.951056 0.309019
    outer loop
      vertex 48 -92.5909 51.2945
      vertex 35 -93.1322 52.9605
      vertex 48 -93.1322 52.9605
    endloop
  endfacet
  facet normal 0 0.951056 0.309019
    outer loop
      vertex 35 -93.1322 52.9605
      vertex 48 -92.5909 51.2945
      vertex 35 -92.5909 51.2945
    endloop
  endfacet
  facet normal 0 0.587785 -0.809017
    outer loop
      vertex 35 -93.1322 52.9605
      vertex 48 -91.715 53.9901
      vertex 48 -93.1322 52.9605
    endloop
  endfacet
  facet normal 0 0.587785 -0.809017
    outer loop
      vertex 48 -91.715 53.9901
      vertex 35 -93.1322 52.9605
      vertex 35 -91.715 53.9901
    endloop
  endfacet
  facet normal 0 -0.281732 -0.959493
    outer loop
      vertex 48 31.715 55.7001
      vertex 50 33.4451 55.1921
      vertex 50 31.715 55.7001
    endloop
  endfacet
  facet normal -0 -0.281732 -0.959493
    outer loop
      vertex 50 33.4451 55.1921
      vertex 48 31.715 55.7001
      vertex 48 33.4451 55.1921
    endloop
  endfacet
  facet normal -0 0 1
    outer loop
      vertex 48 32.6166 49.4295
      vertex 50 30.8134 49.4295
      vertex 50 32.6166 49.4295
    endloop
  endfacet
  facet normal 0 0 1
    outer loop
      vertex 50 30.8134 49.4295
      vertex 48 32.6166 49.4295
      vertex 48 30.8134 49.4295
    endloop
  endfacet
  facet normal 0 -0.909632 0.415415
    outer loop
      vertex 48 34.1335 50.4044
      vertex 50 34.8825 52.0446
      vertex 48 34.8825 52.0446
    endloop
  endfacet
  facet normal 0 -0.909632 0.415415
    outer loop
      vertex 50 34.8825 52.0446
      vertex 48 34.1335 50.4044
      vertex 50 34.1335 50.4044
    endloop
  endfacet
  facet normal 1 0 0
    outer loop
      vertex 48 31.715 53.9901
      vertex 48 33.4451 55.1921
      vertex 48 31.715 55.7001
    endloop
  endfacet
  facet normal 1 0 0
    outer loop
      vertex 48 33.4451 55.1921
      vertex 48 31.715 53.9901
      vertex 48 33.1322 52.9605
    endloop
  endfacet
  facet normal 1 -0 0
    outer loop
      vertex 48 29.9849 55.1921
      vertex 48 31.715 53.9901
      vertex 48 31.715 55.7001
    endloop
  endfacet
  facet normal 1 0 0
    outer loop
      vertex 48 31.715 53.9901
      vertex 48 29.9849 55.1921
      vertex 48 30.2978 52.9605
    endloop
  endfacet
  facet normal 1 -0 0
    outer loop
      vertex 48 33.1322 52.9605
      vertex 48 34.8825 52.0446
      vertex 48 34.6259 53.8294
    endloop
  endfacet
  facet normal 1 0 0
    outer loop
      vertex 48 33.1322 52.9605
      vertex 48 34.6259 53.8294
      vertex 48 33.4451 55.1921
    endloop
  endfacet
  facet normal 1 0 0
    outer loop
      vertex 48 32.5909 51.2945
      vertex 48 34.8825 52.0446
      vertex 48 33.1322 52.9605
    endloop
  endfacet
  facet normal 1 0 0
    outer loop
      vertex 48 34.8825 52.0446
      vertex 48 32.5909 51.2945
      vertex 48 34.1335 50.4044
    endloop
  endfacet
  facet normal 1 0 0
    outer loop
      vertex 48 34.1335 50.4044
      vertex 48 32.5909 51.2945
      vertex 48 32.6166 49.4295
    endloop
  endfacet
  facet normal 1 -0 0
    outer loop
      vertex 48 30.8391 51.2945
      vertex 48 32.6166 49.4295
      vertex 48 32.5909 51.2945
    endloop
  endfacet
  facet normal 1 0 0
    outer loop
      vertex 48 30.8391 51.2945
      vertex 48 30.8134 49.4295
      vertex 48 32.6166 49.4295
    endloop
  endfacet
  facet normal 1 -0 0
    outer loop
      vertex 48 28.5475 52.0446
      vertex 48 30.8391 51.2945
      vertex 48 30.2978 52.9605
    endloop
  endfacet
  facet normal 1 0 0
    outer loop
      vertex 48 30.8391 51.2945
      vertex 48 29.2965 50.4044
      vertex 48 30.8134 49.4295
    endloop
  endfacet
  facet normal 1 -0 0
    outer loop
      vertex 48 28.8041 53.8294
      vertex 48 30.2978 52.9605
      vertex 48 29.9849 55.1921
    endloop
  endfacet
  facet normal 1 0 0
    outer loop
      vertex 48 28.5475 52.0446
      vertex 48 30.2978 52.9605
      vertex 48 28.8041 53.8294
    endloop
  endfacet
  facet normal 1 0 0
    outer loop
      vertex 48 30.8391 51.2945
      vertex 48 28.5475 52.0446
      vertex 48 29.2965 50.4044
    endloop
  endfacet
  facet normal 0 -0.540641 0.841253
    outer loop
      vertex 48 34.1335 50.4044
      vertex 50 32.6166 49.4295
      vertex 50 34.1335 50.4044
    endloop
  endfacet
  facet normal 0 -0.540641 0.841253
    outer loop
      vertex 50 32.6166 49.4295
      vertex 48 34.1335 50.4044
      vertex 48 32.6166 49.4295
    endloop
  endfacet
  facet normal 0 0.989821 -0.142315
    outer loop
      vertex 50 28.5475 52.0446
      vertex 48 28.8041 53.8294
      vertex 50 28.8041 53.8294
    endloop
  endfacet
  facet normal 0 0.989821 -0.142315
    outer loop
      vertex 48 28.8041 53.8294
      vertex 50 28.5475 52.0446
      vertex 48 28.5475 52.0446
    endloop
  endfacet
  facet normal 0 0.75575 -0.65486
    outer loop
      vertex 50 28.8041 53.8294
      vertex 48 29.9849 55.1921
      vertex 50 29.9849 55.1921
    endloop
  endfacet
  facet normal 0 0.75575 -0.65486
    outer loop
      vertex 48 29.9849 55.1921
      vertex 50 28.8041 53.8294
      vertex 48 28.8041 53.8294
    endloop
  endfacet
  facet normal 0 -0.989821 -0.142315
    outer loop
      vertex 48 34.8825 52.0446
      vertex 50 34.6259 53.8294
      vertex 48 34.6259 53.8294
    endloop
  endfacet
  facet normal 0 -0.989821 -0.142315
    outer loop
      vertex 50 34.6259 53.8294
      vertex 48 34.8825 52.0446
      vertex 50 34.8825 52.0446
    endloop
  endfacet
  facet normal 0 -0.75575 -0.65486
    outer loop
      vertex 48 34.6259 53.8294
      vertex 50 33.4451 55.1921
      vertex 48 33.4451 55.1921
    endloop
  endfacet
  facet normal 0 -0.75575 -0.65486
    outer loop
      vertex 50 33.4451 55.1921
      vertex 48 34.6259 53.8294
      vertex 50 34.6259 53.8294
    endloop
  endfacet
  facet normal 0 0.281732 -0.959493
    outer loop
      vertex 48 29.9849 55.1921
      vertex 50 31.715 55.7001
      vertex 50 29.9849 55.1921
    endloop
  endfacet
  facet normal 0 0.281732 -0.959493
    outer loop
      vertex 50 31.715 55.7001
      vertex 48 29.9849 55.1921
      vertex 48 31.715 55.7001
    endloop
  endfacet
  facet normal 0 0.909632 0.415415
    outer loop
      vertex 50 29.2965 50.4044
      vertex 48 28.5475 52.0446
      vertex 50 28.5475 52.0446
    endloop
  endfacet
  facet normal 0 0.909632 0.415415
    outer loop
      vertex 48 28.5475 52.0446
      vertex 50 29.2965 50.4044
      vertex 48 29.2965 50.4044
    endloop
  endfacet
  facet normal -0 0.540641 0.841253
    outer loop
      vertex 48 30.8134 49.4295
      vertex 50 29.2965 50.4044
      vertex 50 30.8134 49.4295
    endloop
  endfacet
  facet normal 0 0.540641 0.841253
    outer loop
      vertex 50 29.2965 50.4044
      vertex 48 30.8134 49.4295
      vertex 48 29.2965 50.4044
    endloop
  endfacet
  facet normal 0 -0.587787 -0.809016
    outer loop
      vertex 35 31.715 53.9901
      vertex 48 33.1322 52.9605
      vertex 48 31.715 53.9901
    endloop
  endfacet
  facet normal -0 -0.587787 -0.809016
    outer loop
      vertex 48 33.1322 52.9605
      vertex 35 31.715 53.9901
      vertex 35 33.1322 52.9605
    endloop
  endfacet
  facet normal -0 0 1
    outer loop
      vertex 35 32.5909 51.2945
      vertex 48 30.8391 51.2945
      vertex 48 32.5909 51.2945
    endloop
  endfacet
  facet normal 0 0 1
    outer loop
      vertex 48 30.8391 51.2945
      vertex 35 32.5909 51.2945
      vertex 35 30.8391 51.2945
    endloop
  endfacet
  facet normal 0 -0.951057 0.309017
    outer loop
      vertex 35 32.5909 51.2945
      vertex 48 33.1322 52.9605
      vertex 35 33.1322 52.9605
    endloop
  endfacet
  facet normal 0 -0.951057 0.309017
    outer loop
      vertex 48 33.1322 52.9605
      vertex 35 32.5909 51.2945
      vertex 48 32.5909 51.2945
    endloop
  endfacet
  facet normal 0 0.951056 0.309018
    outer loop
      vertex 48 30.8391 51.2945
      vertex 35 30.2978 52.9605
      vertex 48 30.2978 52.9605
    endloop
  endfacet
  facet normal 0 0.951056 0.309018
    outer loop
      vertex 35 30.2978 52.9605
      vertex 48 30.8391 51.2945
      vertex 35 30.8391 51.2945
    endloop
  endfacet
  facet normal 0 0.587786 -0.809016
    outer loop
      vertex 35 30.2978 52.9605
      vertex 48 31.715 53.9901
      vertex 48 30.2978 52.9605
    endloop
  endfacet
  facet normal 0 0.587786 -0.809016
    outer loop
      vertex 48 31.715 53.9901
      vertex 35 30.2978 52.9605
      vertex 35 31.715 53.9901
    endloop
  endfacet
  facet normal 0 -0.500001 0.866025
    outer loop
      vertex 35 -88.9436 10.9
      vertex 37.4001 -91.715 9.2999
      vertex 37.4001 -88.9436 10.9
    endloop
  endfacet
  facet normal 0 -0.500001 0.866025
    outer loop
      vertex 37.4001 -91.715 9.2999
      vertex 35 -88.9436 10.9
      vertex 35 -91.715 9.2999
    endloop
  endfacet
  facet normal 0 -0.500001 -0.866025
    outer loop
      vertex 35 -91.715 15.7001
      vertex 37.4001 -88.9436 14.1001
      vertex 37.4001 -91.715 15.7001
    endloop
  endfacet
  facet normal -0 -0.500001 -0.866025
    outer loop
      vertex 37.4001 -88.9436 14.1001
      vertex 35 -91.715 15.7001
      vertex 35 -88.9436 14.1001
    endloop
  endfacet
  facet normal 0 -1 0
    outer loop
      vertex 35 -88.9436 10.9
      vertex 37.4001 -88.9436 14.1001
      vertex 35 -88.9436 14.1001
    endloop
  endfacet
  facet normal 0 -1 -0
    outer loop
      vertex 37.4001 -88.9436 14.1001
      vertex 35 -88.9436 10.9
      vertex 37.4001 -88.9436 10.9
    endloop
  endfacet
  facet normal -1 0 0
    outer loop
      vertex 37.4001 -88.9436 10.9
      vertex 37.4001 -90.2978 12.9605
      vertex 37.4001 -88.9436 14.1001
    endloop
  endfacet
  facet normal -1 0 0
    outer loop
      vertex 37.4001 -88.9436 10.9
      vertex 37.4001 -90.8391 11.2945
      vertex 37.4001 -90.2978 12.9605
    endloop
  endfacet
  facet normal -1 0 0
    outer loop
      vertex 37.4001 -91.715 9.2999
      vertex 37.4001 -90.8391 11.2945
      vertex 37.4001 -88.9436 10.9
    endloop
  endfacet
  facet normal -1 0 0
    outer loop
      vertex 37.4001 -91.715 9.2999
      vertex 37.4001 -92.5909 11.2945
      vertex 37.4001 -90.8391 11.2945
    endloop
  endfacet
  facet normal -1 -0 0
    outer loop
      vertex 37.4001 -92.5909 11.2945
      vertex 37.4001 -94.4864 10.9
      vertex 37.4001 -93.1322 12.9605
    endloop
  endfacet
  facet normal -1 0 0
    outer loop
      vertex 37.4001 -94.4864 10.9
      vertex 37.4001 -92.5909 11.2945
      vertex 37.4001 -91.715 9.2999
    endloop
  endfacet
  facet normal -1 0 0
    outer loop
      vertex 37.4001 -91.715 13.9901
      vertex 37.4001 -88.9436 14.1001
      vertex 37.4001 -90.2978 12.9605
    endloop
  endfacet
  facet normal -1 0 0
    outer loop
      vertex 37.4001 -91.715 13.9901
      vertex 37.4001 -91.715 15.7001
      vertex 37.4001 -88.9436 14.1001
    endloop
  endfacet
  facet normal -1 0 0
    outer loop
      vertex 37.4001 -94.4864 14.1001
      vertex 37.4001 -91.715 13.9901
      vertex 37.4001 -93.1322 12.9605
    endloop
  endfacet
  facet normal -1 0 0
    outer loop
      vertex 37.4001 -94.4864 14.1001
      vertex 37.4001 -93.1322 12.9605
      vertex 37.4001 -94.4864 10.9
    endloop
  endfacet
  facet normal -1 0 0
    outer loop
      vertex 37.4001 -91.715 13.9901
      vertex 37.4001 -94.4864 14.1001
      vertex 37.4001 -91.715 15.7001
    endloop
  endfacet
  facet normal -0 0.5 0.866026
    outer loop
      vertex 35 -91.715 9.2999
      vertex 37.4001 -94.4864 10.9
      vertex 37.4001 -91.715 9.2999
    endloop
  endfacet
  facet normal 0 0.5 0.866026
    outer loop
      vertex 37.4001 -94.4864 10.9
      vertex 35 -91.715 9.2999
      vertex 35 -94.4864 10.9
    endloop
  endfacet
  facet normal 0 1 -0
    outer loop
      vertex 37.4001 -94.4864 10.9
      vertex 35 -94.4864 14.1001
      vertex 37.4001 -94.4864 14.1001
    endloop
  endfacet
  facet normal 0 1 0
    outer loop
      vertex 35 -94.4864 14.1001
      vertex 37.4001 -94.4864 10.9
      vertex 35 -94.4864 10.9
    endloop
  endfacet
  facet normal 0 0.5 -0.866026
    outer loop
      vertex 35 -94.4864 14.1001
      vertex 37.4001 -91.715 15.7001
      vertex 37.4001 -94.4864 14.1001
    endloop
  endfacet
  facet normal 0 0.5 -0.866026
    outer loop
      vertex 37.4001 -91.715 15.7001
      vertex 35 -94.4864 14.1001
      vertex 35 -91.715 15.7001
    endloop
  endfacet
  facet normal 0 -0.5 0.866025
    outer loop
      vertex 35 34.4864 10.9
      vertex 37.4001 31.715 9.2999
      vertex 37.4001 34.4864 10.9
    endloop
  endfacet
  facet normal 0 -0.5 0.866025
    outer loop
      vertex 37.4001 31.715 9.2999
      vertex 35 34.4864 10.9
      vertex 35 31.715 9.2999
    endloop
  endfacet
  facet normal 0 -0.5 -0.866025
    outer loop
      vertex 35 31.715 15.7001
      vertex 37.4001 34.4864 14.1001
      vertex 37.4001 31.715 15.7001
    endloop
  endfacet
  facet normal -0 -0.5 -0.866025
    outer loop
      vertex 37.4001 34.4864 14.1001
      vertex 35 31.715 15.7001
      vertex 35 34.4864 14.1001
    endloop
  endfacet
  facet normal 0 -1 0
    outer loop
      vertex 35 34.4864 10.9
      vertex 37.4001 34.4864 14.1001
      vertex 35 34.4864 14.1001
    endloop
  endfacet
  facet normal 0 -1 -0
    outer loop
      vertex 37.4001 34.4864 14.1001
      vertex 35 34.4864 10.9
      vertex 37.4001 34.4864 10.9
    endloop
  endfacet
  facet normal -1 0 0
    outer loop
      vertex 37.4001 34.4864 10.9
      vertex 37.4001 33.1322 12.9605
      vertex 37.4001 34.4864 14.1001
    endloop
  endfacet
  facet normal -1 0 0
    outer loop
      vertex 37.4001 34.4864 10.9
      vertex 37.4001 32.5909 11.2945
      vertex 37.4001 33.1322 12.9605
    endloop
  endfacet
  facet normal -1 0 0
    outer loop
      vertex 37.4001 31.715 9.2999
      vertex 37.4001 32.5909 11.2945
      vertex 37.4001 34.4864 10.9
    endloop
  endfacet
  facet normal -1 0 0
    outer loop
      vertex 37.4001 31.715 9.2999
      vertex 37.4001 30.8391 11.2945
      vertex 37.4001 32.5909 11.2945
    endloop
  endfacet
  facet normal -1 -0 0
    outer loop
      vertex 37.4001 30.8391 11.2945
      vertex 37.4001 28.9436 10.9
      vertex 37.4001 30.2978 12.9605
    endloop
  endfacet
  facet normal -1 0 0
    outer loop
      vertex 37.4001 28.9436 10.9
      vertex 37.4001 30.8391 11.2945
      vertex 37.4001 31.715 9.2999
    endloop
  endfacet
  facet normal -1 0 0
    outer loop
      vertex 37.4001 31.715 13.9901
      vertex 37.4001 34.4864 14.1001
      vertex 37.4001 33.1322 12.9605
    endloop
  endfacet
  facet normal -1 0 0
    outer loop
      vertex 37.4001 31.715 13.9901
      vertex 37.4001 31.715 15.7001
      vertex 37.4001 34.4864 14.1001
    endloop
  endfacet
  facet normal -1 0 0
    outer loop
      vertex 37.4001 28.9436 14.1001
      vertex 37.4001 31.715 13.9901
      vertex 37.4001 30.2978 12.9605
    endloop
  endfacet
  facet normal -1 0 0
    outer loop
      vertex 37.4001 28.9436 14.1001
      vertex 37.4001 30.2978 12.9605
      vertex 37.4001 28.9436 10.9
    endloop
  endfacet
  facet normal -1 0 0
    outer loop
      vertex 37.4001 31.715 13.9901
      vertex 37.4001 28.9436 14.1001
      vertex 37.4001 31.715 15.7001
    endloop
  endfacet
  facet normal -0 0.5 0.866026
    outer loop
      vertex 35 31.715 9.2999
      vertex 37.4001 28.9436 10.9
      vertex 37.4001 31.715 9.2999
    endloop
  endfacet
  facet normal 0 0.5 0.866026
    outer loop
      vertex 37.4001 28.9436 10.9
      vertex 35 31.715 9.2999
      vertex 35 28.9436 10.9
    endloop
  endfacet
  facet normal 0 1 -0
    outer loop
      vertex 37.4001 28.9436 10.9
      vertex 35 28.9436 14.1001
      vertex 37.4001 28.9436 14.1001
    endloop
  endfacet
  facet normal 0 1 0
    outer loop
      vertex 35 28.9436 14.1001
      vertex 37.4001 28.9436 10.9
      vertex 35 28.9436 10.9
    endloop
  endfacet
  facet normal 0 0.5 -0.866026
    outer loop
      vertex 35 28.9436 14.1001
      vertex 37.4001 31.715 15.7001
      vertex 37.4001 28.9436 14.1001
    endloop
  endfacet
  facet normal 0 0.5 -0.866026
    outer loop
      vertex 37.4001 31.715 15.7001
      vertex 35 28.9436 14.1001
      vertex 35 31.715 15.7001
    endloop
  endfacet
  facet normal -1 0 0
    outer loop
      vertex 38 -59.675 5
      vertex 38 -0.325001 20
      vertex 38 -0.325001 5
    endloop
  endfacet
  facet normal -1 -0 0
    outer loop
      vertex 38 -0.325001 20
      vertex 38 -59.675 5
      vertex 38 -59.675 20
    endloop
  endfacet
  facet normal 0 -1 0
    outer loop
      vertex -20 -0.325001 40
      vertex -15 -0.325001 32.0709
      vertex -12 -0.325001 40
    endloop
  endfacet
  facet normal 0 -1 0
    outer loop
      vertex -20 -0.325001 40
      vertex -15 -0.325001 27.7498
      vertex -15 -0.325001 32.0709
    endloop
  endfacet
  facet normal 0 -1 0
    outer loop
      vertex -15 -0.325001 27.7498
      vertex -12 -0.325001 20
      vertex -12 -0.325001 27.7498
    endloop
  endfacet
  facet normal 0 -1 0
    outer loop
      vertex -20 -0.325001 5
      vertex -15 -0.325001 27.7498
      vertex -20 -0.325001 40
    endloop
  endfacet
  facet normal 0 -1 -0
    outer loop
      vertex -15 -0.325001 27.7498
      vertex -20 -0.325001 5
      vertex -12 -0.325001 20
    endloop
  endfacet
  facet normal 0 -1 0
    outer loop
      vertex 38 -0.325001 5
      vertex -12 -0.325001 20
      vertex -20 -0.325001 5
    endloop
  endfacet
  facet normal 0 -1 0
    outer loop
      vertex -12 -0.325001 20
      vertex 38 -0.325001 5
      vertex 38 -0.325001 20
    endloop
  endfacet
  facet normal 0 -1 -0
    outer loop
      vertex -12 -0.325001 40
      vertex -15 -0.325001 32.0709
      vertex -12 -0.325001 32.0709
    endloop
  endfacet
  facet normal 0 1 0
    outer loop
      vertex 38 -59.675 20
      vertex 38 -59.675 5
      vertex -12 -59.675 20
    endloop
  endfacet
  facet normal 0 1 0
    outer loop
      vertex -12 -59.675 27.7498
      vertex -12 -59.675 20
      vertex -15 -59.675 27.7498
    endloop
  endfacet
  facet normal 0 1 0
    outer loop
      vertex -15 -59.675 32.0709
      vertex -12 -59.675 40
      vertex -12 -59.675 32.0709
    endloop
  endfacet
  facet normal 0 1 0
    outer loop
      vertex -12 -59.675 40
      vertex -15 -59.675 32.0709
      vertex -20 -59.675 40
    endloop
  endfacet
  facet normal 0 1 -0
    outer loop
      vertex -15 -59.675 27.7498
      vertex -20 -59.675 40
      vertex -15 -59.675 32.0709
    endloop
  endfacet
  facet normal 0 1 0
    outer loop
      vertex -20 -59.675 5
      vertex -15 -59.675 27.7498
      vertex -12 -59.675 20
    endloop
  endfacet
  facet normal 0 1 0
    outer loop
      vertex -15 -59.675 27.7498
      vertex -20 -59.675 5
      vertex -20 -59.675 40
    endloop
  endfacet
  facet normal 0 1 0
    outer loop
      vertex -20 -59.675 5
      vertex -12 -59.675 20
      vertex 38 -59.675 5
    endloop
  endfacet
endsolid OpenSCAD_Model
