solid OpenSCAD_Model
  facet normal -1 0 0
    outer loop
      vertex -10 -41.175 0
      vertex -10 -26.175 8
      vertex -10 -26.175 0
    endloop
  endfacet
  facet normal -1 -0 0
    outer loop
      vertex -10 -26.175 8
      vertex -10 -41.175 0
      vertex -10 -41.175 8
    endloop
  endfacet
  facet normal 0 0 1
    outer loop
      vertex 10 -26.175 8
      vertex 4.49958 -32.7186 8
      vertex 10 -41.175 8
    endloop
  endfacet
  facet normal 0 0 1
    outer loop
      vertex 10 -26.175 8
      vertex 3.72156 -30.9711 8
      vertex 4.49958 -32.7186 8
    endloop
  endfacet
  facet normal 0 0 1
    outer loop
      vertex 10 -26.175 8
      vertex 2.30005 -29.6912 8
      vertex 3.72156 -30.9711 8
    endloop
  endfacet
  facet normal 0 0 1
    outer loop
      vertex 10 -26.175 8
      vertex 0.480841 -29.1001 8
      vertex 2.30005 -29.6912 8
    endloop
  endfacet
  facet normal -0 0 1
    outer loop
      vertex -10 -26.175 8
      vertex 0.480841 -29.1001 8
      vertex 10 -26.175 8
    endloop
  endfacet
  facet normal 0 0 1
    outer loop
      vertex -4.2024 -31.804 8
      vertex -10 -26.175 8
      vertex -4.6001 -33.675 8
    endloop
  endfacet
  facet normal 0 0 1
    outer loop
      vertex -3.07807 -30.2565 8
      vertex -10 -26.175 8
      vertex -4.2024 -31.804 8
    endloop
  endfacet
  facet normal 0 0 1
    outer loop
      vertex -1.42151 -29.3 8
      vertex -10 -26.175 8
      vertex -3.07807 -30.2565 8
    endloop
  endfacet
  facet normal 0 0 1
    outer loop
      vertex 0.480841 -29.1001 8
      vertex -10 -26.175 8
      vertex -1.42151 -29.3 8
    endloop
  endfacet
  facet normal -0 0 1
    outer loop
      vertex 4.49958 -34.6314 8
      vertex 10 -41.175 8
      vertex 4.49958 -32.7186 8
    endloop
  endfacet
  facet normal -0 0 1
    outer loop
      vertex 3.72156 -36.3789 8
      vertex 10 -41.175 8
      vertex 4.49958 -34.6314 8
    endloop
  endfacet
  facet normal -0 0 1
    outer loop
      vertex 2.30005 -37.6588 8
      vertex 10 -41.175 8
      vertex 3.72156 -36.3789 8
    endloop
  endfacet
  facet normal -0 0 1
    outer loop
      vertex 0.480841 -38.2499 8
      vertex 10 -41.175 8
      vertex 2.30005 -37.6588 8
    endloop
  endfacet
  facet normal 0 0 1
    outer loop
      vertex -10 -41.175 8
      vertex 0.480841 -38.2499 8
      vertex -1.42151 -38.05 8
    endloop
  endfacet
  facet normal 0 0 1
    outer loop
      vertex -10 -41.175 8
      vertex -4.6001 -33.675 8
      vertex -10 -26.175 8
    endloop
  endfacet
  facet normal 0 0 1
    outer loop
      vertex 0.480841 -38.2499 8
      vertex -10 -41.175 8
      vertex 10 -41.175 8
    endloop
  endfacet
  facet normal 0 0 1
    outer loop
      vertex -3.07807 -37.0935 8
      vertex -10 -41.175 8
      vertex -1.42151 -38.05 8
    endloop
  endfacet
  facet normal 0 0 1
    outer loop
      vertex -4.2024 -35.546 8
      vertex -10 -41.175 8
      vertex -3.07807 -37.0935 8
    endloop
  endfacet
  facet normal 0 0 1
    outer loop
      vertex -4.6001 -33.675 8
      vertex -10 -41.175 8
      vertex -4.2024 -35.546 8
    endloop
  endfacet
  facet normal 0 1 0
    outer loop
      vertex 25 -26.175 55
      vertex 10 -26.175 8
      vertex 10 -26.175 55
    endloop
  endfacet
  facet normal 0 1 -0
    outer loop
      vertex 25 -26.175 0
      vertex 10 -26.175 8
      vertex 25 -26.175 55
    endloop
  endfacet
  facet normal 0 1 0
    outer loop
      vertex -10 -26.175 0
      vertex 10 -26.175 8
      vertex 25 -26.175 0
    endloop
  endfacet
  facet normal 0 1 0
    outer loop
      vertex 10 -26.175 8
      vertex -10 -26.175 0
      vertex -10 -26.175 8
    endloop
  endfacet
  facet normal 0 0 -1
    outer loop
      vertex 25 -41.175 0
      vertex 2.4881 -33.675 0
      vertex 25 -26.175 0
    endloop
  endfacet
  facet normal 0 0 -1
    outer loop
      vertex 25 -41.175 0
      vertex 1.75935 -35.4344 0
      vertex 2.4881 -33.675 0
    endloop
  endfacet
  facet normal 0 0 -1
    outer loop
      vertex 25 -41.175 0
      vertex 6.12323e-16 -36.1631 0
      vertex 1.75935 -35.4344 0
    endloop
  endfacet
  facet normal -0 0 -1
    outer loop
      vertex -1.75935 -35.4344 0
      vertex -10 -41.175 0
      vertex -2.4881 -33.675 0
    endloop
  endfacet
  facet normal -0 0 -1
    outer loop
      vertex 6.12323e-16 -36.1631 0
      vertex -10 -41.175 0
      vertex -1.75935 -35.4344 0
    endloop
  endfacet
  facet normal 0 0 -1
    outer loop
      vertex -10 -41.175 0
      vertex 6.12323e-16 -36.1631 0
      vertex 25 -41.175 0
    endloop
  endfacet
  facet normal 0 0 -1
    outer loop
      vertex 1.75935 -31.9156 0
      vertex 25 -26.175 0
      vertex 2.4881 -33.675 0
    endloop
  endfacet
  facet normal 0 0 -1
    outer loop
      vertex 6.12323e-16 -31.1869 0
      vertex 25 -26.175 0
      vertex 1.75935 -31.9156 0
    endloop
  endfacet
  facet normal 0 0 -1
    outer loop
      vertex -10 -26.175 0
      vertex -2.4881 -33.675 0
      vertex -10 -41.175 0
    endloop
  endfacet
  facet normal 0 0 -1
    outer loop
      vertex 6.12323e-16 -31.1869 0
      vertex -10 -26.175 0
      vertex 25 -26.175 0
    endloop
  endfacet
  facet normal 0 0 -1
    outer loop
      vertex -1.75935 -31.9156 0
      vertex -10 -26.175 0
      vertex 6.12323e-16 -31.1869 0
    endloop
  endfacet
  facet normal 0 0 -1
    outer loop
      vertex -2.4881 -33.675 0
      vertex -10 -26.175 0
      vertex -1.75935 -31.9156 0
    endloop
  endfacet
  facet normal 0 -1 0
    outer loop
      vertex -10 -41.175 8
      vertex -10 -41.175 0
      vertex 10 -41.175 8
    endloop
  endfacet
  facet normal 0 -1 0
    outer loop
      vertex 10 -41.175 8
      vertex 25 -41.175 55
      vertex 10 -41.175 55
    endloop
  endfacet
  facet normal 0 -1 0
    outer loop
      vertex 10 -41.175 8
      vertex 25 -41.175 0
      vertex 25 -41.175 55
    endloop
  endfacet
  facet normal 0 -1 0
    outer loop
      vertex 25 -41.175 0
      vertex 10 -41.175 8
      vertex -10 -41.175 0
    endloop
  endfacet
  facet normal -1 0 0
    outer loop
      vertex -10 26.175 0
      vertex -10 41.175 8
      vertex -10 41.175 0
    endloop
  endfacet
  facet normal -1 -0 0
    outer loop
      vertex -10 41.175 8
      vertex -10 26.175 0
      vertex -10 26.175 8
    endloop
  endfacet
  facet normal 0 0 1
    outer loop
      vertex 10 41.175 8
      vertex 4.49958 34.6314 8
      vertex 10 26.175 8
    endloop
  endfacet
  facet normal 0 0 1
    outer loop
      vertex 10 41.175 8
      vertex 3.72156 36.3789 8
      vertex 4.49958 34.6314 8
    endloop
  endfacet
  facet normal 0 0 1
    outer loop
      vertex 10 41.175 8
      vertex 2.30005 37.6588 8
      vertex 3.72156 36.3789 8
    endloop
  endfacet
  facet normal 0 0 1
    outer loop
      vertex 10 41.175 8
      vertex 0.480841 38.2499 8
      vertex 2.30005 37.6588 8
    endloop
  endfacet
  facet normal -0 0 1
    outer loop
      vertex -10 41.175 8
      vertex 0.480841 38.2499 8
      vertex 10 41.175 8
    endloop
  endfacet
  facet normal 0 0 1
    outer loop
      vertex -4.2024 35.546 8
      vertex -10 41.175 8
      vertex -4.6001 33.675 8
    endloop
  endfacet
  facet normal 0 0 1
    outer loop
      vertex -3.07807 37.0935 8
      vertex -10 41.175 8
      vertex -4.2024 35.546 8
    endloop
  endfacet
  facet normal 0 0 1
    outer loop
      vertex -1.42151 38.05 8
      vertex -10 41.175 8
      vertex -3.07807 37.0935 8
    endloop
  endfacet
  facet normal 0 0 1
    outer loop
      vertex 0.480841 38.2499 8
      vertex -10 41.175 8
      vertex -1.42151 38.05 8
    endloop
  endfacet
  facet normal -0 0 1
    outer loop
      vertex 4.49958 32.7186 8
      vertex 10 26.175 8
      vertex 4.49958 34.6314 8
    endloop
  endfacet
  facet normal -0 0 1
    outer loop
      vertex 3.72156 30.9711 8
      vertex 10 26.175 8
      vertex 4.49958 32.7186 8
    endloop
  endfacet
  facet normal -0 0 1
    outer loop
      vertex 2.30005 29.6912 8
      vertex 10 26.175 8
      vertex 3.72156 30.9711 8
    endloop
  endfacet
  facet normal -0 0 1
    outer loop
      vertex 0.480841 29.1001 8
      vertex 10 26.175 8
      vertex 2.30005 29.6912 8
    endloop
  endfacet
  facet normal 0 0 1
    outer loop
      vertex -10 26.175 8
      vertex 0.480841 29.1001 8
      vertex -1.42151 29.3 8
    endloop
  endfacet
  facet normal 0 0 1
    outer loop
      vertex -10 26.175 8
      vertex -4.6001 33.675 8
      vertex -10 41.175 8
    endloop
  endfacet
  facet normal 0 0 1
    outer loop
      vertex 0.480841 29.1001 8
      vertex -10 26.175 8
      vertex 10 26.175 8
    endloop
  endfacet
  facet normal 0 0 1
    outer loop
      vertex -3.07807 30.2565 8
      vertex -10 26.175 8
      vertex -1.42151 29.3 8
    endloop
  endfacet
  facet normal 0 0 1
    outer loop
      vertex -4.2024 31.804 8
      vertex -10 26.175 8
      vertex -3.07807 30.2565 8
    endloop
  endfacet
  facet normal 0 0 1
    outer loop
      vertex -4.6001 33.675 8
      vertex -10 26.175 8
      vertex -4.2024 31.804 8
    endloop
  endfacet
  facet normal 0 0 -1
    outer loop
      vertex 25 26.175 0
      vertex 2.4881 33.675 0
      vertex 25 41.175 0
    endloop
  endfacet
  facet normal 0 0 -1
    outer loop
      vertex 25 26.175 0
      vertex 1.75935 31.9156 0
      vertex 2.4881 33.675 0
    endloop
  endfacet
  facet normal 0 0 -1
    outer loop
      vertex 25 26.175 0
      vertex 6.12323e-16 31.1869 0
      vertex 1.75935 31.9156 0
    endloop
  endfacet
  facet normal -0 0 -1
    outer loop
      vertex -1.75935 31.9156 0
      vertex -10 26.175 0
      vertex -2.4881 33.675 0
    endloop
  endfacet
  facet normal -0 0 -1
    outer loop
      vertex 6.12323e-16 31.1869 0
      vertex -10 26.175 0
      vertex -1.75935 31.9156 0
    endloop
  endfacet
  facet normal 0 0 -1
    outer loop
      vertex -10 26.175 0
      vertex 6.12323e-16 31.1869 0
      vertex 25 26.175 0
    endloop
  endfacet
  facet normal 0 0 -1
    outer loop
      vertex 1.75935 35.4344 0
      vertex 25 41.175 0
      vertex 2.4881 33.675 0
    endloop
  endfacet
  facet normal 0 0 -1
    outer loop
      vertex 6.12323e-16 36.1631 0
      vertex 25 41.175 0
      vertex 1.75935 35.4344 0
    endloop
  endfacet
  facet normal 0 0 -1
    outer loop
      vertex -10 41.175 0
      vertex -2.4881 33.675 0
      vertex -10 26.175 0
    endloop
  endfacet
  facet normal 0 0 -1
    outer loop
      vertex 6.12323e-16 36.1631 0
      vertex -10 41.175 0
      vertex 25 41.175 0
    endloop
  endfacet
  facet normal 0 0 -1
    outer loop
      vertex -1.75935 35.4344 0
      vertex -10 41.175 0
      vertex 6.12323e-16 36.1631 0
    endloop
  endfacet
  facet normal 0 0 -1
    outer loop
      vertex -2.4881 33.675 0
      vertex -10 41.175 0
      vertex -1.75935 35.4344 0
    endloop
  endfacet
  facet normal 0 -1 0
    outer loop
      vertex -10 26.175 8
      vertex -10 26.175 0
      vertex 10 26.175 8
    endloop
  endfacet
  facet normal 0 -1 0
    outer loop
      vertex 10 26.175 8
      vertex 25 26.175 55
      vertex 10 26.175 55
    endloop
  endfacet
  facet normal 0 -1 0
    outer loop
      vertex 10 26.175 8
      vertex 25 26.175 0
      vertex 25 26.175 55
    endloop
  endfacet
  facet normal 0 -1 0
    outer loop
      vertex 25 26.175 0
      vertex 10 26.175 8
      vertex -10 26.175 0
    endloop
  endfacet
  facet normal 0 1 0
    outer loop
      vertex 25 41.175 55
      vertex 10 41.175 8
      vertex 10 41.175 55
    endloop
  endfacet
  facet normal 0 1 -0
    outer loop
      vertex 25 41.175 0
      vertex 10 41.175 8
      vertex 25 41.175 55
    endloop
  endfacet
  facet normal 0 1 0
    outer loop
      vertex -10 41.175 0
      vertex 10 41.175 8
      vertex 25 41.175 0
    endloop
  endfacet
  facet normal 0 1 0
    outer loop
      vertex 10 41.175 8
      vertex -10 41.175 0
      vertex -10 41.175 8
    endloop
  endfacet
  facet normal 0.978148 -0.207912 0
    outer loop
      vertex -4.6001 -33.675 8
      vertex -4.2024 -31.804 5
      vertex -4.2024 -31.804 8
    endloop
  endfacet
  facet normal 0.978148 -0.207912 0
    outer loop
      vertex -4.2024 -31.804 5
      vertex -4.6001 -33.675 8
      vertex -4.6001 -33.675 5
    endloop
  endfacet
  facet normal -1 0 0
    outer loop
      vertex 4.49958 -34.6314 5
      vertex 4.49958 -32.7186 8
      vertex 4.49958 -32.7186 5
    endloop
  endfacet
  facet normal -1 -0 0
    outer loop
      vertex 4.49958 -32.7186 8
      vertex 4.49958 -34.6314 5
      vertex 4.49958 -34.6314 8
    endloop
  endfacet
  facet normal 0.104529 -0.994522 0
    outer loop
      vertex -1.42151 -29.3 5
      vertex 0.480841 -29.1001 8
      vertex -1.42151 -29.3 8
    endloop
  endfacet
  facet normal 0.104529 -0.994522 0
    outer loop
      vertex 0.480841 -29.1001 8
      vertex -1.42151 -29.3 5
      vertex 0.480841 -29.1001 5
    endloop
  endfacet
  facet normal 0.809017 -0.587786 0
    outer loop
      vertex -4.2024 -31.804 8
      vertex -3.07807 -30.2565 5
      vertex -3.07807 -30.2565 8
    endloop
  endfacet
  facet normal 0.809017 -0.587786 0
    outer loop
      vertex -3.07807 -30.2565 5
      vertex -4.2024 -31.804 8
      vertex -4.2024 -31.804 5
    endloop
  endfacet
  facet normal 0.5 -0.866025 0
    outer loop
      vertex -3.07807 -30.2565 5
      vertex -1.42151 -29.3 8
      vertex -3.07807 -30.2565 8
    endloop
  endfacet
  facet normal 0.5 -0.866025 0
    outer loop
      vertex -1.42151 -29.3 8
      vertex -3.07807 -30.2565 5
      vertex -1.42151 -29.3 5
    endloop
  endfacet
  facet normal -0.309017 -0.951057 0
    outer loop
      vertex 0.480841 -29.1001 5
      vertex 2.30005 -29.6912 8
      vertex 0.480841 -29.1001 8
    endloop
  endfacet
  facet normal -0.309017 -0.951057 -0
    outer loop
      vertex 2.30005 -29.6912 8
      vertex 0.480841 -29.1001 5
      vertex 2.30005 -29.6912 5
    endloop
  endfacet
  facet normal -0.669131 -0.743145 0
    outer loop
      vertex 2.30005 -29.6912 5
      vertex 3.72156 -30.9711 8
      vertex 2.30005 -29.6912 8
    endloop
  endfacet
  facet normal -0.669131 -0.743145 -0
    outer loop
      vertex 3.72156 -30.9711 8
      vertex 2.30005 -29.6912 5
      vertex 3.72156 -30.9711 5
    endloop
  endfacet
  facet normal -0.913546 0.406736 0
    outer loop
      vertex 3.72156 -36.3789 5
      vertex 4.49958 -34.6314 8
      vertex 4.49958 -34.6314 5
    endloop
  endfacet
  facet normal -0.913546 0.406736 0
    outer loop
      vertex 4.49958 -34.6314 8
      vertex 3.72156 -36.3789 5
      vertex 3.72156 -36.3789 8
    endloop
  endfacet
  facet normal -0 0 1
    outer loop
      vertex 1.75935 -31.9156 5
      vertex 4.49958 -32.7186 5
      vertex 3.72156 -30.9711 5
    endloop
  endfacet
  facet normal 0 0 1
    outer loop
      vertex 4.49958 -32.7186 5
      vertex 2.4881 -33.675 5
      vertex 4.49958 -34.6314 5
    endloop
  endfacet
  facet normal 0 0 1
    outer loop
      vertex 1.75935 -35.4344 5
      vertex 4.49958 -34.6314 5
      vertex 2.4881 -33.675 5
    endloop
  endfacet
  facet normal 0 0 1
    outer loop
      vertex 1.75935 -31.9156 5
      vertex 3.72156 -30.9711 5
      vertex 2.30005 -29.6912 5
    endloop
  endfacet
  facet normal 0 0 1
    outer loop
      vertex 4.49958 -32.7186 5
      vertex 1.75935 -31.9156 5
      vertex 2.4881 -33.675 5
    endloop
  endfacet
  facet normal 0 0 1
    outer loop
      vertex 0 -31.1869 5
      vertex 2.30005 -29.6912 5
      vertex 0.480841 -29.1001 5
    endloop
  endfacet
  facet normal 0 0 1
    outer loop
      vertex 2.30005 -29.6912 5
      vertex 0 -31.1869 5
      vertex 1.75935 -31.9156 5
    endloop
  endfacet
  facet normal -0 0 1
    outer loop
      vertex -1.42151 -29.3 5
      vertex 0 -31.1869 5
      vertex 0.480841 -29.1001 5
    endloop
  endfacet
  facet normal 0 0 1
    outer loop
      vertex -1.42151 -29.3 5
      vertex -1.75935 -31.9156 5
      vertex 0 -31.1869 5
    endloop
  endfacet
  facet normal -0 0 1
    outer loop
      vertex -3.07807 -30.2565 5
      vertex -1.75935 -31.9156 5
      vertex -1.42151 -29.3 5
    endloop
  endfacet
  facet normal -0 0 1
    outer loop
      vertex -4.2024 -31.804 5
      vertex -1.75935 -31.9156 5
      vertex -3.07807 -30.2565 5
    endloop
  endfacet
  facet normal 0 0 1
    outer loop
      vertex 4.49958 -34.6314 5
      vertex 1.75935 -35.4344 5
      vertex 3.72156 -36.3789 5
    endloop
  endfacet
  facet normal 0 0 1
    outer loop
      vertex 3.72156 -36.3789 5
      vertex 1.75935 -35.4344 5
      vertex 2.30005 -37.6588 5
    endloop
  endfacet
  facet normal -0 0 1
    outer loop
      vertex 0 -36.1631 5
      vertex 2.30005 -37.6588 5
      vertex 1.75935 -35.4344 5
    endloop
  endfacet
  facet normal 0 0 1
    outer loop
      vertex 2.30005 -37.6588 5
      vertex 0 -36.1631 5
      vertex 0.480841 -38.2499 5
    endloop
  endfacet
  facet normal 0 0 1
    outer loop
      vertex 0 -36.1631 5
      vertex -1.42151 -38.05 5
      vertex 0.480841 -38.2499 5
    endloop
  endfacet
  facet normal 0 0 1
    outer loop
      vertex -1.75935 -35.4344 5
      vertex -1.42151 -38.05 5
      vertex 0 -36.1631 5
    endloop
  endfacet
  facet normal 0 0 1
    outer loop
      vertex -4.2024 -35.546 5
      vertex -1.75935 -35.4344 5
      vertex -2.4881 -33.675 5
    endloop
  endfacet
  facet normal 0 0 1
    outer loop
      vertex -1.75935 -35.4344 5
      vertex -3.07807 -37.0935 5
      vertex -1.42151 -38.05 5
    endloop
  endfacet
  facet normal 0 0 1
    outer loop
      vertex -1.75935 -31.9156 5
      vertex -4.2024 -31.804 5
      vertex -2.4881 -33.675 5
    endloop
  endfacet
  facet normal 0 0 1
    outer loop
      vertex -4.6001 -33.675 5
      vertex -2.4881 -33.675 5
      vertex -4.2024 -31.804 5
    endloop
  endfacet
  facet normal 0 0 1
    outer loop
      vertex -1.75935 -35.4344 5
      vertex -4.2024 -35.546 5
      vertex -3.07807 -37.0935 5
    endloop
  endfacet
  facet normal 0 0 1
    outer loop
      vertex -2.4881 -33.675 5
      vertex -4.6001 -33.675 5
      vertex -4.2024 -35.546 5
    endloop
  endfacet
  facet normal -0.913545 -0.406737 0
    outer loop
      vertex 4.49958 -32.7186 5
      vertex 3.72156 -30.9711 8
      vertex 3.72156 -30.9711 5
    endloop
  endfacet
  facet normal -0.913545 -0.406737 0
    outer loop
      vertex 3.72156 -30.9711 8
      vertex 4.49958 -32.7186 5
      vertex 4.49958 -32.7186 8
    endloop
  endfacet
  facet normal 0.5 0.866026 -0
    outer loop
      vertex -1.42151 -38.05 5
      vertex -3.07807 -37.0935 8
      vertex -1.42151 -38.05 8
    endloop
  endfacet
  facet normal 0.5 0.866026 0
    outer loop
      vertex -3.07807 -37.0935 8
      vertex -1.42151 -38.05 5
      vertex -3.07807 -37.0935 5
    endloop
  endfacet
  facet normal 0.809017 0.587785 0
    outer loop
      vertex -3.07807 -37.0935 8
      vertex -4.2024 -35.546 5
      vertex -4.2024 -35.546 8
    endloop
  endfacet
  facet normal 0.809017 0.587785 0
    outer loop
      vertex -4.2024 -35.546 5
      vertex -3.07807 -37.0935 8
      vertex -3.07807 -37.0935 5
    endloop
  endfacet
  facet normal 0.978148 0.207912 0
    outer loop
      vertex -4.2024 -35.546 8
      vertex -4.6001 -33.675 5
      vertex -4.6001 -33.675 8
    endloop
  endfacet
  facet normal 0.978148 0.207912 0
    outer loop
      vertex -4.6001 -33.675 5
      vertex -4.2024 -35.546 8
      vertex -4.2024 -35.546 5
    endloop
  endfacet
  facet normal -0.66913 0.743145 0
    outer loop
      vertex 3.72156 -36.3789 5
      vertex 2.30005 -37.6588 8
      vertex 3.72156 -36.3789 8
    endloop
  endfacet
  facet normal -0.66913 0.743145 0
    outer loop
      vertex 2.30005 -37.6588 8
      vertex 3.72156 -36.3789 5
      vertex 2.30005 -37.6588 5
    endloop
  endfacet
  facet normal 0.10453 0.994522 -0
    outer loop
      vertex 0.480841 -38.2499 5
      vertex -1.42151 -38.05 8
      vertex 0.480841 -38.2499 8
    endloop
  endfacet
  facet normal 0.10453 0.994522 0
    outer loop
      vertex -1.42151 -38.05 8
      vertex 0.480841 -38.2499 5
      vertex -1.42151 -38.05 5
    endloop
  endfacet
  facet normal -0.309018 0.951056 0
    outer loop
      vertex 2.30005 -37.6588 5
      vertex 0.480841 -38.2499 8
      vertex 2.30005 -37.6588 8
    endloop
  endfacet
  facet normal -0.309018 0.951056 0
    outer loop
      vertex 0.480841 -38.2499 8
      vertex 2.30005 -37.6588 5
      vertex 0.480841 -38.2499 5
    endloop
  endfacet
  facet normal 0.92388 -0.382683 0
    outer loop
      vertex -2.4881 -33.675 5
      vertex -1.75935 -31.9156 0
      vertex -1.75935 -31.9156 5
    endloop
  endfacet
  facet normal 0.92388 -0.382683 0
    outer loop
      vertex -1.75935 -31.9156 0
      vertex -2.4881 -33.675 5
      vertex -2.4881 -33.675 0
    endloop
  endfacet
  facet normal -0.92388 -0.382683 0
    outer loop
      vertex 2.4881 -33.675 0
      vertex 1.75935 -31.9156 5
      vertex 1.75935 -31.9156 0
    endloop
  endfacet
  facet normal -0.92388 -0.382683 0
    outer loop
      vertex 1.75935 -31.9156 5
      vertex 2.4881 -33.675 0
      vertex 2.4881 -33.675 5
    endloop
  endfacet
  facet normal 0.382683 -0.92388 0
    outer loop
      vertex -1.75935 -31.9156 0
      vertex 0 -31.1869 5
      vertex -1.75935 -31.9156 5
    endloop
  endfacet
  facet normal 0.382683 -0.92388 4.68652e-17
    outer loop
      vertex 0 -31.1869 5
      vertex -1.75935 -31.9156 0
      vertex 6.12323e-16 -31.1869 0
    endloop
  endfacet
  facet normal -0.382683 -0.92388 -4.68652e-17
    outer loop
      vertex 6.12323e-16 -31.1869 0
      vertex 1.75935 -31.9156 5
      vertex 0 -31.1869 5
    endloop
  endfacet
  facet normal -0.382683 -0.92388 -0
    outer loop
      vertex 1.75935 -31.9156 5
      vertex 6.12323e-16 -31.1869 0
      vertex 1.75935 -31.9156 0
    endloop
  endfacet
  facet normal 0.382682 0.92388 4.6865e-17
    outer loop
      vertex 6.12323e-16 -36.1631 0
      vertex -1.75935 -35.4344 5
      vertex 0 -36.1631 5
    endloop
  endfacet
  facet normal 0.382682 0.92388 0
    outer loop
      vertex -1.75935 -35.4344 5
      vertex 6.12323e-16 -36.1631 0
      vertex -1.75935 -35.4344 0
    endloop
  endfacet
  facet normal -0.92388 0.382683 0
    outer loop
      vertex 1.75935 -35.4344 0
      vertex 2.4881 -33.675 5
      vertex 2.4881 -33.675 0
    endloop
  endfacet
  facet normal -0.92388 0.382683 0
    outer loop
      vertex 2.4881 -33.675 5
      vertex 1.75935 -35.4344 0
      vertex 1.75935 -35.4344 5
    endloop
  endfacet
  facet normal -0.382682 0.92388 0
    outer loop
      vertex 1.75935 -35.4344 0
      vertex 0 -36.1631 5
      vertex 1.75935 -35.4344 5
    endloop
  endfacet
  facet normal -0.382682 0.92388 -4.6865e-17
    outer loop
      vertex 0 -36.1631 5
      vertex 1.75935 -35.4344 0
      vertex 6.12323e-16 -36.1631 0
    endloop
  endfacet
  facet normal 0.92388 0.382683 0
    outer loop
      vertex -1.75935 -35.4344 5
      vertex -2.4881 -33.675 0
      vertex -2.4881 -33.675 5
    endloop
  endfacet
  facet normal 0.92388 0.382683 0
    outer loop
      vertex -2.4881 -33.675 0
      vertex -1.75935 -35.4344 5
      vertex -1.75935 -35.4344 0
    endloop
  endfacet
  facet normal 0.978148 -0.207912 0
    outer loop
      vertex -4.6001 33.675 8
      vertex -4.2024 35.546 5
      vertex -4.2024 35.546 8
    endloop
  endfacet
  facet normal 0.978148 -0.207912 0
    outer loop
      vertex -4.2024 35.546 5
      vertex -4.6001 33.675 8
      vertex -4.6001 33.675 5
    endloop
  endfacet
  facet normal -1 0 0
    outer loop
      vertex 4.49958 32.7186 5
      vertex 4.49958 34.6314 8
      vertex 4.49958 34.6314 5
    endloop
  endfacet
  facet normal -1 -0 0
    outer loop
      vertex 4.49958 34.6314 8
      vertex 4.49958 32.7186 5
      vertex 4.49958 32.7186 8
    endloop
  endfacet
  facet normal 0.10453 -0.994522 0
    outer loop
      vertex -1.42151 38.05 5
      vertex 0.480841 38.2499 8
      vertex -1.42151 38.05 8
    endloop
  endfacet
  facet normal 0.10453 -0.994522 0
    outer loop
      vertex 0.480841 38.2499 8
      vertex -1.42151 38.05 5
      vertex 0.480841 38.2499 5
    endloop
  endfacet
  facet normal 0.809017 -0.587785 0
    outer loop
      vertex -4.2024 35.546 8
      vertex -3.07807 37.0935 5
      vertex -3.07807 37.0935 8
    endloop
  endfacet
  facet normal 0.809017 -0.587785 0
    outer loop
      vertex -3.07807 37.0935 5
      vertex -4.2024 35.546 8
      vertex -4.2024 35.546 5
    endloop
  endfacet
  facet normal 0.5 -0.866026 0
    outer loop
      vertex -3.07807 37.0935 5
      vertex -1.42151 38.05 8
      vertex -3.07807 37.0935 8
    endloop
  endfacet
  facet normal 0.5 -0.866026 0
    outer loop
      vertex -1.42151 38.05 8
      vertex -3.07807 37.0935 5
      vertex -1.42151 38.05 5
    endloop
  endfacet
  facet normal -0.309018 -0.951056 0
    outer loop
      vertex 0.480841 38.2499 5
      vertex 2.30005 37.6588 8
      vertex 0.480841 38.2499 8
    endloop
  endfacet
  facet normal -0.309018 -0.951056 -0
    outer loop
      vertex 2.30005 37.6588 8
      vertex 0.480841 38.2499 5
      vertex 2.30005 37.6588 5
    endloop
  endfacet
  facet normal -0.66913 -0.743145 0
    outer loop
      vertex 2.30005 37.6588 5
      vertex 3.72156 36.3789 8
      vertex 2.30005 37.6588 8
    endloop
  endfacet
  facet normal -0.66913 -0.743145 -0
    outer loop
      vertex 3.72156 36.3789 8
      vertex 2.30005 37.6588 5
      vertex 3.72156 36.3789 5
    endloop
  endfacet
  facet normal -0.913545 0.406737 0
    outer loop
      vertex 3.72156 30.9711 5
      vertex 4.49958 32.7186 8
      vertex 4.49958 32.7186 5
    endloop
  endfacet
  facet normal -0.913545 0.406737 0
    outer loop
      vertex 4.49958 32.7186 8
      vertex 3.72156 30.9711 5
      vertex 3.72156 30.9711 8
    endloop
  endfacet
  facet normal -0 0 1
    outer loop
      vertex 1.75935 35.4344 5
      vertex 4.49958 34.6314 5
      vertex 3.72156 36.3789 5
    endloop
  endfacet
  facet normal 0 0 1
    outer loop
      vertex 4.49958 34.6314 5
      vertex 2.4881 33.675 5
      vertex 4.49958 32.7186 5
    endloop
  endfacet
  facet normal 0 0 1
    outer loop
      vertex 1.75935 31.9156 5
      vertex 4.49958 32.7186 5
      vertex 2.4881 33.675 5
    endloop
  endfacet
  facet normal 0 0 1
    outer loop
      vertex 1.75935 35.4344 5
      vertex 3.72156 36.3789 5
      vertex 2.30005 37.6588 5
    endloop
  endfacet
  facet normal 0 0 1
    outer loop
      vertex 4.49958 34.6314 5
      vertex 1.75935 35.4344 5
      vertex 2.4881 33.675 5
    endloop
  endfacet
  facet normal 0 0 1
    outer loop
      vertex 0 36.1631 5
      vertex 2.30005 37.6588 5
      vertex 0.480841 38.2499 5
    endloop
  endfacet
  facet normal 0 0 1
    outer loop
      vertex 2.30005 37.6588 5
      vertex 0 36.1631 5
      vertex 1.75935 35.4344 5
    endloop
  endfacet
  facet normal -0 0 1
    outer loop
      vertex -1.42151 38.05 5
      vertex 0 36.1631 5
      vertex 0.480841 38.2499 5
    endloop
  endfacet
  facet normal 0 0 1
    outer loop
      vertex -1.42151 38.05 5
      vertex -1.75935 35.4344 5
      vertex 0 36.1631 5
    endloop
  endfacet
  facet normal -0 0 1
    outer loop
      vertex -3.07807 37.0935 5
      vertex -1.75935 35.4344 5
      vertex -1.42151 38.05 5
    endloop
  endfacet
  facet normal -0 0 1
    outer loop
      vertex -4.2024 35.546 5
      vertex -1.75935 35.4344 5
      vertex -3.07807 37.0935 5
    endloop
  endfacet
  facet normal 0 0 1
    outer loop
      vertex 4.49958 32.7186 5
      vertex 1.75935 31.9156 5
      vertex 3.72156 30.9711 5
    endloop
  endfacet
  facet normal 0 0 1
    outer loop
      vertex 3.72156 30.9711 5
      vertex 1.75935 31.9156 5
      vertex 2.30005 29.6912 5
    endloop
  endfacet
  facet normal -0 0 1
    outer loop
      vertex 0 31.1869 5
      vertex 2.30005 29.6912 5
      vertex 1.75935 31.9156 5
    endloop
  endfacet
  facet normal 0 0 1
    outer loop
      vertex 2.30005 29.6912 5
      vertex 0 31.1869 5
      vertex 0.480841 29.1001 5
    endloop
  endfacet
  facet normal 0 0 1
    outer loop
      vertex 0 31.1869 5
      vertex -1.42151 29.3 5
      vertex 0.480841 29.1001 5
    endloop
  endfacet
  facet normal 0 0 1
    outer loop
      vertex -1.75935 31.9156 5
      vertex -1.42151 29.3 5
      vertex 0 31.1869 5
    endloop
  endfacet
  facet normal 0 0 1
    outer loop
      vertex -4.2024 31.804 5
      vertex -1.75935 31.9156 5
      vertex -2.4881 33.675 5
    endloop
  endfacet
  facet normal 0 0 1
    outer loop
      vertex -1.75935 31.9156 5
      vertex -3.07807 30.2565 5
      vertex -1.42151 29.3 5
    endloop
  endfacet
  facet normal 0 0 1
    outer loop
      vertex -1.75935 35.4344 5
      vertex -4.2024 35.546 5
      vertex -2.4881 33.675 5
    endloop
  endfacet
  facet normal 0 0 1
    outer loop
      vertex -4.6001 33.675 5
      vertex -2.4881 33.675 5
      vertex -4.2024 35.546 5
    endloop
  endfacet
  facet normal 0 0 1
    outer loop
      vertex -1.75935 31.9156 5
      vertex -4.2024 31.804 5
      vertex -3.07807 30.2565 5
    endloop
  endfacet
  facet normal 0 0 1
    outer loop
      vertex -2.4881 33.675 5
      vertex -4.6001 33.675 5
      vertex -4.2024 31.804 5
    endloop
  endfacet
  facet normal -0.913546 -0.406736 0
    outer loop
      vertex 4.49958 34.6314 5
      vertex 3.72156 36.3789 8
      vertex 3.72156 36.3789 5
    endloop
  endfacet
  facet normal -0.913546 -0.406736 0
    outer loop
      vertex 3.72156 36.3789 8
      vertex 4.49958 34.6314 5
      vertex 4.49958 34.6314 8
    endloop
  endfacet
  facet normal 0.5 0.866025 -0
    outer loop
      vertex -1.42151 29.3 5
      vertex -3.07807 30.2565 8
      vertex -1.42151 29.3 8
    endloop
  endfacet
  facet normal 0.5 0.866025 0
    outer loop
      vertex -3.07807 30.2565 8
      vertex -1.42151 29.3 5
      vertex -3.07807 30.2565 5
    endloop
  endfacet
  facet normal 0.809017 0.587786 0
    outer loop
      vertex -3.07807 30.2565 8
      vertex -4.2024 31.804 5
      vertex -4.2024 31.804 8
    endloop
  endfacet
  facet normal 0.809017 0.587786 0
    outer loop
      vertex -4.2024 31.804 5
      vertex -3.07807 30.2565 8
      vertex -3.07807 30.2565 5
    endloop
  endfacet
  facet normal 0.978148 0.207912 0
    outer loop
      vertex -4.2024 31.804 8
      vertex -4.6001 33.675 5
      vertex -4.6001 33.675 8
    endloop
  endfacet
  facet normal 0.978148 0.207912 0
    outer loop
      vertex -4.6001 33.675 5
      vertex -4.2024 31.804 8
      vertex -4.2024 31.804 5
    endloop
  endfacet
  facet normal -0.669131 0.743145 0
    outer loop
      vertex 3.72156 30.9711 5
      vertex 2.30005 29.6912 8
      vertex 3.72156 30.9711 8
    endloop
  endfacet
  facet normal -0.669131 0.743145 0
    outer loop
      vertex 2.30005 29.6912 8
      vertex 3.72156 30.9711 5
      vertex 2.30005 29.6912 5
    endloop
  endfacet
  facet normal 0.104529 0.994522 -0
    outer loop
      vertex 0.480841 29.1001 5
      vertex -1.42151 29.3 8
      vertex 0.480841 29.1001 8
    endloop
  endfacet
  facet normal 0.104529 0.994522 0
    outer loop
      vertex -1.42151 29.3 8
      vertex 0.480841 29.1001 5
      vertex -1.42151 29.3 5
    endloop
  endfacet
  facet normal -0.309017 0.951057 0
    outer loop
      vertex 2.30005 29.6912 5
      vertex 0.480841 29.1001 8
      vertex 2.30005 29.6912 8
    endloop
  endfacet
  facet normal -0.309017 0.951057 0
    outer loop
      vertex 0.480841 29.1001 8
      vertex 2.30005 29.6912 5
      vertex 0.480841 29.1001 5
    endloop
  endfacet
  facet normal 0.92388 -0.382683 0
    outer loop
      vertex -2.4881 33.675 5
      vertex -1.75935 35.4344 0
      vertex -1.75935 35.4344 5
    endloop
  endfacet
  facet normal 0.92388 -0.382683 0
    outer loop
      vertex -1.75935 35.4344 0
      vertex -2.4881 33.675 5
      vertex -2.4881 33.675 0
    endloop
  endfacet
  facet normal -0.92388 -0.382683 0
    outer loop
      vertex 2.4881 33.675 0
      vertex 1.75935 35.4344 5
      vertex 1.75935 35.4344 0
    endloop
  endfacet
  facet normal -0.92388 -0.382683 0
    outer loop
      vertex 1.75935 35.4344 5
      vertex 2.4881 33.675 0
      vertex 2.4881 33.675 5
    endloop
  endfacet
  facet normal 0.382682 -0.92388 0
    outer loop
      vertex -1.75935 35.4344 0
      vertex 0 36.1631 5
      vertex -1.75935 35.4344 5
    endloop
  endfacet
  facet normal 0.382682 -0.92388 4.6865e-17
    outer loop
      vertex 0 36.1631 5
      vertex -1.75935 35.4344 0
      vertex 6.12323e-16 36.1631 0
    endloop
  endfacet
  facet normal -0.382682 -0.92388 -4.6865e-17
    outer loop
      vertex 6.12323e-16 36.1631 0
      vertex 1.75935 35.4344 5
      vertex 0 36.1631 5
    endloop
  endfacet
  facet normal -0.382682 -0.92388 -0
    outer loop
      vertex 1.75935 35.4344 5
      vertex 6.12323e-16 36.1631 0
      vertex 1.75935 35.4344 0
    endloop
  endfacet
  facet normal 0.382683 0.92388 4.68652e-17
    outer loop
      vertex 6.12323e-16 31.1869 0
      vertex -1.75935 31.9156 5
      vertex 0 31.1869 5
    endloop
  endfacet
  facet normal 0.382683 0.92388 0
    outer loop
      vertex -1.75935 31.9156 5
      vertex 6.12323e-16 31.1869 0
      vertex -1.75935 31.9156 0
    endloop
  endfacet
  facet normal -0.92388 0.382683 0
    outer loop
      vertex 1.75935 31.9156 0
      vertex 2.4881 33.675 5
      vertex 2.4881 33.675 0
    endloop
  endfacet
  facet normal -0.92388 0.382683 0
    outer loop
      vertex 2.4881 33.675 5
      vertex 1.75935 31.9156 0
      vertex 1.75935 31.9156 5
    endloop
  endfacet
  facet normal -0.382683 0.92388 0
    outer loop
      vertex 1.75935 31.9156 0
      vertex 0 31.1869 5
      vertex 1.75935 31.9156 5
    endloop
  endfacet
  facet normal -0.382683 0.92388 -4.68652e-17
    outer loop
      vertex 0 31.1869 5
      vertex 1.75935 31.9156 0
      vertex 6.12323e-16 31.1869 0
    endloop
  endfacet
  facet normal 0.92388 0.382683 0
    outer loop
      vertex -1.75935 31.9156 5
      vertex -2.4881 33.675 0
      vertex -2.4881 33.675 5
    endloop
  endfacet
  facet normal 0.92388 0.382683 0
    outer loop
      vertex -2.4881 33.675 0
      vertex -1.75935 31.9156 5
      vertex -1.75935 31.9156 0
    endloop
  endfacet
  facet normal -1 0 0
    outer loop
      vertex 10 -26.175 8
      vertex 10 -41.175 8
      vertex 10 -26.175 55
    endloop
  endfacet
  facet normal -1 0 0
    outer loop
      vertex 10 41.175 8
      vertex 10 26.175 8
      vertex 10 41.175 55
    endloop
  endfacet
  facet normal -1 0 0
    outer loop
      vertex 10 41.175 55
      vertex 10 54.215 70
      vertex 10 54.215 55
    endloop
  endfacet
  facet normal -1 0 0
    outer loop
      vertex 10 26.175 55
      vertex 10 41.175 55
      vertex 10 26.175 8
    endloop
  endfacet
  facet normal -1 0 0
    outer loop
      vertex 10 26.175 55
      vertex 10 54.215 70
      vertex 10 41.175 55
    endloop
  endfacet
  facet normal -1 0 0
    outer loop
      vertex 10 -26.175 55
      vertex 10 54.215 70
      vertex 10 26.175 55
    endloop
  endfacet
  facet normal -1 0 0
    outer loop
      vertex 10 -41.175 55
      vertex 10 -26.175 55
      vertex 10 -41.175 8
    endloop
  endfacet
  facet normal -1 0 0
    outer loop
      vertex 10 -54.215 70
      vertex 10 -26.175 55
      vertex 10 -41.175 55
    endloop
  endfacet
  facet normal -1 0 0
    outer loop
      vertex 10 -54.215 70
      vertex 10 -41.175 55
      vertex 10 -54.215 55
    endloop
  endfacet
  facet normal -1 0 0
    outer loop
      vertex 10 -26.175 55
      vertex 10 -54.215 70
      vertex 10 54.215 70
    endloop
  endfacet
  facet normal 0 0 1
    outer loop
      vertex 10 -54.215 70
      vertex -20.4044 -59.2965 70
      vertex -19.4295 -60.8134 70
    endloop
  endfacet
  facet normal 0 0 1
    outer loop
      vertex 10 -54.215 70
      vertex -22.0446 -58.5475 70
      vertex -20.4044 -59.2965 70
    endloop
  endfacet
  facet normal 0 0 1
    outer loop
      vertex -25.1921 -59.9849 70
      vertex -40 -54.215 70
      vertex -25.7001 -61.715 70
    endloop
  endfacet
  facet normal 0 0 1
    outer loop
      vertex -23.8294 -58.8041 70
      vertex -40 -54.215 70
      vertex -25.1921 -59.9849 70
    endloop
  endfacet
  facet normal 0 0 1
    outer loop
      vertex -22.0446 -58.5475 70
      vertex -40 -54.215 70
      vertex -23.8294 -58.8041 70
    endloop
  endfacet
  facet normal -0 0 1
    outer loop
      vertex -40 -54.215 70
      vertex -22.0446 -58.5475 70
      vertex 10 -54.215 70
    endloop
  endfacet
  facet normal -0 0 1
    outer loop
      vertex 19.5956 59.2965 70
      vertex 20.5705 -60.8134 70
      vertex 20.5705 60.8134 70
    endloop
  endfacet
  facet normal 0 0 1
    outer loop
      vertex 19.5956 59.2965 70
      vertex 19.5956 -59.2965 70
      vertex 20.5705 -60.8134 70
    endloop
  endfacet
  facet normal -0 0 1
    outer loop
      vertex 17.9554 58.5475 70
      vertex 19.5956 -59.2965 70
      vertex 19.5956 59.2965 70
    endloop
  endfacet
  facet normal 0 0 1
    outer loop
      vertex 17.9554 58.5475 70
      vertex 17.9554 -58.5475 70
      vertex 19.5956 -59.2965 70
    endloop
  endfacet
  facet normal 0 0 1
    outer loop
      vertex 10 54.215 70
      vertex 17.9554 58.5475 70
      vertex 16.1706 58.8041 70
    endloop
  endfacet
  facet normal 0 0 1
    outer loop
      vertex 17.9554 58.5475 70
      vertex 10 54.215 70
      vertex 17.9554 -58.5475 70
    endloop
  endfacet
  facet normal 0 0 1
    outer loop
      vertex 10 54.215 70
      vertex 16.1706 58.8041 70
      vertex 14.8079 59.9849 70
    endloop
  endfacet
  facet normal -0 0 1
    outer loop
      vertex 10 -54.215 70
      vertex 17.9554 -58.5475 70
      vertex 10 54.215 70
    endloop
  endfacet
  facet normal 0 0 1
    outer loop
      vertex 10 54.215 70
      vertex 14.8079 59.9849 70
      vertex 14.2999 61.715 70
    endloop
  endfacet
  facet normal 0 0 1
    outer loop
      vertex 17.9554 -58.5475 70
      vertex 10 -54.215 70
      vertex 16.1706 -58.8041 70
    endloop
  endfacet
  facet normal 0 0 1
    outer loop
      vertex 20.5705 60.8134 70
      vertex 25 69.215 70
      vertex 20.5705 62.6166 70
    endloop
  endfacet
  facet normal 0 0 1
    outer loop
      vertex 25 69.215 70
      vertex 19.5956 64.1335 70
      vertex 20.5705 62.6166 70
    endloop
  endfacet
  facet normal 0 0 1
    outer loop
      vertex 25 69.215 70
      vertex 17.9554 64.8825 70
      vertex 19.5956 64.1335 70
    endloop
  endfacet
  facet normal 0 0 1
    outer loop
      vertex 25 69.215 70
      vertex 16.1706 64.6259 70
      vertex 17.9554 64.8825 70
    endloop
  endfacet
  facet normal 0 0 1
    outer loop
      vertex 16.1706 -58.8041 70
      vertex 10 -54.215 70
      vertex 14.8079 -59.9849 70
    endloop
  endfacet
  facet normal -0 0 1
    outer loop
      vertex -19.4295 62.6166 70
      vertex 14.2999 61.715 70
      vertex 14.8079 63.4451 70
    endloop
  endfacet
  facet normal 0 0 1
    outer loop
      vertex 14.2999 61.715 70
      vertex -19.4295 62.6166 70
      vertex 10 54.215 70
    endloop
  endfacet
  facet normal -0 0 1
    outer loop
      vertex -20.4044 64.1335 70
      vertex 14.8079 63.4451 70
      vertex 16.1706 64.6259 70
    endloop
  endfacet
  facet normal -0 0 1
    outer loop
      vertex -22.0446 64.8825 70
      vertex 16.1706 64.6259 70
      vertex 25 69.215 70
    endloop
  endfacet
  facet normal 0 0 1
    outer loop
      vertex 14.8079 63.4451 70
      vertex -20.4044 64.1335 70
      vertex -19.4295 62.6166 70
    endloop
  endfacet
  facet normal 0 0 1
    outer loop
      vertex 16.1706 64.6259 70
      vertex -22.0446 64.8825 70
      vertex -20.4044 64.1335 70
    endloop
  endfacet
  facet normal 0 0 1
    outer loop
      vertex -25.1921 63.4451 70
      vertex -40 69.215 70
      vertex -25.7001 61.715 70
    endloop
  endfacet
  facet normal 0 0 1
    outer loop
      vertex -23.8294 64.6259 70
      vertex -40 69.215 70
      vertex -25.1921 63.4451 70
    endloop
  endfacet
  facet normal 0 0 1
    outer loop
      vertex -22.0446 64.8825 70
      vertex -40 69.215 70
      vertex -23.8294 64.6259 70
    endloop
  endfacet
  facet normal -0 0 1
    outer loop
      vertex -40 69.215 70
      vertex -22.0446 64.8825 70
      vertex 25 69.215 70
    endloop
  endfacet
  facet normal 0 0 1
    outer loop
      vertex 25 69.215 70
      vertex 20.5705 60.8134 70
      vertex 25 -69.215 70
    endloop
  endfacet
  facet normal -0 0 1
    outer loop
      vertex 20.5705 -60.8134 70
      vertex 25 -69.215 70
      vertex 20.5705 60.8134 70
    endloop
  endfacet
  facet normal -0 0 1
    outer loop
      vertex 20.5705 -62.6166 70
      vertex 25 -69.215 70
      vertex 20.5705 -60.8134 70
    endloop
  endfacet
  facet normal -0 0 1
    outer loop
      vertex 19.5956 -64.1335 70
      vertex 25 -69.215 70
      vertex 20.5705 -62.6166 70
    endloop
  endfacet
  facet normal -0 0 1
    outer loop
      vertex 17.9554 -64.8825 70
      vertex 25 -69.215 70
      vertex 19.5956 -64.1335 70
    endloop
  endfacet
  facet normal 0 0 1
    outer loop
      vertex 16.1706 -64.6259 70
      vertex 25 -69.215 70
      vertex 17.9554 -64.8825 70
    endloop
  endfacet
  facet normal 0 0 1
    outer loop
      vertex 14.8079 -59.9849 70
      vertex 10 -54.215 70
      vertex 14.2999 -61.715 70
    endloop
  endfacet
  facet normal 0 0 1
    outer loop
      vertex -19.4295 -62.6166 70
      vertex 14.2999 -61.715 70
      vertex 10 -54.215 70
    endloop
  endfacet
  facet normal 0 0 1
    outer loop
      vertex -19.4295 -62.6166 70
      vertex 10 -54.215 70
      vertex -19.4295 -60.8134 70
    endloop
  endfacet
  facet normal 0 0 1
    outer loop
      vertex 14.2999 -61.715 70
      vertex -19.4295 -62.6166 70
      vertex 14.8079 -63.4451 70
    endloop
  endfacet
  facet normal 0 0 1
    outer loop
      vertex -20.4044 -64.1335 70
      vertex 14.8079 -63.4451 70
      vertex -19.4295 -62.6166 70
    endloop
  endfacet
  facet normal 0 0 1
    outer loop
      vertex 14.8079 -63.4451 70
      vertex -20.4044 -64.1335 70
      vertex 16.1706 -64.6259 70
    endloop
  endfacet
  facet normal 0 0 1
    outer loop
      vertex -22.0446 -64.8825 70
      vertex 16.1706 -64.6259 70
      vertex -20.4044 -64.1335 70
    endloop
  endfacet
  facet normal 0 0 1
    outer loop
      vertex 16.1706 -64.6259 70
      vertex -22.0446 -64.8825 70
      vertex 25 -69.215 70
    endloop
  endfacet
  facet normal 0 0 1
    outer loop
      vertex -40 -69.215 70
      vertex -25.7001 -61.715 70
      vertex -40 -54.215 70
    endloop
  endfacet
  facet normal 0 0 1
    outer loop
      vertex -25.7001 -61.715 70
      vertex -40 -69.215 70
      vertex -25.1921 -63.4451 70
    endloop
  endfacet
  facet normal 0 0 1
    outer loop
      vertex -22.0446 -64.8825 70
      vertex -40 -69.215 70
      vertex 25 -69.215 70
    endloop
  endfacet
  facet normal 0 0 1
    outer loop
      vertex -23.8294 -64.6259 70
      vertex -40 -69.215 70
      vertex -22.0446 -64.8825 70
    endloop
  endfacet
  facet normal 0 0 1
    outer loop
      vertex -25.1921 -63.4451 70
      vertex -40 -69.215 70
      vertex -23.8294 -64.6259 70
    endloop
  endfacet
  facet normal -0 0 1
    outer loop
      vertex -19.4295 60.8134 70
      vertex 10 54.215 70
      vertex -19.4295 62.6166 70
    endloop
  endfacet
  facet normal -0 0 1
    outer loop
      vertex -20.4044 59.2965 70
      vertex 10 54.215 70
      vertex -19.4295 60.8134 70
    endloop
  endfacet
  facet normal -0 0 1
    outer loop
      vertex -22.0446 58.5475 70
      vertex 10 54.215 70
      vertex -20.4044 59.2965 70
    endloop
  endfacet
  facet normal 0 0 1
    outer loop
      vertex -40 54.215 70
      vertex -25.7001 61.715 70
      vertex -40 69.215 70
    endloop
  endfacet
  facet normal 0 0 1
    outer loop
      vertex -25.7001 61.715 70
      vertex -40 54.215 70
      vertex -25.1921 59.9849 70
    endloop
  endfacet
  facet normal 0 0 1
    outer loop
      vertex -22.0446 58.5475 70
      vertex -40 54.215 70
      vertex 10 54.215 70
    endloop
  endfacet
  facet normal 0 0 1
    outer loop
      vertex -23.8294 58.8041 70
      vertex -40 54.215 70
      vertex -22.0446 58.5475 70
    endloop
  endfacet
  facet normal 0 0 1
    outer loop
      vertex -25.1921 59.9849 70
      vertex -40 54.215 70
      vertex -23.8294 58.8041 70
    endloop
  endfacet
  facet normal 1 0 0
    outer loop
      vertex 25 69.215 70
      vertex 25 41.175 55
      vertex 25 69.215 55
    endloop
  endfacet
  facet normal 1 0 0
    outer loop
      vertex 25 41.175 55
      vertex 25 26.175 55
      vertex 25 41.175 0
    endloop
  endfacet
  facet normal 1 0 0
    outer loop
      vertex 25 69.215 70
      vertex 25 26.175 55
      vertex 25 41.175 55
    endloop
  endfacet
  facet normal 1 0 0
    outer loop
      vertex 25 69.215 70
      vertex 25 -26.175 55
      vertex 25 26.175 55
    endloop
  endfacet
  facet normal 1 0 0
    outer loop
      vertex 25 -26.175 55
      vertex 25 -41.175 55
      vertex 25 -26.175 0
    endloop
  endfacet
  facet normal 1 -0 0
    outer loop
      vertex 25 -69.215 70
      vertex 25 -26.175 55
      vertex 25 69.215 70
    endloop
  endfacet
  facet normal 1 0 0
    outer loop
      vertex 25 -26.175 55
      vertex 25 -69.215 70
      vertex 25 -41.175 55
    endloop
  endfacet
  facet normal 1 0 0
    outer loop
      vertex 25 -41.175 55
      vertex 25 -69.215 70
      vertex 25 -69.215 55
    endloop
  endfacet
  facet normal 1 0 0
    outer loop
      vertex 25 41.175 0
      vertex 25 26.175 55
      vertex 25 26.175 0
    endloop
  endfacet
  facet normal 1 0 0
    outer loop
      vertex 25 -26.175 0
      vertex 25 -41.175 55
      vertex 25 -41.175 0
    endloop
  endfacet
  facet normal 0 0 -1
    outer loop
      vertex 25 -69.215 55
      vertex 20.7001 -61.715 55
      vertex 25 -41.175 55
    endloop
  endfacet
  facet normal 0 0 -1
    outer loop
      vertex 25 -69.215 55
      vertex 19.1 -64.4864 55
      vertex 20.7001 -61.715 55
    endloop
  endfacet
  facet normal 0 0 -1
    outer loop
      vertex 25 -69.215 55
      vertex 15.8999 -64.4864 55
      vertex 19.1 -64.4864 55
    endloop
  endfacet
  facet normal -0 0 -1
    outer loop
      vertex 14.2999 -61.715 55
      vertex -21.2945 -62.5909 55
      vertex 10 -54.215 55
    endloop
  endfacet
  facet normal 0 0 -1
    outer loop
      vertex 15.8999 -64.4864 55
      vertex -21.2945 -62.5909 55
      vertex 14.2999 -61.715 55
    endloop
  endfacet
  facet normal 0 0 -1
    outer loop
      vertex -22.9605 -63.1322 55
      vertex 15.8999 -64.4864 55
      vertex 25 -69.215 55
    endloop
  endfacet
  facet normal 0 0 -1
    outer loop
      vertex 15.8999 -64.4864 55
      vertex -22.9605 -63.1322 55
      vertex -21.2945 -62.5909 55
    endloop
  endfacet
  facet normal -0 0 -1
    outer loop
      vertex -22.9605 -63.1322 55
      vertex -40 -69.215 55
      vertex -23.9901 -61.715 55
    endloop
  endfacet
  facet normal 0 0 -1
    outer loop
      vertex -40 -69.215 55
      vertex -22.9605 -63.1322 55
      vertex 25 -69.215 55
    endloop
  endfacet
  facet normal 0 0 -1
    outer loop
      vertex 19.1 -58.9436 55
      vertex 25 -41.175 55
      vertex 20.7001 -61.715 55
    endloop
  endfacet
  facet normal 0 0 -1
    outer loop
      vertex 10 -54.215 55
      vertex 19.1 -58.9436 55
      vertex 15.8999 -58.9436 55
    endloop
  endfacet
  facet normal 0 0 -1
    outer loop
      vertex 10 -54.215 55
      vertex 15.8999 -58.9436 55
      vertex 14.2999 -61.715 55
    endloop
  endfacet
  facet normal 0 0 -1
    outer loop
      vertex 19.1 -58.9436 55
      vertex 10 -54.215 55
      vertex 25 -41.175 55
    endloop
  endfacet
  facet normal -0 0 -1
    outer loop
      vertex 25 -41.175 55
      vertex 10 -54.215 55
      vertex 10 -41.175 55
    endloop
  endfacet
  facet normal 0 0 -1
    outer loop
      vertex -21.2945 -60.8391 55
      vertex 10 -54.215 55
      vertex -21.2945 -62.5909 55
    endloop
  endfacet
  facet normal 0 0 -1
    outer loop
      vertex -22.9605 -60.2978 55
      vertex 10 -54.215 55
      vertex -21.2945 -60.8391 55
    endloop
  endfacet
  facet normal 0 0 -1
    outer loop
      vertex -40 -54.215 55
      vertex -23.9901 -61.715 55
      vertex -40 -69.215 55
    endloop
  endfacet
  facet normal 0 0 -1
    outer loop
      vertex -22.9605 -60.2978 55
      vertex -40 -54.215 55
      vertex 10 -54.215 55
    endloop
  endfacet
  facet normal 0 0 -1
    outer loop
      vertex -23.9901 -61.715 55
      vertex -40 -54.215 55
      vertex -22.9605 -60.2978 55
    endloop
  endfacet
  facet normal 0 0 -1
    outer loop
      vertex 10 54.215 55
      vertex -22.9605 60.2978 55
      vertex -21.2945 60.8391 55
    endloop
  endfacet
  facet normal -0 0 -1
    outer loop
      vertex -22.9605 60.2978 55
      vertex -40 54.215 55
      vertex -23.9901 61.715 55
    endloop
  endfacet
  facet normal 0 0 -1
    outer loop
      vertex -40 54.215 55
      vertex -22.9605 60.2978 55
      vertex 10 54.215 55
    endloop
  endfacet
  facet normal 0 0 -1
    outer loop
      vertex 25 41.175 55
      vertex 20.7001 61.715 55
      vertex 25 69.215 55
    endloop
  endfacet
  facet normal 0 0 -1
    outer loop
      vertex 25 41.175 55
      vertex 19.1 58.9436 55
      vertex 20.7001 61.715 55
    endloop
  endfacet
  facet normal 0 0 -1
    outer loop
      vertex 10 54.215 55
      vertex 19.1 58.9436 55
      vertex 25 41.175 55
    endloop
  endfacet
  facet normal -0 0 -1
    outer loop
      vertex 19.1 58.9436 55
      vertex 10 54.215 55
      vertex 15.8999 58.9436 55
    endloop
  endfacet
  facet normal 0 0 -1
    outer loop
      vertex 10 54.215 55
      vertex 25 41.175 55
      vertex 10 41.175 55
    endloop
  endfacet
  facet normal 0 0 -1
    outer loop
      vertex 19.1 64.4864 55
      vertex 25 69.215 55
      vertex 20.7001 61.715 55
    endloop
  endfacet
  facet normal 0 0 -1
    outer loop
      vertex 15.8999 64.4864 55
      vertex 25 69.215 55
      vertex 19.1 64.4864 55
    endloop
  endfacet
  facet normal -0 0 -1
    outer loop
      vertex 15.8999 58.9436 55
      vertex 10 54.215 55
      vertex 14.2999 61.715 55
    endloop
  endfacet
  facet normal 0 0 -1
    outer loop
      vertex -21.2945 62.5909 55
      vertex 10 54.215 55
      vertex -21.2945 60.8391 55
    endloop
  endfacet
  facet normal 0 0 -1
    outer loop
      vertex 10 54.215 55
      vertex -21.2945 62.5909 55
      vertex 14.2999 61.715 55
    endloop
  endfacet
  facet normal 0 0 -1
    outer loop
      vertex 14.2999 61.715 55
      vertex -21.2945 62.5909 55
      vertex 15.8999 64.4864 55
    endloop
  endfacet
  facet normal 0 0 -1
    outer loop
      vertex -22.9605 63.1322 55
      vertex 15.8999 64.4864 55
      vertex -21.2945 62.5909 55
    endloop
  endfacet
  facet normal -0 0 -1
    outer loop
      vertex 15.8999 64.4864 55
      vertex -22.9605 63.1322 55
      vertex 25 69.215 55
    endloop
  endfacet
  facet normal 0 0 -1
    outer loop
      vertex -40 69.215 55
      vertex -23.9901 61.715 55
      vertex -40 54.215 55
    endloop
  endfacet
  facet normal 0 0 -1
    outer loop
      vertex -22.9605 63.1322 55
      vertex -40 69.215 55
      vertex 25 69.215 55
    endloop
  endfacet
  facet normal 0 0 -1
    outer loop
      vertex -23.9901 61.715 55
      vertex -40 69.215 55
      vertex -22.9605 63.1322 55
    endloop
  endfacet
  facet normal 0 0 -1
    outer loop
      vertex 10 -26.175 55
      vertex 25 26.175 55
      vertex 25 -26.175 55
    endloop
  endfacet
  facet normal -0 0 -1
    outer loop
      vertex 25 26.175 55
      vertex 10 -26.175 55
      vertex 10 26.175 55
    endloop
  endfacet
  facet normal 0 -1 0
    outer loop
      vertex -40 -69.215 55
      vertex 25 -69.215 70
      vertex -40 -69.215 70
    endloop
  endfacet
  facet normal 0 -1 -0
    outer loop
      vertex 25 -69.215 70
      vertex -40 -69.215 55
      vertex 25 -69.215 55
    endloop
  endfacet
  facet normal 0 1 -0
    outer loop
      vertex 25 69.215 55
      vertex -40 69.215 70
      vertex 25 69.215 70
    endloop
  endfacet
  facet normal 0 1 0
    outer loop
      vertex -40 69.215 70
      vertex 25 69.215 55
      vertex -40 69.215 55
    endloop
  endfacet
  facet normal -1 0 0
    outer loop
      vertex -40 54.215 55
      vertex -40 69.215 70
      vertex -40 69.215 55
    endloop
  endfacet
  facet normal -1 -0 0
    outer loop
      vertex -40 69.215 70
      vertex -40 54.215 55
      vertex -40 54.215 70
    endloop
  endfacet
  facet normal 0 -1 0
    outer loop
      vertex -40 54.215 55
      vertex 10 54.215 70
      vertex -40 54.215 70
    endloop
  endfacet
  facet normal 0 -1 -0
    outer loop
      vertex 10 54.215 70
      vertex -40 54.215 55
      vertex 10 54.215 55
    endloop
  endfacet
  facet normal -1 0 0
    outer loop
      vertex -40 -69.215 55
      vertex -40 -54.215 70
      vertex -40 -54.215 55
    endloop
  endfacet
  facet normal -1 -0 0
    outer loop
      vertex -40 -54.215 70
      vertex -40 -69.215 55
      vertex -40 -69.215 70
    endloop
  endfacet
  facet normal 0 1 -0
    outer loop
      vertex 10 -54.215 55
      vertex -40 -54.215 70
      vertex 10 -54.215 70
    endloop
  endfacet
  facet normal 0 1 0
    outer loop
      vertex -40 -54.215 70
      vertex 10 -54.215 55
      vertex -40 -54.215 55
    endloop
  endfacet
  facet normal 0.959493 -0.281733 0
    outer loop
      vertex 14.2999 -61.715 70
      vertex 14.8079 -59.9849 68
      vertex 14.8079 -59.9849 70
    endloop
  endfacet
  facet normal 0.959493 -0.281733 0
    outer loop
      vertex 14.8079 -59.9849 68
      vertex 14.2999 -61.715 70
      vertex 14.2999 -61.715 68
    endloop
  endfacet
  facet normal -1 0 0
    outer loop
      vertex 20.5705 -62.6166 68
      vertex 20.5705 -60.8134 70
      vertex 20.5705 -60.8134 68
    endloop
  endfacet
  facet normal -1 -0 0
    outer loop
      vertex 20.5705 -60.8134 70
      vertex 20.5705 -62.6166 68
      vertex 20.5705 -62.6166 70
    endloop
  endfacet
  facet normal -0.415414 -0.909633 0
    outer loop
      vertex 17.9554 -58.5475 68
      vertex 19.5956 -59.2965 70
      vertex 17.9554 -58.5475 70
    endloop
  endfacet
  facet normal -0.415414 -0.909633 -0
    outer loop
      vertex 19.5956 -59.2965 70
      vertex 17.9554 -58.5475 68
      vertex 19.5956 -59.2965 68
    endloop
  endfacet
  facet normal 0 0 1
    outer loop
      vertex 18.7055 -60.8391 68
      vertex 20.5705 -60.8134 68
      vertex 19.5956 -59.2965 68
    endloop
  endfacet
  facet normal 0 0 1
    outer loop
      vertex 20.5705 -60.8134 68
      vertex 18.7055 -60.8391 68
      vertex 20.5705 -62.6166 68
    endloop
  endfacet
  facet normal -0 0 1
    outer loop
      vertex 18.7055 -62.5909 68
      vertex 20.5705 -62.6166 68
      vertex 18.7055 -60.8391 68
    endloop
  endfacet
  facet normal 0 0 1
    outer loop
      vertex 17.9554 -58.5475 68
      vertex 18.7055 -60.8391 68
      vertex 19.5956 -59.2965 68
    endloop
  endfacet
  facet normal 0 0 1
    outer loop
      vertex 17.9554 -58.5475 68
      vertex 17.0395 -60.2978 68
      vertex 18.7055 -60.8391 68
    endloop
  endfacet
  facet normal -0 0 1
    outer loop
      vertex 16.1706 -58.8041 68
      vertex 17.0395 -60.2978 68
      vertex 17.9554 -58.5475 68
    endloop
  endfacet
  facet normal -0 0 1
    outer loop
      vertex 14.8079 -59.9849 68
      vertex 17.0395 -60.2978 68
      vertex 16.1706 -58.8041 68
    endloop
  endfacet
  facet normal 0 0 1
    outer loop
      vertex 17.0395 -60.2978 68
      vertex 14.8079 -59.9849 68
      vertex 16.0099 -61.715 68
    endloop
  endfacet
  facet normal 0 0 1
    outer loop
      vertex 20.5705 -62.6166 68
      vertex 18.7055 -62.5909 68
      vertex 19.5956 -64.1335 68
    endloop
  endfacet
  facet normal 0 0 1
    outer loop
      vertex 18.7055 -62.5909 68
      vertex 17.9554 -64.8825 68
      vertex 19.5956 -64.1335 68
    endloop
  endfacet
  facet normal -0 0 1
    outer loop
      vertex 17.0395 -63.1322 68
      vertex 17.9554 -64.8825 68
      vertex 18.7055 -62.5909 68
    endloop
  endfacet
  facet normal 0 0 1
    outer loop
      vertex 17.0395 -63.1322 68
      vertex 16.1706 -64.6259 68
      vertex 17.9554 -64.8825 68
    endloop
  endfacet
  facet normal 0 0 1
    outer loop
      vertex 14.8079 -63.4451 68
      vertex 17.0395 -63.1322 68
      vertex 16.0099 -61.715 68
    endloop
  endfacet
  facet normal 0 0 1
    outer loop
      vertex 14.2999 -61.715 68
      vertex 16.0099 -61.715 68
      vertex 14.8079 -59.9849 68
    endloop
  endfacet
  facet normal 0 0 1
    outer loop
      vertex 17.0395 -63.1322 68
      vertex 14.8079 -63.4451 68
      vertex 16.1706 -64.6259 68
    endloop
  endfacet
  facet normal 0 0 1
    outer loop
      vertex 16.0099 -61.715 68
      vertex 14.2999 -61.715 68
      vertex 14.8079 -63.4451 68
    endloop
  endfacet
  facet normal -0.841254 -0.540641 0
    outer loop
      vertex 20.5705 -60.8134 68
      vertex 19.5956 -59.2965 70
      vertex 19.5956 -59.2965 68
    endloop
  endfacet
  facet normal -0.841254 -0.540641 0
    outer loop
      vertex 19.5956 -59.2965 70
      vertex 20.5705 -60.8134 68
      vertex 20.5705 -60.8134 70
    endloop
  endfacet
  facet normal 0.959493 0.281733 0
    outer loop
      vertex 14.8079 -63.4451 70
      vertex 14.2999 -61.715 68
      vertex 14.2999 -61.715 70
    endloop
  endfacet
  facet normal 0.959493 0.281733 0
    outer loop
      vertex 14.2999 -61.715 68
      vertex 14.8079 -63.4451 70
      vertex 14.8079 -63.4451 68
    endloop
  endfacet
  facet normal 0.142315 -0.989821 1.35722e-07
    outer loop
      vertex 16.1706 -58.8041 68
      vertex 17.9554 -58.5475 70
      vertex 16.1706 -58.8041 70
    endloop
  endfacet
  facet normal 0.142315 -0.989821 0
    outer loop
      vertex 17.9554 -58.5475 70
      vertex 16.1706 -58.8041 68
      vertex 17.9554 -58.5475 68
    endloop
  endfacet
  facet normal 0.65486 -0.75575 0
    outer loop
      vertex 14.8079 -59.9849 68
      vertex 16.1706 -58.8041 70
      vertex 14.8079 -59.9849 70
    endloop
  endfacet
  facet normal 0.65486 -0.755751 6.24523e-07
    outer loop
      vertex 16.1706 -58.8041 70
      vertex 14.8079 -59.9849 68
      vertex 16.1706 -58.8041 68
    endloop
  endfacet
  facet normal -0.841254 0.540641 0
    outer loop
      vertex 19.5956 -64.1335 68
      vertex 20.5705 -62.6166 70
      vertex 20.5705 -62.6166 68
    endloop
  endfacet
  facet normal -0.841254 0.540641 0
    outer loop
      vertex 20.5705 -62.6166 70
      vertex 19.5956 -64.1335 68
      vertex 19.5956 -64.1335 70
    endloop
  endfacet
  facet normal 0.654862 0.755748 6.24526e-07
    outer loop
      vertex 16.1706 -64.6259 68
      vertex 14.8079 -63.4451 70
      vertex 16.1706 -64.6259 70
    endloop
  endfacet
  facet normal 0.654862 0.755749 0
    outer loop
      vertex 14.8079 -63.4451 70
      vertex 16.1706 -64.6259 68
      vertex 14.8079 -63.4451 68
    endloop
  endfacet
  facet normal 0.142315 0.989821 -0
    outer loop
      vertex 17.9554 -64.8825 68
      vertex 16.1706 -64.6259 70
      vertex 17.9554 -64.8825 70
    endloop
  endfacet
  facet normal 0.142315 0.989821 1.35722e-07
    outer loop
      vertex 16.1706 -64.6259 70
      vertex 17.9554 -64.8825 68
      vertex 16.1706 -64.6259 68
    endloop
  endfacet
  facet normal -0.415415 0.909632 0
    outer loop
      vertex 19.5956 -64.1335 68
      vertex 17.9554 -64.8825 70
      vertex 19.5956 -64.1335 70
    endloop
  endfacet
  facet normal -0.415415 0.909632 0
    outer loop
      vertex 17.9554 -64.8825 70
      vertex 19.5956 -64.1335 68
      vertex 17.9554 -64.8825 68
    endloop
  endfacet
  facet normal 0.809016 -0.587787 0
    outer loop
      vertex 16.0099 -61.715 68
      vertex 17.0395 -60.2978 57.4001
      vertex 17.0395 -60.2978 68
    endloop
  endfacet
  facet normal 0.809016 -0.587787 0
    outer loop
      vertex 17.0395 -60.2978 57.4001
      vertex 16.0099 -61.715 68
      vertex 16.0099 -61.715 57.4001
    endloop
  endfacet
  facet normal -1 0 0
    outer loop
      vertex 18.7055 -62.5909 57.4001
      vertex 18.7055 -60.8391 68
      vertex 18.7055 -60.8391 57.4001
    endloop
  endfacet
  facet normal -1 -0 0
    outer loop
      vertex 18.7055 -60.8391 68
      vertex 18.7055 -62.5909 57.4001
      vertex 18.7055 -62.5909 68
    endloop
  endfacet
  facet normal -0.309017 -0.951057 0
    outer loop
      vertex 17.0395 -60.2978 57.4001
      vertex 18.7055 -60.8391 68
      vertex 17.0395 -60.2978 68
    endloop
  endfacet
  facet normal -0.309017 -0.951057 -0
    outer loop
      vertex 18.7055 -60.8391 68
      vertex 17.0395 -60.2978 57.4001
      vertex 18.7055 -60.8391 57.4001
    endloop
  endfacet
  facet normal -0.309017 0.951057 0
    outer loop
      vertex 18.7055 -62.5909 57.4001
      vertex 17.0395 -63.1322 68
      vertex 18.7055 -62.5909 68
    endloop
  endfacet
  facet normal -0.309017 0.951057 0
    outer loop
      vertex 17.0395 -63.1322 68
      vertex 18.7055 -62.5909 57.4001
      vertex 17.0395 -63.1322 57.4001
    endloop
  endfacet
  facet normal 0.809016 0.587787 0
    outer loop
      vertex 17.0395 -63.1322 68
      vertex 16.0099 -61.715 57.4001
      vertex 16.0099 -61.715 68
    endloop
  endfacet
  facet normal 0.809016 0.587787 0
    outer loop
      vertex 16.0099 -61.715 57.4001
      vertex 17.0395 -63.1322 68
      vertex 17.0395 -63.1322 57.4001
    endloop
  endfacet
  facet normal 0.959493 -0.281733 0
    outer loop
      vertex 14.2999 61.715 70
      vertex 14.8079 63.4451 68
      vertex 14.8079 63.4451 70
    endloop
  endfacet
  facet normal 0.959493 -0.281733 0
    outer loop
      vertex 14.8079 63.4451 68
      vertex 14.2999 61.715 70
      vertex 14.2999 61.715 68
    endloop
  endfacet
  facet normal -1 0 0
    outer loop
      vertex 20.5705 60.8134 68
      vertex 20.5705 62.6166 70
      vertex 20.5705 62.6166 68
    endloop
  endfacet
  facet normal -1 -0 0
    outer loop
      vertex 20.5705 62.6166 70
      vertex 20.5705 60.8134 68
      vertex 20.5705 60.8134 70
    endloop
  endfacet
  facet normal -0.415415 -0.909632 0
    outer loop
      vertex 17.9554 64.8825 68
      vertex 19.5956 64.1335 70
      vertex 17.9554 64.8825 70
    endloop
  endfacet
  facet normal -0.415415 -0.909632 -0
    outer loop
      vertex 19.5956 64.1335 70
      vertex 17.9554 64.8825 68
      vertex 19.5956 64.1335 68
    endloop
  endfacet
  facet normal 0 0 1
    outer loop
      vertex 18.7055 62.5909 68
      vertex 20.5705 62.6166 68
      vertex 19.5956 64.1335 68
    endloop
  endfacet
  facet normal 0 0 1
    outer loop
      vertex 20.5705 62.6166 68
      vertex 18.7055 62.5909 68
      vertex 20.5705 60.8134 68
    endloop
  endfacet
  facet normal -0 0 1
    outer loop
      vertex 18.7055 60.8391 68
      vertex 20.5705 60.8134 68
      vertex 18.7055 62.5909 68
    endloop
  endfacet
  facet normal 0 0 1
    outer loop
      vertex 17.9554 64.8825 68
      vertex 18.7055 62.5909 68
      vertex 19.5956 64.1335 68
    endloop
  endfacet
  facet normal 0 0 1
    outer loop
      vertex 17.9554 64.8825 68
      vertex 17.0395 63.1322 68
      vertex 18.7055 62.5909 68
    endloop
  endfacet
  facet normal -0 0 1
    outer loop
      vertex 16.1706 64.6259 68
      vertex 17.0395 63.1322 68
      vertex 17.9554 64.8825 68
    endloop
  endfacet
  facet normal -0 0 1
    outer loop
      vertex 14.8079 63.4451 68
      vertex 17.0395 63.1322 68
      vertex 16.1706 64.6259 68
    endloop
  endfacet
  facet normal 0 0 1
    outer loop
      vertex 17.0395 63.1322 68
      vertex 14.8079 63.4451 68
      vertex 16.0099 61.715 68
    endloop
  endfacet
  facet normal 0 0 1
    outer loop
      vertex 20.5705 60.8134 68
      vertex 18.7055 60.8391 68
      vertex 19.5956 59.2965 68
    endloop
  endfacet
  facet normal 0 0 1
    outer loop
      vertex 18.7055 60.8391 68
      vertex 17.9554 58.5475 68
      vertex 19.5956 59.2965 68
    endloop
  endfacet
  facet normal -0 0 1
    outer loop
      vertex 17.0395 60.2978 68
      vertex 17.9554 58.5475 68
      vertex 18.7055 60.8391 68
    endloop
  endfacet
  facet normal 0 0 1
    outer loop
      vertex 17.0395 60.2978 68
      vertex 16.1706 58.8041 68
      vertex 17.9554 58.5475 68
    endloop
  endfacet
  facet normal 0 0 1
    outer loop
      vertex 14.8079 59.9849 68
      vertex 17.0395 60.2978 68
      vertex 16.0099 61.715 68
    endloop
  endfacet
  facet normal 0 0 1
    outer loop
      vertex 14.2999 61.715 68
      vertex 16.0099 61.715 68
      vertex 14.8079 63.4451 68
    endloop
  endfacet
  facet normal 0 0 1
    outer loop
      vertex 17.0395 60.2978 68
      vertex 14.8079 59.9849 68
      vertex 16.1706 58.8041 68
    endloop
  endfacet
  facet normal 0 0 1
    outer loop
      vertex 16.0099 61.715 68
      vertex 14.2999 61.715 68
      vertex 14.8079 59.9849 68
    endloop
  endfacet
  facet normal -0.841254 -0.540641 0
    outer loop
      vertex 20.5705 62.6166 68
      vertex 19.5956 64.1335 70
      vertex 19.5956 64.1335 68
    endloop
  endfacet
  facet normal -0.841254 -0.540641 0
    outer loop
      vertex 19.5956 64.1335 70
      vertex 20.5705 62.6166 68
      vertex 20.5705 62.6166 70
    endloop
  endfacet
  facet normal 0.959493 0.281733 0
    outer loop
      vertex 14.8079 59.9849 70
      vertex 14.2999 61.715 68
      vertex 14.2999 61.715 70
    endloop
  endfacet
  facet normal 0.959493 0.281733 0
    outer loop
      vertex 14.2999 61.715 68
      vertex 14.8079 59.9849 70
      vertex 14.8079 59.9849 68
    endloop
  endfacet
  facet normal 0.142315 -0.989821 1.35722e-07
    outer loop
      vertex 16.1706 64.6259 68
      vertex 17.9554 64.8825 70
      vertex 16.1706 64.6259 70
    endloop
  endfacet
  facet normal 0.142315 -0.989821 0
    outer loop
      vertex 17.9554 64.8825 70
      vertex 16.1706 64.6259 68
      vertex 17.9554 64.8825 68
    endloop
  endfacet
  facet normal 0.654862 -0.755748 0
    outer loop
      vertex 14.8079 63.4451 68
      vertex 16.1706 64.6259 70
      vertex 14.8079 63.4451 70
    endloop
  endfacet
  facet normal 0.654862 -0.755749 6.24525e-07
    outer loop
      vertex 16.1706 64.6259 70
      vertex 14.8079 63.4451 68
      vertex 16.1706 64.6259 68
    endloop
  endfacet
  facet normal -0.841254 0.540641 0
    outer loop
      vertex 19.5956 59.2965 68
      vertex 20.5705 60.8134 70
      vertex 20.5705 60.8134 68
    endloop
  endfacet
  facet normal -0.841254 0.540641 0
    outer loop
      vertex 20.5705 60.8134 70
      vertex 19.5956 59.2965 68
      vertex 19.5956 59.2965 70
    endloop
  endfacet
  facet normal 0.65486 0.75575 6.24523e-07
    outer loop
      vertex 16.1706 58.8041 68
      vertex 14.8079 59.9849 70
      vertex 16.1706 58.8041 70
    endloop
  endfacet
  facet normal 0.65486 0.755751 0
    outer loop
      vertex 14.8079 59.9849 70
      vertex 16.1706 58.8041 68
      vertex 14.8079 59.9849 68
    endloop
  endfacet
  facet normal 0.142315 0.989821 -0
    outer loop
      vertex 17.9554 58.5475 68
      vertex 16.1706 58.8041 70
      vertex 17.9554 58.5475 70
    endloop
  endfacet
  facet normal 0.142315 0.989821 1.35722e-07
    outer loop
      vertex 16.1706 58.8041 70
      vertex 17.9554 58.5475 68
      vertex 16.1706 58.8041 68
    endloop
  endfacet
  facet normal -0.415414 0.909633 0
    outer loop
      vertex 19.5956 59.2965 68
      vertex 17.9554 58.5475 70
      vertex 19.5956 59.2965 70
    endloop
  endfacet
  facet normal -0.415414 0.909633 0
    outer loop
      vertex 17.9554 58.5475 70
      vertex 19.5956 59.2965 68
      vertex 17.9554 58.5475 68
    endloop
  endfacet
  facet normal 0.809016 -0.587787 0
    outer loop
      vertex 16.0099 61.715 68
      vertex 17.0395 63.1322 57.4001
      vertex 17.0395 63.1322 68
    endloop
  endfacet
  facet normal 0.809016 -0.587787 0
    outer loop
      vertex 17.0395 63.1322 57.4001
      vertex 16.0099 61.715 68
      vertex 16.0099 61.715 57.4001
    endloop
  endfacet
  facet normal -1 0 0
    outer loop
      vertex 18.7055 60.8391 57.4001
      vertex 18.7055 62.5909 68
      vertex 18.7055 62.5909 57.4001
    endloop
  endfacet
  facet normal -1 -0 0
    outer loop
      vertex 18.7055 62.5909 68
      vertex 18.7055 60.8391 57.4001
      vertex 18.7055 60.8391 68
    endloop
  endfacet
  facet normal -0.309017 -0.951057 0
    outer loop
      vertex 17.0395 63.1322 57.4001
      vertex 18.7055 62.5909 68
      vertex 17.0395 63.1322 68
    endloop
  endfacet
  facet normal -0.309017 -0.951057 -0
    outer loop
      vertex 18.7055 62.5909 68
      vertex 17.0395 63.1322 57.4001
      vertex 18.7055 62.5909 57.4001
    endloop
  endfacet
  facet normal -0.309017 0.951057 0
    outer loop
      vertex 18.7055 60.8391 57.4001
      vertex 17.0395 60.2978 68
      vertex 18.7055 60.8391 68
    endloop
  endfacet
  facet normal -0.309017 0.951057 0
    outer loop
      vertex 17.0395 60.2978 68
      vertex 18.7055 60.8391 57.4001
      vertex 17.0395 60.2978 57.4001
    endloop
  endfacet
  facet normal 0.809016 0.587787 0
    outer loop
      vertex 17.0395 60.2978 68
      vertex 16.0099 61.715 57.4001
      vertex 16.0099 61.715 68
    endloop
  endfacet
  facet normal 0.809016 0.587787 0
    outer loop
      vertex 16.0099 61.715 57.4001
      vertex 17.0395 60.2978 68
      vertex 17.0395 60.2978 57.4001
    endloop
  endfacet
  facet normal 0.959493 -0.281733 0
    outer loop
      vertex -25.7001 -61.715 70
      vertex -25.1921 -59.9849 68
      vertex -25.1921 -59.9849 70
    endloop
  endfacet
  facet normal 0.959493 -0.281733 0
    outer loop
      vertex -25.1921 -59.9849 68
      vertex -25.7001 -61.715 70
      vertex -25.7001 -61.715 68
    endloop
  endfacet
  facet normal -1 0 0
    outer loop
      vertex -19.4295 -62.6166 68
      vertex -19.4295 -60.8134 70
      vertex -19.4295 -60.8134 68
    endloop
  endfacet
  facet normal -1 -0 0
    outer loop
      vertex -19.4295 -60.8134 70
      vertex -19.4295 -62.6166 68
      vertex -19.4295 -62.6166 70
    endloop
  endfacet
  facet normal -0.415414 -0.909633 0
    outer loop
      vertex -22.0446 -58.5475 68
      vertex -20.4044 -59.2965 70
      vertex -22.0446 -58.5475 70
    endloop
  endfacet
  facet normal -0.415414 -0.909633 -0
    outer loop
      vertex -20.4044 -59.2965 70
      vertex -22.0446 -58.5475 68
      vertex -20.4044 -59.2965 68
    endloop
  endfacet
  facet normal 0 0 1
    outer loop
      vertex -21.2945 -60.8391 68
      vertex -19.4295 -60.8134 68
      vertex -20.4044 -59.2965 68
    endloop
  endfacet
  facet normal 0 0 1
    outer loop
      vertex -19.4295 -60.8134 68
      vertex -21.2945 -60.8391 68
      vertex -19.4295 -62.6166 68
    endloop
  endfacet
  facet normal -0 0 1
    outer loop
      vertex -21.2945 -62.5909 68
      vertex -19.4295 -62.6166 68
      vertex -21.2945 -60.8391 68
    endloop
  endfacet
  facet normal 0 0 1
    outer loop
      vertex -22.0446 -58.5475 68
      vertex -21.2945 -60.8391 68
      vertex -20.4044 -59.2965 68
    endloop
  endfacet
  facet normal 0 0 1
    outer loop
      vertex -22.0446 -58.5475 68
      vertex -22.9605 -60.2978 68
      vertex -21.2945 -60.8391 68
    endloop
  endfacet
  facet normal -0 0 1
    outer loop
      vertex -23.8294 -58.8041 68
      vertex -22.9605 -60.2978 68
      vertex -22.0446 -58.5475 68
    endloop
  endfacet
  facet normal -0 0 1
    outer loop
      vertex -25.1921 -59.9849 68
      vertex -22.9605 -60.2978 68
      vertex -23.8294 -58.8041 68
    endloop
  endfacet
  facet normal 0 0 1
    outer loop
      vertex -22.9605 -60.2978 68
      vertex -25.1921 -59.9849 68
      vertex -23.9901 -61.715 68
    endloop
  endfacet
  facet normal 0 0 1
    outer loop
      vertex -19.4295 -62.6166 68
      vertex -21.2945 -62.5909 68
      vertex -20.4044 -64.1335 68
    endloop
  endfacet
  facet normal 0 0 1
    outer loop
      vertex -21.2945 -62.5909 68
      vertex -22.0446 -64.8825 68
      vertex -20.4044 -64.1335 68
    endloop
  endfacet
  facet normal -0 0 1
    outer loop
      vertex -22.9605 -63.1322 68
      vertex -22.0446 -64.8825 68
      vertex -21.2945 -62.5909 68
    endloop
  endfacet
  facet normal 0 0 1
    outer loop
      vertex -22.9605 -63.1322 68
      vertex -23.8294 -64.6259 68
      vertex -22.0446 -64.8825 68
    endloop
  endfacet
  facet normal 0 0 1
    outer loop
      vertex -25.1921 -63.4451 68
      vertex -22.9605 -63.1322 68
      vertex -23.9901 -61.715 68
    endloop
  endfacet
  facet normal 0 0 1
    outer loop
      vertex -25.7001 -61.715 68
      vertex -23.9901 -61.715 68
      vertex -25.1921 -59.9849 68
    endloop
  endfacet
  facet normal 0 0 1
    outer loop
      vertex -22.9605 -63.1322 68
      vertex -25.1921 -63.4451 68
      vertex -23.8294 -64.6259 68
    endloop
  endfacet
  facet normal 0 0 1
    outer loop
      vertex -23.9901 -61.715 68
      vertex -25.7001 -61.715 68
      vertex -25.1921 -63.4451 68
    endloop
  endfacet
  facet normal -0.841254 -0.540641 0
    outer loop
      vertex -19.4295 -60.8134 68
      vertex -20.4044 -59.2965 70
      vertex -20.4044 -59.2965 68
    endloop
  endfacet
  facet normal -0.841254 -0.540641 0
    outer loop
      vertex -20.4044 -59.2965 70
      vertex -19.4295 -60.8134 68
      vertex -19.4295 -60.8134 70
    endloop
  endfacet
  facet normal 0.959493 0.281733 0
    outer loop
      vertex -25.1921 -63.4451 70
      vertex -25.7001 -61.715 68
      vertex -25.7001 -61.715 70
    endloop
  endfacet
  facet normal 0.959493 0.281733 0
    outer loop
      vertex -25.7001 -61.715 68
      vertex -25.1921 -63.4451 70
      vertex -25.1921 -63.4451 68
    endloop
  endfacet
  facet normal 0.142315 -0.989821 0
    outer loop
      vertex -23.8294 -58.8041 68
      vertex -22.0446 -58.5475 70
      vertex -23.8294 -58.8041 70
    endloop
  endfacet
  facet normal 0.142315 -0.989821 0
    outer loop
      vertex -22.0446 -58.5475 70
      vertex -23.8294 -58.8041 68
      vertex -22.0446 -58.5475 68
    endloop
  endfacet
  facet normal 0.65486 -0.755751 0
    outer loop
      vertex -25.1921 -59.9849 68
      vertex -23.8294 -58.8041 70
      vertex -25.1921 -59.9849 70
    endloop
  endfacet
  facet normal 0.65486 -0.755751 0
    outer loop
      vertex -23.8294 -58.8041 70
      vertex -25.1921 -59.9849 68
      vertex -23.8294 -58.8041 68
    endloop
  endfacet
  facet normal -0.841254 0.540641 0
    outer loop
      vertex -20.4044 -64.1335 68
      vertex -19.4295 -62.6166 70
      vertex -19.4295 -62.6166 68
    endloop
  endfacet
  facet normal -0.841254 0.540641 0
    outer loop
      vertex -19.4295 -62.6166 70
      vertex -20.4044 -64.1335 68
      vertex -20.4044 -64.1335 70
    endloop
  endfacet
  facet normal 0.654862 0.755749 -0
    outer loop
      vertex -23.8294 -64.6259 68
      vertex -25.1921 -63.4451 70
      vertex -23.8294 -64.6259 70
    endloop
  endfacet
  facet normal 0.654862 0.755749 0
    outer loop
      vertex -25.1921 -63.4451 70
      vertex -23.8294 -64.6259 68
      vertex -25.1921 -63.4451 68
    endloop
  endfacet
  facet normal 0.142315 0.989821 -0
    outer loop
      vertex -22.0446 -64.8825 68
      vertex -23.8294 -64.6259 70
      vertex -22.0446 -64.8825 70
    endloop
  endfacet
  facet normal 0.142315 0.989821 0
    outer loop
      vertex -23.8294 -64.6259 70
      vertex -22.0446 -64.8825 68
      vertex -23.8294 -64.6259 68
    endloop
  endfacet
  facet normal -0.415415 0.909632 0
    outer loop
      vertex -20.4044 -64.1335 68
      vertex -22.0446 -64.8825 70
      vertex -20.4044 -64.1335 70
    endloop
  endfacet
  facet normal -0.415415 0.909632 0
    outer loop
      vertex -22.0446 -64.8825 70
      vertex -20.4044 -64.1335 68
      vertex -22.0446 -64.8825 68
    endloop
  endfacet
  facet normal 0.809016 -0.587787 0
    outer loop
      vertex -23.9901 -61.715 68
      vertex -22.9605 -60.2978 55
      vertex -22.9605 -60.2978 68
    endloop
  endfacet
  facet normal 0.809016 -0.587786 1.18698e-07
    outer loop
      vertex -22.9605 -60.2978 55
      vertex -23.9901 -61.715 68
      vertex -23.9901 -61.715 55
    endloop
  endfacet
  facet normal -1 0 0
    outer loop
      vertex -21.2945 -62.5909 55
      vertex -21.2945 -60.8391 68
      vertex -21.2945 -60.8391 55
    endloop
  endfacet
  facet normal -1 -0 0
    outer loop
      vertex -21.2945 -60.8391 68
      vertex -21.2945 -62.5909 55
      vertex -21.2945 -62.5909 68
    endloop
  endfacet
  facet normal -0.309017 -0.951057 0
    outer loop
      vertex -22.9605 -60.2978 55
      vertex -21.2945 -60.8391 68
      vertex -22.9605 -60.2978 68
    endloop
  endfacet
  facet normal -0.309017 -0.951057 -0
    outer loop
      vertex -21.2945 -60.8391 68
      vertex -22.9605 -60.2978 55
      vertex -21.2945 -60.8391 55
    endloop
  endfacet
  facet normal -0.309017 0.951057 0
    outer loop
      vertex -21.2945 -62.5909 55
      vertex -22.9605 -63.1322 68
      vertex -21.2945 -62.5909 68
    endloop
  endfacet
  facet normal -0.309017 0.951057 0
    outer loop
      vertex -22.9605 -63.1322 68
      vertex -21.2945 -62.5909 55
      vertex -22.9605 -63.1322 55
    endloop
  endfacet
  facet normal 0.809016 0.587787 1.18698e-07
    outer loop
      vertex -22.9605 -63.1322 68
      vertex -23.9901 -61.715 55
      vertex -23.9901 -61.715 68
    endloop
  endfacet
  facet normal 0.809016 0.587786 0
    outer loop
      vertex -23.9901 -61.715 55
      vertex -22.9605 -63.1322 68
      vertex -22.9605 -63.1322 55
    endloop
  endfacet
  facet normal 0.959493 -0.281733 0
    outer loop
      vertex -25.7001 61.715 70
      vertex -25.1921 63.4451 68
      vertex -25.1921 63.4451 70
    endloop
  endfacet
  facet normal 0.959493 -0.281733 0
    outer loop
      vertex -25.1921 63.4451 68
      vertex -25.7001 61.715 70
      vertex -25.7001 61.715 68
    endloop
  endfacet
  facet normal -1 0 0
    outer loop
      vertex -19.4295 60.8134 68
      vertex -19.4295 62.6166 70
      vertex -19.4295 62.6166 68
    endloop
  endfacet
  facet normal -1 -0 0
    outer loop
      vertex -19.4295 62.6166 70
      vertex -19.4295 60.8134 68
      vertex -19.4295 60.8134 70
    endloop
  endfacet
  facet normal -0.415415 -0.909632 0
    outer loop
      vertex -22.0446 64.8825 68
      vertex -20.4044 64.1335 70
      vertex -22.0446 64.8825 70
    endloop
  endfacet
  facet normal -0.415415 -0.909632 -0
    outer loop
      vertex -20.4044 64.1335 70
      vertex -22.0446 64.8825 68
      vertex -20.4044 64.1335 68
    endloop
  endfacet
  facet normal 0 0 1
    outer loop
      vertex -21.2945 62.5909 68
      vertex -19.4295 62.6166 68
      vertex -20.4044 64.1335 68
    endloop
  endfacet
  facet normal 0 0 1
    outer loop
      vertex -19.4295 62.6166 68
      vertex -21.2945 62.5909 68
      vertex -19.4295 60.8134 68
    endloop
  endfacet
  facet normal -0 0 1
    outer loop
      vertex -21.2945 60.8391 68
      vertex -19.4295 60.8134 68
      vertex -21.2945 62.5909 68
    endloop
  endfacet
  facet normal 0 0 1
    outer loop
      vertex -22.0446 64.8825 68
      vertex -21.2945 62.5909 68
      vertex -20.4044 64.1335 68
    endloop
  endfacet
  facet normal 0 0 1
    outer loop
      vertex -22.0446 64.8825 68
      vertex -22.9605 63.1322 68
      vertex -21.2945 62.5909 68
    endloop
  endfacet
  facet normal -0 0 1
    outer loop
      vertex -23.8294 64.6259 68
      vertex -22.9605 63.1322 68
      vertex -22.0446 64.8825 68
    endloop
  endfacet
  facet normal -0 0 1
    outer loop
      vertex -25.1921 63.4451 68
      vertex -22.9605 63.1322 68
      vertex -23.8294 64.6259 68
    endloop
  endfacet
  facet normal 0 0 1
    outer loop
      vertex -22.9605 63.1322 68
      vertex -25.1921 63.4451 68
      vertex -23.9901 61.715 68
    endloop
  endfacet
  facet normal 0 0 1
    outer loop
      vertex -19.4295 60.8134 68
      vertex -21.2945 60.8391 68
      vertex -20.4044 59.2965 68
    endloop
  endfacet
  facet normal 0 0 1
    outer loop
      vertex -21.2945 60.8391 68
      vertex -22.0446 58.5475 68
      vertex -20.4044 59.2965 68
    endloop
  endfacet
  facet normal -0 0 1
    outer loop
      vertex -22.9605 60.2978 68
      vertex -22.0446 58.5475 68
      vertex -21.2945 60.8391 68
    endloop
  endfacet
  facet normal 0 0 1
    outer loop
      vertex -22.9605 60.2978 68
      vertex -23.8294 58.8041 68
      vertex -22.0446 58.5475 68
    endloop
  endfacet
  facet normal 0 0 1
    outer loop
      vertex -25.1921 59.9849 68
      vertex -22.9605 60.2978 68
      vertex -23.9901 61.715 68
    endloop
  endfacet
  facet normal 0 0 1
    outer loop
      vertex -25.7001 61.715 68
      vertex -23.9901 61.715 68
      vertex -25.1921 63.4451 68
    endloop
  endfacet
  facet normal 0 0 1
    outer loop
      vertex -22.9605 60.2978 68
      vertex -25.1921 59.9849 68
      vertex -23.8294 58.8041 68
    endloop
  endfacet
  facet normal 0 0 1
    outer loop
      vertex -23.9901 61.715 68
      vertex -25.7001 61.715 68
      vertex -25.1921 59.9849 68
    endloop
  endfacet
  facet normal -0.841254 -0.540641 0
    outer loop
      vertex -19.4295 62.6166 68
      vertex -20.4044 64.1335 70
      vertex -20.4044 64.1335 68
    endloop
  endfacet
  facet normal -0.841254 -0.540641 0
    outer loop
      vertex -20.4044 64.1335 70
      vertex -19.4295 62.6166 68
      vertex -19.4295 62.6166 70
    endloop
  endfacet
  facet normal 0.959493 0.281733 0
    outer loop
      vertex -25.1921 59.9849 70
      vertex -25.7001 61.715 68
      vertex -25.7001 61.715 70
    endloop
  endfacet
  facet normal 0.959493 0.281733 0
    outer loop
      vertex -25.7001 61.715 68
      vertex -25.1921 59.9849 70
      vertex -25.1921 59.9849 68
    endloop
  endfacet
  facet normal 0.142315 -0.989821 0
    outer loop
      vertex -23.8294 64.6259 68
      vertex -22.0446 64.8825 70
      vertex -23.8294 64.6259 70
    endloop
  endfacet
  facet normal 0.142315 -0.989821 0
    outer loop
      vertex -22.0446 64.8825 70
      vertex -23.8294 64.6259 68
      vertex -22.0446 64.8825 68
    endloop
  endfacet
  facet normal 0.654862 -0.755749 0
    outer loop
      vertex -25.1921 63.4451 68
      vertex -23.8294 64.6259 70
      vertex -25.1921 63.4451 70
    endloop
  endfacet
  facet normal 0.654862 -0.755749 0
    outer loop
      vertex -23.8294 64.6259 70
      vertex -25.1921 63.4451 68
      vertex -23.8294 64.6259 68
    endloop
  endfacet
  facet normal -0.841254 0.540641 0
    outer loop
      vertex -20.4044 59.2965 68
      vertex -19.4295 60.8134 70
      vertex -19.4295 60.8134 68
    endloop
  endfacet
  facet normal -0.841254 0.540641 0
    outer loop
      vertex -19.4295 60.8134 70
      vertex -20.4044 59.2965 68
      vertex -20.4044 59.2965 70
    endloop
  endfacet
  facet normal 0.65486 0.755751 -0
    outer loop
      vertex -23.8294 58.8041 68
      vertex -25.1921 59.9849 70
      vertex -23.8294 58.8041 70
    endloop
  endfacet
  facet normal 0.65486 0.755751 0
    outer loop
      vertex -25.1921 59.9849 70
      vertex -23.8294 58.8041 68
      vertex -25.1921 59.9849 68
    endloop
  endfacet
  facet normal 0.142315 0.989821 -0
    outer loop
      vertex -22.0446 58.5475 68
      vertex -23.8294 58.8041 70
      vertex -22.0446 58.5475 70
    endloop
  endfacet
  facet normal 0.142315 0.989821 0
    outer loop
      vertex -23.8294 58.8041 70
      vertex -22.0446 58.5475 68
      vertex -23.8294 58.8041 68
    endloop
  endfacet
  facet normal -0.415414 0.909633 0
    outer loop
      vertex -20.4044 59.2965 68
      vertex -22.0446 58.5475 70
      vertex -20.4044 59.2965 70
    endloop
  endfacet
  facet normal -0.415414 0.909633 0
    outer loop
      vertex -22.0446 58.5475 70
      vertex -20.4044 59.2965 68
      vertex -22.0446 58.5475 68
    endloop
  endfacet
  facet normal 0.809016 -0.587787 0
    outer loop
      vertex -23.9901 61.715 68
      vertex -22.9605 63.1322 55
      vertex -22.9605 63.1322 68
    endloop
  endfacet
  facet normal 0.809016 -0.587786 1.18698e-07
    outer loop
      vertex -22.9605 63.1322 55
      vertex -23.9901 61.715 68
      vertex -23.9901 61.715 55
    endloop
  endfacet
  facet normal -1 0 0
    outer loop
      vertex -21.2945 60.8391 55
      vertex -21.2945 62.5909 68
      vertex -21.2945 62.5909 55
    endloop
  endfacet
  facet normal -1 -0 0
    outer loop
      vertex -21.2945 62.5909 68
      vertex -21.2945 60.8391 55
      vertex -21.2945 60.8391 68
    endloop
  endfacet
  facet normal -0.309017 -0.951057 0
    outer loop
      vertex -22.9605 63.1322 55
      vertex -21.2945 62.5909 68
      vertex -22.9605 63.1322 68
    endloop
  endfacet
  facet normal -0.309017 -0.951057 -0
    outer loop
      vertex -21.2945 62.5909 68
      vertex -22.9605 63.1322 55
      vertex -21.2945 62.5909 55
    endloop
  endfacet
  facet normal -0.309017 0.951057 0
    outer loop
      vertex -21.2945 60.8391 55
      vertex -22.9605 60.2978 68
      vertex -21.2945 60.8391 68
    endloop
  endfacet
  facet normal -0.309017 0.951057 0
    outer loop
      vertex -22.9605 60.2978 68
      vertex -21.2945 60.8391 55
      vertex -22.9605 60.2978 55
    endloop
  endfacet
  facet normal 0.809016 0.587787 1.18698e-07
    outer loop
      vertex -22.9605 60.2978 68
      vertex -23.9901 61.715 55
      vertex -23.9901 61.715 68
    endloop
  endfacet
  facet normal 0.809016 0.587786 0
    outer loop
      vertex -23.9901 61.715 55
      vertex -22.9605 60.2978 68
      vertex -22.9605 60.2978 55
    endloop
  endfacet
  facet normal -0.866026 -0.5 0
    outer loop
      vertex 20.7001 -61.715 55
      vertex 19.1 -58.9436 57.4001
      vertex 19.1 -58.9436 55
    endloop
  endfacet
  facet normal -0.866026 -0.5 0
    outer loop
      vertex 19.1 -58.9436 57.4001
      vertex 20.7001 -61.715 55
      vertex 20.7001 -61.715 57.4001
    endloop
  endfacet
  facet normal 0.866026 -0.5 0
    outer loop
      vertex 14.2999 -61.715 57.4001
      vertex 15.8999 -58.9436 55
      vertex 15.8999 -58.9436 57.4001
    endloop
  endfacet
  facet normal 0.866026 -0.5 0
    outer loop
      vertex 15.8999 -58.9436 55
      vertex 14.2999 -61.715 57.4001
      vertex 14.2999 -61.715 55
    endloop
  endfacet
  facet normal 0 -1 0
    outer loop
      vertex 15.8999 -58.9436 55
      vertex 19.1 -58.9436 57.4001
      vertex 15.8999 -58.9436 57.4001
    endloop
  endfacet
  facet normal 0 -1 -0
    outer loop
      vertex 19.1 -58.9436 57.4001
      vertex 15.8999 -58.9436 55
      vertex 19.1 -58.9436 55
    endloop
  endfacet
  facet normal 0 0 -1
    outer loop
      vertex 18.7055 -62.5909 57.4001
      vertex 20.7001 -61.715 57.4001
      vertex 19.1 -64.4864 57.4001
    endloop
  endfacet
  facet normal 0 0 -1
    outer loop
      vertex 18.7055 -60.8391 57.4001
      vertex 20.7001 -61.715 57.4001
      vertex 18.7055 -62.5909 57.4001
    endloop
  endfacet
  facet normal 0 0 -1
    outer loop
      vertex 19.1 -64.4864 57.4001
      vertex 17.0395 -63.1322 57.4001
      vertex 18.7055 -62.5909 57.4001
    endloop
  endfacet
  facet normal -0 0 -1
    outer loop
      vertex 17.0395 -63.1322 57.4001
      vertex 15.8999 -64.4864 57.4001
      vertex 16.0099 -61.715 57.4001
    endloop
  endfacet
  facet normal 0 0 -1
    outer loop
      vertex 15.8999 -64.4864 57.4001
      vertex 17.0395 -63.1322 57.4001
      vertex 19.1 -64.4864 57.4001
    endloop
  endfacet
  facet normal 0 0 -1
    outer loop
      vertex 20.7001 -61.715 57.4001
      vertex 18.7055 -60.8391 57.4001
      vertex 19.1 -58.9436 57.4001
    endloop
  endfacet
  facet normal 0 0 -1
    outer loop
      vertex 17.0395 -60.2978 57.4001
      vertex 19.1 -58.9436 57.4001
      vertex 18.7055 -60.8391 57.4001
    endloop
  endfacet
  facet normal 0 0 -1
    outer loop
      vertex 17.0395 -60.2978 57.4001
      vertex 15.8999 -58.9436 57.4001
      vertex 19.1 -58.9436 57.4001
    endloop
  endfacet
  facet normal 0 0 -1
    outer loop
      vertex 16.0099 -61.715 57.4001
      vertex 15.8999 -58.9436 57.4001
      vertex 17.0395 -60.2978 57.4001
    endloop
  endfacet
  facet normal 0 0 -1
    outer loop
      vertex 14.2999 -61.715 57.4001
      vertex 16.0099 -61.715 57.4001
      vertex 15.8999 -64.4864 57.4001
    endloop
  endfacet
  facet normal 0 0 -1
    outer loop
      vertex 16.0099 -61.715 57.4001
      vertex 14.2999 -61.715 57.4001
      vertex 15.8999 -58.9436 57.4001
    endloop
  endfacet
  facet normal 0.866025 0.5 0
    outer loop
      vertex 15.8999 -64.4864 57.4001
      vertex 14.2999 -61.715 55
      vertex 14.2999 -61.715 57.4001
    endloop
  endfacet
  facet normal 0.866025 0.5 0
    outer loop
      vertex 14.2999 -61.715 55
      vertex 15.8999 -64.4864 57.4001
      vertex 15.8999 -64.4864 55
    endloop
  endfacet
  facet normal -0.866025 0.5 0
    outer loop
      vertex 19.1 -64.4864 55
      vertex 20.7001 -61.715 57.4001
      vertex 20.7001 -61.715 55
    endloop
  endfacet
  facet normal -0.866025 0.5 0
    outer loop
      vertex 20.7001 -61.715 57.4001
      vertex 19.1 -64.4864 55
      vertex 19.1 -64.4864 57.4001
    endloop
  endfacet
  facet normal 0 1 -0
    outer loop
      vertex 19.1 -64.4864 55
      vertex 15.8999 -64.4864 57.4001
      vertex 19.1 -64.4864 57.4001
    endloop
  endfacet
  facet normal 0 1 0
    outer loop
      vertex 15.8999 -64.4864 57.4001
      vertex 19.1 -64.4864 55
      vertex 15.8999 -64.4864 55
    endloop
  endfacet
  facet normal -0.866025 -0.5 0
    outer loop
      vertex 20.7001 61.715 55
      vertex 19.1 64.4864 57.4001
      vertex 19.1 64.4864 55
    endloop
  endfacet
  facet normal -0.866025 -0.5 0
    outer loop
      vertex 19.1 64.4864 57.4001
      vertex 20.7001 61.715 55
      vertex 20.7001 61.715 57.4001
    endloop
  endfacet
  facet normal 0.866025 -0.5 0
    outer loop
      vertex 14.2999 61.715 57.4001
      vertex 15.8999 64.4864 55
      vertex 15.8999 64.4864 57.4001
    endloop
  endfacet
  facet normal 0.866025 -0.5 0
    outer loop
      vertex 15.8999 64.4864 55
      vertex 14.2999 61.715 57.4001
      vertex 14.2999 61.715 55
    endloop
  endfacet
  facet normal 0 -1 0
    outer loop
      vertex 15.8999 64.4864 55
      vertex 19.1 64.4864 57.4001
      vertex 15.8999 64.4864 57.4001
    endloop
  endfacet
  facet normal 0 -1 -0
    outer loop
      vertex 19.1 64.4864 57.4001
      vertex 15.8999 64.4864 55
      vertex 19.1 64.4864 55
    endloop
  endfacet
  facet normal 0 0 -1
    outer loop
      vertex 18.7055 60.8391 57.4001
      vertex 20.7001 61.715 57.4001
      vertex 19.1 58.9436 57.4001
    endloop
  endfacet
  facet normal 0 0 -1
    outer loop
      vertex 18.7055 62.5909 57.4001
      vertex 20.7001 61.715 57.4001
      vertex 18.7055 60.8391 57.4001
    endloop
  endfacet
  facet normal 0 0 -1
    outer loop
      vertex 19.1 58.9436 57.4001
      vertex 17.0395 60.2978 57.4001
      vertex 18.7055 60.8391 57.4001
    endloop
  endfacet
  facet normal -0 0 -1
    outer loop
      vertex 17.0395 60.2978 57.4001
      vertex 15.8999 58.9436 57.4001
      vertex 16.0099 61.715 57.4001
    endloop
  endfacet
  facet normal 0 0 -1
    outer loop
      vertex 15.8999 58.9436 57.4001
      vertex 17.0395 60.2978 57.4001
      vertex 19.1 58.9436 57.4001
    endloop
  endfacet
  facet normal 0 0 -1
    outer loop
      vertex 20.7001 61.715 57.4001
      vertex 18.7055 62.5909 57.4001
      vertex 19.1 64.4864 57.4001
    endloop
  endfacet
  facet normal 0 0 -1
    outer loop
      vertex 17.0395 63.1322 57.4001
      vertex 19.1 64.4864 57.4001
      vertex 18.7055 62.5909 57.4001
    endloop
  endfacet
  facet normal 0 0 -1
    outer loop
      vertex 17.0395 63.1322 57.4001
      vertex 15.8999 64.4864 57.4001
      vertex 19.1 64.4864 57.4001
    endloop
  endfacet
  facet normal 0 0 -1
    outer loop
      vertex 16.0099 61.715 57.4001
      vertex 15.8999 64.4864 57.4001
      vertex 17.0395 63.1322 57.4001
    endloop
  endfacet
  facet normal 0 0 -1
    outer loop
      vertex 14.2999 61.715 57.4001
      vertex 16.0099 61.715 57.4001
      vertex 15.8999 58.9436 57.4001
    endloop
  endfacet
  facet normal 0 0 -1
    outer loop
      vertex 16.0099 61.715 57.4001
      vertex 14.2999 61.715 57.4001
      vertex 15.8999 64.4864 57.4001
    endloop
  endfacet
  facet normal 0.866026 0.5 0
    outer loop
      vertex 15.8999 58.9436 57.4001
      vertex 14.2999 61.715 55
      vertex 14.2999 61.715 57.4001
    endloop
  endfacet
  facet normal 0.866026 0.5 0
    outer loop
      vertex 14.2999 61.715 55
      vertex 15.8999 58.9436 57.4001
      vertex 15.8999 58.9436 55
    endloop
  endfacet
  facet normal 0 1 -0
    outer loop
      vertex 19.1 58.9436 55
      vertex 15.8999 58.9436 57.4001
      vertex 19.1 58.9436 57.4001
    endloop
  endfacet
  facet normal 0 1 0
    outer loop
      vertex 15.8999 58.9436 57.4001
      vertex 19.1 58.9436 55
      vertex 15.8999 58.9436 55
    endloop
  endfacet
  facet normal -0.866026 0.5 0
    outer loop
      vertex 19.1 58.9436 55
      vertex 20.7001 61.715 57.4001
      vertex 20.7001 61.715 55
    endloop
  endfacet
  facet normal -0.866026 0.5 0
    outer loop
      vertex 20.7001 61.715 57.4001
      vertex 19.1 58.9436 55
      vertex 19.1 58.9436 57.4001
    endloop
  endfacet
endsolid OpenSCAD_Model
